<?xml version="1.0" encoding="utf-8"?>
<!-- Generator: Adobe Illustrator 25.1.0, SVG Export Plug-In . SVG Version: 6.00 Build 0)  -->
<svg version="1.1" id="Layer_1" xmlns="http://www.w3.org/2000/svg" xmlns:xlink="http://www.w3.org/1999/xlink" x="0px" y="0px"
	 viewBox="0 0 24 24" style="enable-background:new 0 0 24 24;" xml:space="preserve">
<style type="text/css">
	.st0{fill:#EA650D;}
</style>
<path class="st0" d="M22.5576,12.1572L13.2393,1.7988C13.083,1.625,12.894,1.4888,12.6768,1.3921
	c-0.4287-0.1885-0.9204-0.1895-1.354,0.001c-0.2163,0.0962-0.4053,0.2334-0.561,0.4067L1.4424,12.1572
	c-0.2769,0.3076-0.252,0.7817,0.0562,1.0586c0.3086,0.2783,0.7827,0.2529,1.0591-0.0557L11.25,3.4995V22
	c0,0.4141,0.3359,0.75,0.75,0.75s0.75-0.3359,0.75-0.75V3.4975l8.6924,9.6627c0.1484,0.165,0.3525,0.249,0.5576,0.249
	c0.1787,0,0.3584-0.0645,0.502-0.1934C22.8096,12.9395,22.835,12.4648,22.5576,12.1572z"/>
</svg>
