<?xml version="1.0" encoding="utf-8"?>
<!-- Generator: Adobe Illustrator 25.1.0, SVG Export Plug-In . SVG Version: 6.00 Build 0)  -->
<svg version="1.1" id="Layer_1" xmlns="http://www.w3.org/2000/svg" xmlns:xlink="http://www.w3.org/1999/xlink" x="0px" y="0px"
	 viewBox="0 0 24 24" style="enable-background:new 0 0 24 24;" xml:space="preserve">
<style type="text/css">
	.st0{fill:#EA650D;}
</style>
<path class="st0" d="M22.502,10.7837c-0.3076-0.2769-0.7812-0.251-1.0596,0.0562L12.75,20.5005V2c0-0.4141-0.3359-0.75-0.75-0.75
	S11.25,1.5859,11.25,2v18.5025l-8.6924-9.6627c-0.2773-0.3081-0.752-0.334-1.0591-0.0562c-0.3081,0.2769-0.333,0.7515-0.0562,1.0591
	l9.3208,10.3613c0.1582,0.1738,0.3467,0.3096,0.5601,0.4033c0.2148,0.0947,0.4424,0.1426,0.6758,0.1426s0.4609-0.0479,0.6758-0.1426
	c0.2119-0.0928,0.4062-0.2334,0.5635-0.4062l9.3193-10.3584C22.835,11.5352,22.8096,11.061,22.502,10.7837z"/>
</svg>
