<?xml version="1.0" encoding="utf-8"?>
<!-- Generator: Adobe Illustrator 25.1.0, SVG Export Plug-In . SVG Version: 6.00 Build 0)  -->
<svg version="1.1" id="Layer_1" xmlns="http://www.w3.org/2000/svg" xmlns:xlink="http://www.w3.org/1999/xlink" x="0px" y="0px"
	 viewBox="0 0 24 24" style="enable-background:new 0 0 24 24;" xml:space="preserve">
<style type="text/css">
	.st0{fill:#EA650D;}
</style>
<path class="st0" d="M22.6074,11.3252c-0.0928-0.2119-0.2334-0.4062-0.4062-0.5635L11.8428,1.4424
	c-0.3076-0.2773-0.7822-0.251-1.0591,0.0562c-0.2769,0.3076-0.252,0.7817,0.0562,1.0591l9.6606,8.6924H2
	c-0.4141,0-0.75,0.3359-0.75,0.75S1.5859,12.75,2,12.75h18.5025l-9.6627,8.6924c-0.3081,0.2773-0.333,0.751-0.0562,1.0596
	c0.1479,0.1641,0.3525,0.248,0.5576,0.248c0.1787,0,0.3584-0.0635,0.5015-0.1924l10.3613-9.3203
	c0.1738-0.1582,0.3096-0.3472,0.4033-0.5605c0.0947-0.2148,0.1426-0.4424,0.1426-0.6758S22.7021,11.54,22.6074,11.3252z"/>
</svg>
