<?xml version="1.0" encoding="utf-8"?>
<!-- Generator: Adobe Illustrator 25.1.0, SVG Export Plug-In . SVG Version: 6.00 Build 0)  -->
<svg version="1.1" id="Layer_1" xmlns="http://www.w3.org/2000/svg" xmlns:xlink="http://www.w3.org/1999/xlink" x="0px" y="0px"
	 viewBox="0 0 24 24" style="enable-background:new 0 0 24 24;" xml:space="preserve">
<style type="text/css">
	.st0{fill:#EA650D;}
</style>
<path class="st0" d="M22,11.25H3.4975l9.6627-8.6924c0.3076-0.2769,0.333-0.7515,0.0557-1.0591
	c-0.2759-0.3076-0.751-0.334-1.0586-0.0562L1.7988,10.7603c-0.1738,0.1572-0.3101,0.3457-0.4067,0.563
	C1.2979,11.5376,1.25,11.7646,1.25,11.999s0.0479,0.4614,0.1431,0.6782c0.0962,0.2163,0.2334,0.4058,0.4067,0.561l10.3574,9.3193
	c0.1431,0.1289,0.3223,0.1924,0.501,0.1924c0.2056,0,0.4102-0.084,0.5576-0.248c0.2773-0.3086,0.252-0.7822-0.0557-1.0596
	L3.4995,12.75H22c0.4141,0,0.75-0.3359,0.75-0.75S22.4141,11.25,22,11.25z"/>
</svg>
