<?xml version="1.0" encoding="utf-8"?>
<!-- Generator: Adobe Illustrator 25.1.0, SVG Export Plug-In . SVG Version: 6.00 Build 0)  -->
<svg version="1.1" id="Layer_1" xmlns="http://www.w3.org/2000/svg" xmlns:xlink="http://www.w3.org/1999/xlink" x="0px" y="0px"
	 viewBox="0 0 24 24" style="enable-background:new 0 0 24 24;" xml:space="preserve">
<style type="text/css">
	.st0{fill:#EA650D;}
</style>
<path class="st0" d="M22,18.4561h-0.8018V6.7725c0-0.2764-0.2236-0.5-0.5-0.5s-0.5,0.2236-0.5,0.5v11.6836h-3.0938V5.5435h1.8457
	c0.2764,0,0.5-0.2236,0.5-0.5s-0.2236-0.5-0.5-0.5h-2.3457c-0.2764,0-0.5,0.2236-0.5,0.5v13.4126h-1.7627v-6.8193
	c0-0.2764-0.2236-0.5-0.5-0.5H9.7476c-0.2764,0-0.5,0.2236-0.5,0.5v6.8193H7.9019v-2.707c0-0.2764-0.2236-0.5-0.5-0.5h-2.437
	c-0.2764,0-0.5,0.2236-0.5,0.5s0.2236,0.5,0.5,0.5h1.937v2.207H3.8076v-1.7549c0-0.2764-0.2236-0.5-0.5-0.5s-0.5,0.2236-0.5,0.5
	v1.7549H2c-0.2764,0-0.5,0.2236-0.5,0.5s0.2236,0.5,0.5,0.5h1.3076h4.0942h2.3457h4.0942h2.7627h4.0938H22
	c0.2764,0,0.5-0.2236,0.5-0.5S22.2764,18.4561,22,18.4561z M13.3418,18.4561h-3.0942v-6.3193h3.0942V18.4561z"/>
</svg>
