<?xml version="1.0" encoding="utf-8"?>
<!-- Generator: Adobe Illustrator 25.1.0, SVG Export Plug-In . SVG Version: 6.00 Build 0)  -->
<svg version="1.1" xmlns="http://www.w3.org/2000/svg" xmlns:xlink="http://www.w3.org/1999/xlink" x="0px" y="0px"
	 viewBox="0 0 24 24" style="enable-background:new 0 0 24 24;" xml:space="preserve">
<style type="text/css">
	.st0{fill:#EA650D;}
</style>
<g id="Layer_1">
</g>
<g id="PICTOS">
	<g>
		<path class="st0" d="M18.6904,10.5684c-0.2617,0.0894-0.4004,0.374-0.3105,0.6353c0.6709,1.9536,0.6357,4.0972-0.0986,6.0366
			c-0.8408,2.2256-2.5,3.9902-4.6709,4.9697c-2.168,0.9795-4.5898,1.0537-6.8159,0.2109s-3.9907-2.501-4.9692-4.6709
			c-0.9785-2.1689-1.0537-4.5898-0.2109-6.8159c0.8418-2.2256,2.5005-3.9907,4.6704-4.9697
			c1.8657-0.8413,3.8979-1.0176,5.875-0.5088c0.269,0.0679,0.54-0.0918,0.6089-0.3599c0.0688-0.2676-0.0923-0.54-0.3599-0.6089
			c-2.1685-0.5566-4.4897-0.3564-6.5352,0.5664C3.46,6.1416,1.6152,8.105,0.6787,10.5806c-0.937,2.4751-0.8535,5.1685,0.2354,7.5806
			c1.0879,2.4131,3.0508,4.2578,5.5269,5.1953c1.1411,0.4316,2.3276,0.6465,3.5122,0.6465c1.3857,0,2.7681-0.2939,4.0693-0.8809
			c2.4141-1.0898,4.2588-3.0537,5.1943-5.5283c0.8164-2.1572,0.8555-4.542,0.1084-6.7153
			C19.2354,10.6182,18.9521,10.4775,18.6904,10.5684z"/>
		<path class="st0" d="M23.6377,3.8252c-0.0527-0.0195-0.4053-0.1118-0.8623-0.2285c-0.6565-0.1674-1.5309-0.3904-1.9833-0.5264
			c-0.1199-0.4452-0.3156-1.338-0.4503-1.9512c-0.0889-0.4072-0.1582-0.7163-0.1758-0.7705
			c-0.0459-0.1431-0.1523-0.2583-0.292-0.3135c-0.1387-0.0547-0.2969-0.0439-0.4277,0.0278
			c-0.1846,0.103-3.1172,2.8125-3.666,3.3589c-0.1748,0.1729-0.249,0.4717-0.1768,0.71c0.1406,0.4692,0.4805,0.8901,0.8096,1.2974
			c0.001,0.0013,0.002,0.0026,0.0031,0.0038c-0.5952,0.4612-1.3782,1.017-2.1447,1.5596c-1.0498,0.7441-2.1367,1.5132-2.7817,2.0718
			c-0.6445,0.5581-0.9067,1.3477-0.7378,2.2231c0.0575,0.2982,0.1786,0.5535,0.327,0.7873l-1.1068,1.0394
			c-0.2012,0.1885-0.2114,0.5049-0.0225,0.7061c0.0986,0.1055,0.2314,0.1582,0.3647,0.1582c0.1226,0,0.2456-0.0449,0.3423-0.1357
			l1.1354-1.0656c0.1718,0.0993,0.3593,0.1822,0.5662,0.2413c0.2471,0.0713,0.4888,0.1055,0.7236,0.1055
			c0.5957,0,1.1465-0.2241,1.6201-0.6655c0.1562-0.145,0.3047-0.2998,0.4414-0.4614c1.1299-1.333,2.2012-2.8184,2.9092-3.8013
			c0.181-0.2507,0.325-0.449,0.4498-0.6179c0.4365,0.2928,0.8411,0.5311,1.1508,0.6286c0.0938,0.0293,0.1836,0.0439,0.2695,0.0439
			c0.207,0,0.3936-0.083,0.5576-0.2471c0.3408-0.3389,0.9414-0.9473,1.54-1.5542c0.7344-0.7432,1.6475-1.6689,1.7305-1.7446
			c0.1523-0.1064,0.2334-0.2891,0.21-0.4736S23.8125,3.8901,23.6377,3.8252z M17.2422,7.6108
			c-0.7002,0.9702-1.7578,2.4365-2.8623,3.7397c-0.1113,0.1313-0.2305,0.2568-0.3584,0.3755
			c-0.4023,0.3745-0.8574,0.4829-1.3887,0.3311c-0.5083-0.145-0.8027-0.459-0.8989-0.959
			c-0.1025-0.5317,0.0317-0.9497,0.4102-1.2778c0.6084-0.5264,1.6743-1.2812,2.7056-2.0117c0.7594-0.537,1.533-1.0869,2.1404-1.5557
			c0.0137,0.0281,0.0256,0.0558,0.0366,0.0833c0.0016,0.0165-0.0085,0.0313-0.0042,0.0481c0.04,0.1602,0.1152,0.2695,0.2705,0.3262
			c0.0322,0.0215,0.1035,0.0757,0.2031,0.1499c0.0636,0.0475,0.1267,0.0924,0.1904,0.1395
			C17.5613,7.1697,17.4175,7.3674,17.2422,7.6108z M18.0518,5.0684l-0.3765,0.3712c-0.1469-0.2199-0.3165-0.4315-0.4849-0.6392
			c-0.2207-0.2734-0.4482-0.5552-0.5684-0.8032c0.6875-0.6709,2.0166-1.8823,2.7656-2.563
			c0.1385,0.6329,0.3141,1.4277,0.4352,1.8833C19.2341,3.9028,18.6431,4.486,18.0518,5.0684z M21.3086,5.7471
			c-0.5498,0.5576-1.1016,1.1162-1.4541,1.4688c-0.4063-0.1716-1.1053-0.6714-1.5358-0.9897l0.1617-0.1592
			c0.6855-0.6754,1.3712-1.3514,2.0519-2.0294c0.467,0.1379,1.3102,0.3533,1.955,0.5181
			C22.2197,4.8247,21.8438,5.2056,21.3086,5.7471z"/>
		<path class="st0" d="M8.688,12.0381c0.2349-0.145,0.3076-0.4531,0.1626-0.688c-0.144-0.2339-0.4526-0.3081-0.688-0.1626
			c-0.7915,0.4883-1.334,1.2588-1.5264,2.1689c-0.3838,1.8174,0.7822,3.6084,2.5996,3.9932
			c0.2305,0.0488,0.4619,0.0723,0.6909,0.0723c1.3193,0,2.5552-0.7812,3.0947-2.0254c0.1104-0.2539-0.0059-0.5479-0.2598-0.6582
			c-0.2534-0.1113-0.5474,0.0068-0.6577,0.2598c-0.4443,1.0264-1.562,1.6045-2.6616,1.373
			c-1.2778-0.2705-2.0977-1.5303-1.8276-2.8076C7.75,12.9233,8.1313,12.3818,8.688,12.0381z"/>
	</g>
</g>
</svg>
