<svg xmlns="http://www.w3.org/2000/svg" width="300.006" height="300.006" viewBox="0 0 256 256">
  <defs>
    <style>
      .cls-1 {
        fill: #f82024;
        fill-rule: evenodd;
      }
    </style>
  </defs>
  <path id="Color_Fill_1" data-name="Color Fill 1" class="cls-1" d="M87.467,108.711h0.267a21.95,21.95,0,0,1,2.667-2.4,60.844,60.844,0,0,0,6.045-6.756c2.271-3.086,4.273-6.343,6.312-9.69a66.924,66.924,0,0,0,4-8.979c1.213-2.95,1.6-6.233,2.4-9.6q0.043-.711.089-1.422a25.027,25.027,0,0,0,.089-8.179q-0.045-.756-0.089-1.511l-0.711-4.178c-1.178-4.152-2.48-8.038-3.912-11.824-0.778-2.058-2.507-7.567-.089-9.068,1.87-1.16,4.761.313,6.045,0.978a60.935,60.935,0,0,1,5.868,3.2c2.439,1.621,4.767,3.466,7.111,5.156,2.444,1.762,4.557,3.8,6.935,5.6,0.782,0.591,1.354,1.544,2.133,2.134a26.979,26.979,0,0,1,4.8,4.889c1.013,1.342,2.453,2.533,3.467,3.911A145.287,145.287,0,0,1,152.54,80c2.117,4.057,3.812,8.449,5.6,12.8l2.223,6.756V99.465a14.372,14.372,0,0,0,1.6-2.311,31.561,31.561,0,0,0,4.089-8.268c0.765-2.5.857-6.032,2.223-7.912a5.7,5.7,0,0,1,.8-0.622c2.165,0.012,3.231,1.758,4.178,3.023,0.854,1.141,1.927,2.2,2.756,3.378,1.844,2.614,3.529,5.245,5.245,8a119.316,119.316,0,0,1,8.623,16.446,110.49,110.49,0,0,1,3.556,11.023c1.059,3.5,1.177,7.289,2.045,11.024q0.177,2.133.355,4.267a18.719,18.719,0,0,1,.267,2.578v1.689a27.522,27.522,0,0,1,0,7.823c-0.227.771-.02,1.956-0.178,2.667v1.423c-0.486,2.164-.2,4.475-0.711,6.578-1.154,4.711-1.861,9.233-3.556,13.335a71.083,71.083,0,0,1-16.886,25.042,68.089,68.089,0,0,1-20.007,13.007,69.119,69.119,0,0,1-17.069,4.8,11.265,11.265,0,0,0,1.689-11.735,10.93,10.93,0,0,0-10.223-6.578c-5.777.252-9.007,5.323-10.045,8.712a13.123,13.123,0,0,0,.889,9.6,115.342,115.342,0,0,1-14.58-4.089,46.272,46.272,0,0,1-8.356-3.734c-3.678-2.245-7.127-4.592-10.49-7.112a34.361,34.361,0,0,1-3.112-2.756l-1.245-1.333a32.006,32.006,0,0,1-5.423-5.956c-0.861-1.163-1.916-2.275-2.756-3.468A75.024,75.024,0,0,1,66.4,173.962c-1.591-3.772-2.459-7.912-3.556-12.179-0.633-2.461-.349-5.48-1.067-7.912v-4a44.557,44.557,0,0,1,.622-9.779c0.261-1.107.153-2.037,0.444-3.111,0.758-2.8,1.235-5.707,2.222-8.357,2.7-7.251,5.728-13.924,8.712-20.8,1.353-3.118,2.469-6.371,3.556-9.69,0.511-1.562.867-4.3,2.311-4.8,1.419-1.051,3.346,1.7,3.823,2.4A22.628,22.628,0,0,1,87.467,108.711Z"/>
</svg>
