<svg xmlns="http://www.w3.org/2000/svg" width="400.026" height="400.026" viewBox="0 0 512 512">
  <defs>
    <style>
      .cls-1 {
        fill: #00f0ff;
        fill-rule: evenodd;
      }
    </style>
  </defs>
  <path id="Color_Fill_1" data-name="Color Fill 1" class="cls-1" d="M153,232l39,8c7.455,2.325,13.379,6.267,17,12a26.613,26.613,0,0,1,3,7c2.7,10.439,7.667,32.742,10,48a180.975,180.975,0,0,0,8,32,34.772,34.772,0,0,1-2,19h79c-0.21-18.878-3.154-46.7,5-58,7.96-11.033,24.782-10,44-10,28.449,0,62.322-.928,97,0,12.339,0.33,24.488.328,37,0a22.005,22.005,0,0,1,5,1c8.027,2.611,13.753,9.671,17,18V487a35.8,35.8,0,0,1-1,5c-2.415,8.751-6.833,13.81-10,16a23.223,23.223,0,0,1-13,4H27a24.58,24.58,0,0,1-11-2,24.885,24.885,0,0,1-10-8,27.49,27.49,0,0,1-5-13c-1.391-9.129-1.133-17.278-1-25,0.2-11.624-.53-18.523,4-25a34.274,34.274,0,0,1,10-9,37.974,37.974,0,0,1,6-3,32.054,32.054,0,0,1-3-14,33.229,33.229,0,0,1,4-15c3.258-6.236,9.157-10.441,11-13,8.243-11.442,15.769-22.55,24-34,3.084-4.29,9.935-9.224,12-14V254c-4.078-5.111-4.207-21.086-2-29,5.445-19.528,12.012-41.819,14-63H78c-1.789,1.447-6.355,1.322-8,3L51,236l-7,9a23.484,23.484,0,0,1-9,6c-10.414,3.776-22.494-.834-28.584-7.545C-3.767,232.232,1.221,213.491,11,181c5.62-18.674,6.973-35.57,17-49,8.97-12.014,45.823-27.143,61-35,4.868-2.52,11.152-3.459,15-7C90.182,81.715,79.094,54.383,88,33a51.309,51.309,0,0,1,9.537-15.218A53.845,53.845,0,0,1,121,3a52.357,52.357,0,0,1,25-2c10.337,1.794,21.473,7.031,29.379,16.659A48.592,48.592,0,0,1,184,34c3.143,9.763,5.837,27.567-4,44a50.276,50.276,0,0,1-17,17v1h1c3.63,6.086,8.682,11.393,11,19,2.471,8.109-2.31,15.781,0,24l9,22h6c3.993-.795,7.939-1.453,12-2,2.287-.308,7.858-0.872,9-1,10.609-1.191,18.72-4.1,25-2,12.138,4.067,23.1,19.827,19,33-1.809,5.807-6.511,10.245-11,13a28.113,28.113,0,0,1-12,4l-48,7a41.863,41.863,0,0,1-26-5v2C154.772,214.82,153.467,225.351,153,232ZM130,17a39.072,39.072,0,0,0-20.57,12.806A32.406,32.406,0,0,0,104,39c-4.134,11-1.965,24.979,7,35,8.02,8.965,20.866,13.871,33,11,18.733-4.432,32.206-26.681,25-46C163.556,24.405,147.47,14.726,130,17Zm0,85c-2.689.217-5.341,0.548-8,1a91.426,91.426,0,0,0-9,2L66,128c-11.775,3.83-21.408,10.044-28,19-6.942,9.431-6.955,18.721-10,33-2.856,13.394-7.609,26.48-10.222,41.365-0.273,1.552-.529,3.083-0.778,4.635l1,5a9.368,9.368,0,0,0,11,4,13.031,13.031,0,0,0,5-4c2.292-3.1,2.17-6.583,3.321-11.442,0.142-.6.452-1.688,0.679-2.558,1.41-5.394,2.743-10.716,4-16,2.722-11.446,8.953-31.809,14-48,1.664-.677,3.319-1.339,5-2,6.578-2.587,12.5-4.211,19-7,12.792-5.492,29.859-12.248,36-14a6.458,6.458,0,0,1,4,0c2.838,1,4.076,4.061,4.46,5.325A9.485,9.485,0,0,1,124,142c-2.077,4.452-7.289,5.756-11.683,7.195A80.062,80.062,0,0,0,99,155c-0.5,7.971-3.148,15.379-5,22-4.761,17.017-6.593,34.087-11,50-4.118,14.869,1.643,28.406,10,34,4.6,3.08,9.789,2.276,16,4,13.831,3.838,30.273,7.164,44,11,7.214,2.016,16.38.62,20,6l13,55c0.592,2.506-.282,11.292,5.34,17.751A19.224,19.224,0,0,0,195,358a14.337,14.337,0,0,0,5,1c2.909,0.046,8.647-.8,12-6a13.189,13.189,0,0,0,2-8c-2.477-9.034-4.776-17.9-7-27-4.566-18.682-8.509-37.08-12-56a21.092,21.092,0,0,0-11-7l-43-9-4-1a19.883,19.883,0,0,0-1.375-2.123A13.947,13.947,0,0,0,134,241c0.038-14.695,5.453-28.649,9-41,5.91-20.576,8.1-41.455,14-61C163.875,116.235,152.8,101.935,130,102Zm37,65a103.09,103.09,0,0,0-2.973,13.338c-0.495,3.208-.836,6.42-1.027,9.662,9.264,12.253,59.788.819,74-3,1.2-4.446,2.181-9.342-.232-12.486A7,7,0,0,0,233,172a6.525,6.525,0,0,0-3,0c-6.679,1.064-13.275,2.053-20,3-7.733,1.089-31.631,4.078-31,4-2.437.416-4.523,0.173-6-1-1.6-1.268-1.818-3.1-2.444-4.982A17.4,17.4,0,0,0,167,167ZM85,276v48c0,5.952,1.351,15.819-1,20-2.615,4.651-7.907,8.7-11,13-8.239,11.445-15.769,22.549-24,34-5.521,7.681-14.233,12.608-15,25a11.725,11.725,0,0,1,2,5l6,5c4.865,0.241,6.784,1.3,10-1,8.735-3.179,19.381-23.18,25-31,7.683-10.693,16.127-21.04,24-32,2.521-3.509,7.223-6.838,9-11,4.193-9.817,1-52.707,1-67h-1v-1C100.12,282.5,92.854,278.235,85,276Zm74,18a126.862,126.862,0,0,1-31-7v64c-1.823,2.6-1.377,5.912-3,9-4.64,8.828-12.987,17.635-19,26-9.736,13.544-23.114,25.9-31,41h78c0.024-5.031.025-10.021,0-15-0.025-5.075-.07-11.278,0-15,0.127-6.767.455-13.344,1-20a25.44,25.44,0,0,1,9-13,35.222,35.222,0,0,1,8-4c1-.373,1.987-0.7,3-1-1.729-6.686-3.38-13.287-5-20C165.365,323.939,162.086,309.186,159,294Z"/>
</svg>
