<svg xmlns="http://www.w3.org/2000/svg" width="400.026" height="400.026" viewBox="0 0 512 512">
  <defs>
    <style>
      .cls-1 {
        fill: #00f0ff;
        fill-rule: evenodd;
      }
    </style>
  </defs>
  <path id="Color_Fill_1" data-name="Color Fill 1" class="cls-1" d="M176.857,237.615l29.943,6.142c5.724,1.785,10.272,4.812,13.052,9.213a20.447,20.447,0,0,1,2.3,5.374c2.074,8.016,5.886,25.139,7.677,36.854a138.973,138.973,0,0,0,6.143,24.568,26.688,26.688,0,0,1-1.536,14.588h60.654c-0.161-14.494-2.421-35.854,3.839-44.531,6.111-8.471,19.027-7.678,33.782-7.678,21.842,0,47.849-.712,74.474,0,9.473,0.254,18.8.253,28.408,0a16.952,16.952,0,0,1,3.839.768c6.163,2,10.559,7.425,13.052,13.82V433.4a27.515,27.515,0,0,1-.768,3.839c-1.854,6.719-5.246,10.6-7.678,12.284a17.828,17.828,0,0,1-9.981,3.071H80.118a18.885,18.885,0,0,1-8.445-1.535,19.1,19.1,0,0,1-7.678-6.143,21.1,21.1,0,0,1-3.839-9.981c-1.068-7.009-.87-13.265-0.768-19.194,0.154-8.924-.407-14.221,3.071-19.194a26.3,26.3,0,0,1,7.678-6.91,29.081,29.081,0,0,1,4.607-2.3,24.608,24.608,0,0,1-2.3-10.748,25.511,25.511,0,0,1,3.071-11.517c2.5-4.788,7.03-8.017,8.446-9.981,6.328-8.785,12.107-17.313,18.426-26.1,2.368-3.294,7.628-7.082,9.213-10.749V254.506c-3.13-3.925-3.23-16.189-1.535-22.266,4.18-14.993,9.223-32.108,10.749-48.37h-1.536c-1.374,1.111-4.879,1.015-6.142,2.3q-7.294,27.255-14.588,54.512L93.17,247.6a18.019,18.019,0,0,1-6.91,4.606c-8,2.9-17.27-.64-21.946-5.793-7.818-8.616-3.988-23,3.52-47.951,4.315-14.337,5.354-27.31,13.052-37.621,6.887-9.224,35.182-20.839,46.835-26.872,3.737-1.935,8.562-2.656,11.516-5.374-10.609-6.362-19.122-27.346-12.284-43.763a39.4,39.4,0,0,1,7.322-11.684,41.346,41.346,0,0,1,18.014-11.349,40.2,40.2,0,0,1,19.195-1.535A35.831,35.831,0,0,1,200.658,85.6c2.413,7.5,4.482,21.165-3.071,33.783a38.609,38.609,0,0,1-13.052,13.052V133.2H185.3c2.786,4.673,6.665,8.748,8.445,14.588,1.9,6.226-1.774,12.117,0,18.427l6.91,16.891h4.607c3.065-.611,6.1-1.116,9.213-1.536,1.756-.236,6.033-0.669,6.91-0.768,8.145-.914,14.373-3.15,19.194-1.535,9.319,3.122,17.739,15.223,14.588,25.336-1.389,4.459-5,7.866-8.446,9.981a21.584,21.584,0,0,1-9.213,3.072l-36.853,5.374a32.141,32.141,0,0,1-19.962-3.839v1.536C178.217,224.424,177.216,232.509,176.857,237.615ZM159.2,72.543a30,30,0,0,0-15.793,9.832,24.9,24.9,0,0,0-4.169,7.059,26.859,26.859,0,0,0,5.375,26.872c6.157,6.883,16.02,10.65,25.336,8.446,14.382-3.4,24.727-20.485,19.194-35.318C184.962,78.229,172.611,70.8,159.2,72.543Zm0,65.261c-2.064.166-4.1,0.421-6.142,0.768a70.71,70.71,0,0,0-6.91,1.535l-36.085,17.659c-9.041,2.941-16.437,7.712-21.5,14.588-5.33,7.241-5.34,14.374-7.678,25.336-2.193,10.284-5.842,20.331-7.849,31.759-0.209,1.192-.406,2.367-0.6,3.559l0.768,3.839a7.193,7.193,0,0,0,8.446,3.071,10.013,10.013,0,0,0,3.839-3.071c1.76-2.38,1.666-5.054,2.55-8.785,0.109-.459.347-1.3,0.522-1.964q1.624-6.212,3.071-12.284c2.09-8.789,6.874-24.422,10.749-36.853,1.278-.52,2.548-1.028,3.839-1.536,5.05-1.986,9.6-3.233,14.588-5.374,9.821-4.217,22.924-9.4,27.639-10.749a4.957,4.957,0,0,1,3.072,0c2.179,0.768,3.129,3.118,3.424,4.088a7.288,7.288,0,0,1-.353,5.125c-1.595,3.418-5.6,4.419-8.97,5.524A61.441,61.441,0,0,0,135.4,178.5c-0.386,6.12-2.416,11.807-3.839,16.891-3.655,13.065-5.061,26.171-8.445,38.389-3.162,11.416,1.261,21.809,7.678,26.1,3.532,2.364,7.515,1.748,12.284,3.071,10.619,2.947,23.243,5.5,33.782,8.446,5.539,1.547,12.576.476,15.356,4.606q4.989,21.113,9.981,42.228c0.454,1.924-.217,8.669,4.1,13.629a14.757,14.757,0,0,0,2.81,2.494,10.992,10.992,0,0,0,3.838.768,10.693,10.693,0,0,0,9.214-4.607,10.127,10.127,0,0,0,1.535-6.142c-1.9-6.936-3.667-13.744-5.374-20.73-3.506-14.343-6.533-28.469-9.213-42.995a16.2,16.2,0,0,0-8.446-5.375l-33.014-6.91-3.071-.767a15.279,15.279,0,0,0-1.056-1.63,10.66,10.66,0,0,0-1.248-1.441c0.029-11.283,4.187-22,6.91-31.479,4.538-15.8,6.218-31.828,10.749-46.834C185.206,148.734,176.7,137.754,159.2,137.8Zm28.408,49.905a79.136,79.136,0,0,0-2.283,10.241c-0.38,2.463-.642,4.929-0.788,7.418,7.113,9.408,45.9.629,56.815-2.3,0.918-3.414,1.675-7.173-.178-9.587a5.373,5.373,0,0,0-2.893-1.93,5.005,5.005,0,0,0-2.3,0c-5.128.817-10.192,1.577-15.356,2.3-5.937.835-24.285,3.131-23.8,3.071a5.7,5.7,0,0,1-4.606-.768c-1.226-.974-1.4-2.377-1.877-3.825A13.361,13.361,0,0,0,187.606,187.709ZM124.648,271.4V308.25c0,4.569,1.037,12.145-.767,15.355-2.008,3.571-6.071,6.683-8.446,9.981-6.326,8.787-12.107,17.313-18.426,26.1-4.239,5.9-10.928,9.68-11.517,19.194a9,9,0,0,1,1.536,3.839l4.607,3.839c3.735,0.184,5.209,1,7.678-.768,6.707-2.441,14.88-17.8,19.194-23.8,5.9-8.21,12.382-16.154,18.427-24.569,1.935-2.694,5.545-5.25,6.91-8.445,3.219-7.538.769-40.467,0.768-51.441h-0.768v-0.768C136.257,276.385,130.679,273.112,124.648,271.4Zm56.816,13.82a97.382,97.382,0,0,1-23.8-5.375V328.98c-1.4,2-1.058,4.539-2.3,6.91-3.562,6.778-9.971,13.539-14.587,19.962-7.476,10.4-17.746,19.887-23.8,31.478h59.886c0.019-3.862.019-7.693,0-11.516-0.019-3.9-.053-8.659,0-11.517,0.1-5.2.349-10.245,0.768-15.355a19.529,19.529,0,0,1,6.91-9.981,27.019,27.019,0,0,1,6.142-3.071c0.766-.287,1.525-0.54,2.3-0.768-1.327-5.133-2.595-10.2-3.839-15.356C186.35,308.2,183.833,296.876,181.464,285.217Z"/>
</svg>
