<?xml version="1.0" encoding="utf-8"?>
<!-- Generator: Adobe Illustrator 25.2.0, SVG Export Plug-In . SVG Version: 6.00 Build 0)  -->
<svg version="1.1" id="Layer_1" xmlns="http://www.w3.org/2000/svg" xmlns:xlink="http://www.w3.org/1999/xlink" x="0px" y="0px"
	 viewBox="0 0 24 24" style="enable-background:new 0 0 24 24;" xml:space="preserve">
<style type="text/css">
	.st0{fill:#EA650D;}
</style>
<path class="st0" d="M14.3,12.1c-0.4-0.2-0.9-0.4-1.3-0.6V4.6c1,0.1,2.1,0.4,3.2,1c0.2,0.1,0.5,0,0.7-0.2c0.1-0.2,0-0.5-0.2-0.7
	c-1.2-0.7-2.5-1.1-3.7-1.2V2.5C13,2.2,12.8,2,12.5,2S12,2.2,12,2.5v1.1c-1.6,0.1-3,0.8-4.1,2.1C6.9,6.9,6.9,7.8,7.1,8.5
	c0.3,1.3,1.7,2.4,4.1,3.3c0.3,0.1,0.5,0.2,0.8,0.3v7.3c-1.1,0-2.4-0.3-4.3-0.9c-0.3-0.1-0.5,0.1-0.6,0.3c-0.1,0.3,0.1,0.5,0.3,0.6
	c1.8,0.6,3.2,1,4.6,1v2.1c0,0.3,0.2,0.5,0.5,0.5s0.5-0.2,0.5-0.5v-2.2c0.6-0.1,1.2-0.3,1.8-0.6c1.4-0.8,2.2-2.2,2.2-3.7
	C17,14.5,16,13,14.3,12.1z M11.5,10.9c-2-0.8-3.2-1.7-3.5-2.6C7.9,7.6,8.1,7,8.7,6.4c0.9-1,2-1.6,3.3-1.7V11
	C11.8,11,11.7,10.9,11.5,10.9z M14.3,18.9c-0.4,0.2-0.8,0.4-1.3,0.5v-6.8c0.3,0.1,0.6,0.3,0.9,0.4c1.3,0.7,2.1,1.9,2.1,3.1
	C16,17.2,15.4,18.2,14.3,18.9z"/>
</svg>
