<?xml version="1.0" encoding="utf-8"?>
<!-- Generator: Adobe Illustrator 25.2.0, SVG Export Plug-In . SVG Version: 6.00 Build 0)  -->
<svg version="1.1" id="Layer_1" xmlns="http://www.w3.org/2000/svg" xmlns:xlink="http://www.w3.org/1999/xlink" x="0px" y="0px"
	 viewBox="0 0 24 24" style="enable-background:new 0 0 24 24;" xml:space="preserve">
<style type="text/css">
	.st0{fill:#EA650D;}
</style>
<path class="st0" d="M19.5,19.8c-0.2-0.2-0.5-0.2-0.7,0c-1.2,1.2-2.6,1.7-4.6,1.7c-4.5,0-6.4-3.2-7.1-5.9c-0.1-0.5-0.2-1-0.3-1.6
	h5.8c0.3,0,0.5-0.2,0.5-0.5c0-0.3-0.2-0.5-0.5-0.5H6.6c-0.1-1-0.1-2,0.1-3h5.8c0.3,0,0.5-0.2,0.5-0.5C13,9.2,12.8,9,12.5,9H6.9
	C7,8.9,7,8.8,7,8.7c1.1-4,3.7-6.2,7.4-6.2c1.7,0,3.2,0.5,4.4,1.5c0.2,0.2,0.5,0.1,0.7-0.1c0.2-0.2,0.1-0.5-0.1-0.7
	c-1.4-1.1-3.1-1.7-5-1.7c-4.2,0-7.2,2.5-8.4,6.9C6,8.6,5.9,8.8,5.9,9H2.5C2.2,9,2,9.2,2,9.5C2,9.8,2.2,10,2.5,10h3.2
	c-0.2,1-0.2,2-0.1,3H2.5C2.2,13,2,13.2,2,13.5C2,13.8,2.2,14,2.5,14h3.2c0.1,0.7,0.2,1.3,0.4,1.8c1.2,4.4,4.1,6.7,8.1,6.7
	c2.3,0,4-0.6,5.4-2C19.7,20.3,19.7,20,19.5,19.8z"/>
</svg>
