<?xml version="1.0" encoding="utf-8"?>
<!-- Generator: Adobe Illustrator 25.1.0, SVG Export Plug-In . SVG Version: 6.00 Build 0)  -->
<svg version="1.1" id="Layer_1" xmlns="http://www.w3.org/2000/svg" xmlns:xlink="http://www.w3.org/1999/xlink" x="0px" y="0px"
	 viewBox="0 0 24 24" style="enable-background:new 0 0 24 24;" xml:space="preserve">
<style type="text/css">
	.st0{fill:#EA650D;}
</style>
<g>
	<path class="st0" d="M15.9453,7.8828c0-0.1333-0.0527-0.2612-0.1475-0.355c-0.1855-0.1846-0.1865-0.1855-7.3252-0.145
		c-0.2749,0.0015-0.4971,0.2251-0.4971,0.5c0,0.9717,0.9839,1.6167,1.9355,2.2402c0.6841,0.4487,1.3916,0.9126,1.6401,1.4185
		c0.0845,0.1714,0.2588,0.2793,0.4487,0.2793c0.0068,0,0.0142,0,0.021-0.0005c0.1982-0.0083,0.3726-0.1328,0.4448-0.3179
		c0.1821-0.4663,0.9131-0.9521,1.5576-1.3809C14.9688,9.4937,15.9453,8.8442,15.9453,7.8828z M11.981,10.4487
		c-0.4165-0.437-0.9756-0.8037-1.522-1.1621c-0.4434-0.2905-0.9243-0.6055-1.2148-0.9077c1.9312-0.0093,4.2861-0.0161,5.4414-0.0112
		c-0.2881,0.3047-0.7705,0.6255-1.2148,0.9209C12.9297,9.6479,12.3765,10.0156,11.981,10.4487z"/>
	<path class="st0" d="M9.7764,16.3252c-1.2524,0.4248-2.811,0.9541-3.1177,2.9629c-0.042,0.2725,0.1455,0.5273,0.4185,0.5693
		c0.2769,0.043,0.5283-0.1455,0.5698-0.4189c0.2148-1.4082,1.3008-1.7764,2.4507-2.166c0.6826-0.2324,1.3818-0.4697,1.8545-0.9453
		c0.5127,0.4795,1.2188,0.7393,1.9072,0.9932c1.2188,0.4473,2.2715,0.835,2.4287,2.2803c0.0283,0.2568,0.2441,0.4463,0.4961,0.4463
		c0.0186,0,0.0371-0.001,0.0547-0.0029c0.2754-0.0303,0.4736-0.2764,0.4434-0.5508c-0.2246-2.0635-1.8066-2.6445-3.0781-3.1123
		c-0.8379-0.3076-1.562-0.5742-1.8477-1.1562c-0.103-0.209-0.3359-0.2949-0.562-0.2393c-0.1748,0.04-0.3101,0.1855-0.3628,0.3564
		C11.2207,15.835,10.5503,16.0625,9.7764,16.3252z"/>
	<path class="st0" d="M11.9077,13.6006c0.2764,0,0.5-0.2236,0.5-0.5v-0.0762c0-0.2764-0.2236-0.4619-0.5-0.4619
		s-0.5,0.2617-0.5,0.5381S11.6313,13.6006,11.9077,13.6006z"/>
	<path class="st0" d="M4.6909,3.4053h14.6177C20.2412,3.4053,21,2.6465,21,1.6909C21,0.7588,20.2412,0,19.3086,0H4.6909
		C3.7583,0,3,0.7588,3,1.7139C3,2.6465,3.7583,3.4053,4.6909,3.4053z M4.6909,1h14.6177C19.6895,1,20,1.3101,20,1.7139
		c0,0.3813-0.3105,0.6914-0.6914,0.6914H4.6909C4.3101,2.4053,4,2.0952,4,1.6909C4,1.3101,4.3101,1,4.6909,1z"/>
	<path class="st0" d="M19.9117,20.7109c0.0075-0.0345,0.0209-0.0668,0.0209-0.1035c0-4.0571-1.6082-6.9377-4.7418-8.6061
		c2.8603-1.5317,4.4951-4.1467,4.7144-7.6385c0.0176-0.2754-0.1924-0.5132-0.4678-0.5303
		c-0.2949-0.0161-0.5137,0.1924-0.5303,0.4678c-0.1484,2.3677-1.1143,5.5332-4.8711,7.1709
		c-0.2107,0.0919-0.317,0.3114-0.2858,0.5286c-0.0312,0.2172,0.0751,0.4366,0.2858,0.5286
		c3.2454,1.4144,4.8922,4.1292,4.8958,8.0664H5.0676c0.0037-3.9373,1.6504-6.652,4.8953-8.0664
		c0.2111-0.0919,0.3177-0.3114,0.2867-0.5286c0.031-0.2172-0.0756-0.4366-0.2867-0.5286C6.998,10.1787,5.3633,7.8223,5.104,4.4678
		c-0.0215-0.2749-0.2598-0.4795-0.5371-0.46c-0.2754,0.0215-0.4814,0.2617-0.46,0.5371c0.2624,3.3918,1.8852,5.941,4.6819,7.4469
		c-2.3091,1.2449-4.7219,3.7147-4.7219,8.6156c0,0.0368,0.0134,0.0692,0.0209,0.1038C3.4533,20.9561,3,21.5718,3,22.3086
		C3,23.2412,3.7583,24,4.6909,24h14.6177C20.2412,24,21,23.2412,21,22.2861C21,21.5667,20.5464,20.9549,19.9117,20.7109z
		 M19.3086,23H4.6909C4.3101,23,4,22.6895,4,22.2861c0-0.3809,0.3101-0.6914,0.6909-0.6914h14.6177
		c0.3809,0,0.6914,0.3105,0.6914,0.7139C20,22.6895,19.6895,23,19.3086,23z"/>
</g>
</svg>
