<?xml version="1.0" encoding="utf-8"?>
<!-- Generator: Adobe Illustrator 25.2.0, SVG Export Plug-In . SVG Version: 6.00 Build 0)  -->
<svg version="1.1" id="Layer_1" xmlns="http://www.w3.org/2000/svg" xmlns:xlink="http://www.w3.org/1999/xlink" x="0px" y="0px"
	 viewBox="0 0 24 24" style="enable-background:new 0 0 24 24;" xml:space="preserve">
<style type="text/css">
	.st0{fill:#EA650D;}
</style>
<g>
	<path class="st0" d="M4.2,2.8c-1.3,0-2.4,1.1-2.4,2.4s1.1,2.4,2.4,2.4c1.3,0,2.4-1.1,2.4-2.4S5.5,2.8,4.2,2.8z M4.2,6.6
		C3.4,6.6,2.8,6,2.8,5.2s0.6-1.4,1.4-1.4c0.8,0,1.4,0.6,1.4,1.4S5,6.6,4.2,6.6z"/>
	<path class="st0" d="M9.5,6h13C22.8,6,23,5.8,23,5.5C23,5.2,22.8,5,22.5,5h-13C9.2,5,9,5.2,9,5.5C9,5.8,9.2,6,9.5,6z"/>
	<path class="st0" d="M4.2,9.6c-1.3,0-2.4,1.1-2.4,2.4s1.1,2.4,2.4,2.4c1.3,0,2.4-1.1,2.4-2.4S5.5,9.6,4.2,9.6z M4.2,13.4
		c-0.8,0-1.4-0.6-1.4-1.4s0.6-1.4,1.4-1.4c0.8,0,1.4,0.6,1.4,1.4S5,13.4,4.2,13.4z"/>
	<path class="st0" d="M22.5,12h-13C9.2,12,9,12.2,9,12.5C9,12.8,9.2,13,9.5,13h13c0.3,0,0.5-0.2,0.5-0.5C23,12.2,22.8,12,22.5,12z"
		/>
	<path class="st0" d="M4.2,16.4c-1.3,0-2.4,1.1-2.4,2.4c0,1.3,1.1,2.4,2.4,2.4c1.3,0,2.4-1.1,2.4-2.4C6.6,17.4,5.5,16.4,4.2,16.4z
		 M4.2,20.2c-0.8,0-1.4-0.6-1.4-1.4c0-0.8,0.6-1.4,1.4-1.4c0.8,0,1.4,0.6,1.4,1.4C5.6,19.5,5,20.2,4.2,20.2z"/>
	<path class="st0" d="M22.5,18h-13C9.2,18,9,18.2,9,18.5C9,18.8,9.2,19,9.5,19h13c0.3,0,0.5-0.2,0.5-0.5C23,18.2,22.8,18,22.5,18z"
		/>
</g>
</svg>
