<svg id="Layer_1" data-name="Layer 1" xmlns="http://www.w3.org/2000/svg" viewBox="0 0 17 22"><defs><style>.cls-1{fill:#ea650d;}</style></defs><path class="cls-1" d="M15.5,8.02a.50061.50061,0,0,0-.36914.60352,3.3625,3.3625,0,0,1,.09473.78857A3.22521,3.22521,0,1,1,12.001,6.13916a3.18306,3.18306,0,0,1,.792.09961.49977.49977,0,1,0,.25-.96777,4.16308,4.16308,0,0,0-1.042-.13184,4.274,4.274,0,1,0,4.22461,4.273,4.36936,4.36936,0,0,0-.12207-1.02393A.49977.49977,0,0,0,15.5,8.02Z" transform="translate(-3.5 -1)"/><path class="cls-1" d="M12,1A8.564,8.564,0,0,0,3.5,9.60791c0,4.62354,7.80518,12.88721,8.1377,13.23682a.50032.50032,0,0,0,.7246,0c.332-.34961,8.1377-8.61328,8.1377-13.23682A8.56431,8.56431,0,0,0,12,1Zm0,20.76367c-1.54541-1.69336-7.5-8.457-7.5-12.15576A7.56307,7.56307,0,0,1,12,2a7.56307,7.56307,0,0,1,7.5,7.60791C19.5,13.30469,13.5459,20.07031,12,21.76367Z" transform="translate(-3.5 -1)"/></svg>