<?xml version="1.0" encoding="utf-8"?>
<!-- Generator: Adobe Illustrator 25.1.0, SVG Export Plug-In . SVG Version: 6.00 Build 0)  -->
<svg version="1.1" id="Layer_1" xmlns="http://www.w3.org/2000/svg" xmlns:xlink="http://www.w3.org/1999/xlink" x="0px" y="0px"
	 viewBox="0 0 24 24" style="enable-background:new 0 0 24 24;" xml:space="preserve">
<style type="text/css">
	.st0{fill:#EA650D;}
</style>
<g>
	<path class="st0" d="M12,19.4453c0.2764,0,0.5-0.2236,0.5-0.5v-2.6951c0.3337-0.0875,0.6425-0.2547,0.8936-0.5051
		c0.3721-0.3721,0.5771-0.8672,0.5771-1.3936c0-0.5254-0.2051-1.0195-0.5771-1.394c-0.7461-0.7432-2.0415-0.7441-2.7876,0.001
		c-0.3721,0.3735-0.5767,0.8677-0.5767,1.3931c0,0.5264,0.2051,1.0215,0.5776,1.3936c0.2508,0.2504,0.5594,0.4176,0.8931,0.5051
		v2.6951C11.5,19.2217,11.7236,19.4453,12,19.4453z M11.3135,15.0381c-0.1831-0.1836-0.2842-0.4268-0.2842-0.6865
		c0-0.2549,0.104-0.5059,0.2837-0.6865c0.1836-0.1826,0.4277-0.2832,0.687-0.2832s0.5034,0.1006,0.686,0.2822
		c0.1807,0.1816,0.2847,0.4326,0.2847,0.6875c0,0.2598-0.1011,0.5029-0.2837,0.6865
		C12.3247,15.3994,11.6748,15.3994,11.3135,15.0381z"/>
	<path class="st0" d="M18.084,9.3262h-0.8018V6.7827c0-1.4106-0.5488-2.7373-1.5469-3.7354C14.7383,2.0493,13.4111,1.5,12,1.5
		S9.2622,2.0493,8.2646,3.0474c-0.998,0.9976-1.5474,2.3242-1.5474,3.7354v2.5435H5.9155c-0.9961,0-1.8066,0.8105-1.8066,1.8071
		v9.1665c0,0.2764,0.2236,0.5,0.5,0.5s0.5-0.2236,0.5-0.5v-9.1665c0-0.4448,0.3618-0.8071,0.8066-0.8071h1.3018h9.5649h1.3018
		c0.4453,0,0.8076,0.3623,0.8076,0.8071v9.5601c0,0.4443-0.3623,0.8066-0.8076,0.8066H6.3306c-0.2764,0-0.5,0.2236-0.5,0.5
		s0.2236,0.5,0.5,0.5H18.084c0.9971,0,1.8076-0.8105,1.8076-1.8066v-9.5601C19.8916,10.1367,19.0811,9.3262,18.084,9.3262z
		 M16.2822,9.3262H7.7173V6.7827c0-1.144,0.4453-2.2192,1.2544-3.0283S10.856,2.5,12,2.5c1.1445,0,2.2197,0.4453,3.0283,1.2544
		s1.2539,1.8848,1.2539,3.0283V9.3262z"/>
</g>
</svg>
