<svg xmlns="http://www.w3.org/2000/svg" width="502.862" height="300.321" viewBox="0 0 6768 4042">
  <defs>
    <style>
      .cls-1 {
        fill: #fff;
      }

      .cls-1, .cls-2 {
        fill-rule: evenodd;
      }

      .cls-2 {
        fill: #ea650d;
      }
    </style>
  </defs>
  <path id="Color_Fill_2" data-name="Color Fill 2" class="cls-1" d="M4303,1483h235V2521H4397c-41.46,0-78.53.02-107-12-50.06-21.13-70.85-53.59-100-95-17.62-25.03-36.19-49.64-54-75-82.26-117.1-168.52-231.6-251-349-23.5-33.45-48.29-66.25-72-100-8.49-12.08-28.48-32.53-33-46h-1v677H3544V1718c0-36.94,1.94-76.2-9-103-10.26-25.14-24.6-27.45-52-35-7.97-2.19-31.75-3.71-35-9,4.41-6.91,2.76-18.19,5-27q6-30.495,12-61h276c2.41,1.46,6.38.17,10,1l27,6c24.45,8.06,46.12,21.03,65,35,27.29,20.19,45.35,53.08,65,81,31.09,44.17,63.73,87.49,95,132,67.16,95.59,137.52,189.17,205,285,21.88,31.08,44.94,61.6,67,93,8.55,12.17,19.99,23.52,27,37h1V1483Zm419,0h204c44.68,0,89.67-1.82,121,11,54.87,22.44,78.36,54.94,110,100,15,21.35,30.76,42.36,46,64,77.43,109.97,158.34,217.71,236,328,27.79,39.47,57.04,78.2,85,118,9.11,12.96,18.69,25.74,28,39,2.57,3.65,6.32,6.24,8,11h1V1483h235V2521H5651c-37.08,0-71.95.64-98-10-54.94-22.43-72.5-50.25-104-95-21.87-31.07-44.94-61.6-67-93-78.02-111.05-159.77-219.65-238-331-22.54-32.09-46.2-63.62-69-96-11.77-16.71-27.51-32.42-37-51h-1v676H4801V1698c0-40.62-.82-76.93-18-100-9.43-12.66-56.38-22.45-77-25Q4714,1528,4722,1483Z"/>
  <path id="Color_Fill_1" data-name="Color Fill 1" class="cls-2" d="M2418,1663q-72.495,354.465-145,709h-1v-1c-9.72-7.96-21.62-32.32-29-44-16.34-25.86-34.39-50.7-51-77-15.58-24.67-34.39-48.34-50-73-36.04-56.96-73.83-112.26-111-168-17.84-26.75-35.34-53.49-53-80-11.51-17.28-19.72-34.5-40-43-15.71-6.58-45.29-3-66-3H1728c-18.02,0-60.33-3.36-73,2-21.89,9.27-19.51,26.73-26,51-7.58,28.36-10.1,58.58-18,88-6.4,23.83-8.32,49.15-15,74-20.2,75.11-27.92,155.83-48,231-9.16,34.28-11.79,69.86-21,103q-2.505,15-5,30c-7.97,29.93-11.79,63.25-20,93-4.18,15.14-3.9,31.71,7,39,7.23,4.83,23.34,3,35,3h84c25.81,0,82.24,5.27,98-5,24.71-16.1,24.63-82.49,34-116,6.11-21.86,7.57-46.03,14-69,18.66-66.63,24.47-139.34,43-206,6.39-22.98,7.93-47.13,14-69,2.22-8,.73-18.8,5-25,7.48,13.3,17.64,25.49,26,38,18.53,27.72,36.71,55.6,55,83,52.06,77.97,103.18,156.33,155,234,19.18,28.74,38.06,57.59,57,86,11.8,17.71,20.24,36.27,41,45,17.03,7.16,46.99,4,70,4h145c22.99,0,57.91,4.3,73-5,23.35-14.4,20.97-55.2,29-85,15.29-56.76,21.2-118.46,37-175q3.495-19.995,7-40c7.49-26.58,9.51-55.28,17-83,20.73-76.7,28.72-158.97,50-235,6.78-24.22,7.24-47.77,14-72,9.82-35.21,13.08-72.68,23-109,4.72-17.28,11.71-40.98,6-62-9.45-34.82-36.23-63.93-54-92-35.82-56.58-69.82-113.34-107-169-18.75-28.06-50.66-26-97-26H1249c-32,.01-53.44-1.8-64-23-2.04-4.1-4.97-13.25-3-21,8.4-33.11,36.89-52.06,55-76,15.75-20.82,38.22-45.3,59-61,11.92-9.01,21-22.93,33-32,18.9-14.28,36-31.03,55-45,12.53-9.21,25.17-17.01,38-26,63.37-44.41,132.91-81.79,209-114,37.49-15.87,77.96-26.04,118-39,26.4-8.543,52.88-9.846,81-17,29.6-7.531,64.23-6.9,96-14l45-2c9.73-2.077,24.01,1.326,35-1,7.19-1.521,20.81-1.579,28,0h34c10.28,2.292,22.75-.522,34,2,18.15,4.066,39.61,2.951,57,7l22,2c21.15,5.17,43.74,6,65,12,60.88,17.19,119.9,30.53,174,54,71.23,30.91,138.77,65.78,199,108,22.16,15.53,43.3,32.8,65,49,8.12,6.07,14.95,14.92,23,21,19.4,14.63,35.99,31.99,53,49,12.71,12.71,26.05,24.51,37,39,4.37,5.78,11.61,10.19,16,16,17.69,23.41,38.06,45.01,55,69,44.47,62.98,84.56,131.17,117,206,19.62,45.25,33.07,93.76,49,143,8.62,26.63,9.79,53.64,17,82,13.86,54.5,16.99,121.52,17,188,0.01,37.81,1.29,79.68-6,112q-0.495,9-1,18c-4.38,18.96-5.36,40.84-10,59-6.48,25.35-8.58,50.1-16,73-7.04,21.73-9.97,41.98-17,63-69.37,207.52-197.35,387.86-357,505-29.31,21.5-58.65,44.22-90,64-20.09,12.67-41.36,21.47-62,34-12.54,7.62-27.39,16-41,22-44.33,19.52-88.14,35.74-137,52-36.26,12.07-76.46,19.87-116,30-18.68,4.78-38.66,4.72-57,9q-36.495,3.495-73,7c-5.87,1.3-14.36-.03-19,1h-64c-53.12.01-108.77-3-153-14-22.9-5.69-44.14-5.77-66-12-59.91-17.07-117.58-32.68-171-56-196.71-85.89-360.47-222.94-470-396-45.68-72.17-79.26-151.11-107-242-9.82-32.17-11.08-67.22-19-102-2.84-12.49-.36-26.16-3-38v-31c-0.01-22.73-1.31-46.69,3-66q0.5-9,1-18l9-54c15.46-54.92,31.48-103.4,58-146,50.48-81.09,117.44-140.14,209-180,26.23-11.42,54.76-18.87,83-28,18.65-6.03,36.99-6.05,57-11,15.58-3.85,34.58-4.3,51-8q10.995-.495,22-1c25.98-5.68,59.12-3,89-3h823Z"/>
</svg>
