<?xml version="1.0" encoding="utf-8"?>
<!-- Generator: Adobe Illustrator 25.1.0, SVG Export Plug-In . SVG Version: 6.00 Build 0)  -->
<svg version="1.1" id="Layer_1" xmlns="http://www.w3.org/2000/svg" xmlns:xlink="http://www.w3.org/1999/xlink" x="0px" y="0px"
	 viewBox="0 0 24 24" style="enable-background:new 0 0 24 24;" xml:space="preserve">
<style type="text/css">
	.st0{fill:#EA650D;}
</style>
<g>
	<path class="st0" d="M14.1338,4.9849c-0.6924-0.5923-1.4873-0.9995-2.3633-1.2104c-0.27-0.0649-0.5391,0.1006-0.603,0.3696
		c-0.0645,0.2681,0.1011,0.5381,0.3696,0.603c0.7202,0.1729,1.375,0.5088,1.9492,1c0.6211,0.5332,1.1006,1.2222,1.3857,1.9917
		c0.0742,0.2021,0.2656,0.3267,0.4688,0.3267c0.0576,0,0.1162-0.0098,0.1738-0.0312c0.2588-0.0957,0.3906-0.3833,0.2949-0.6421
		C15.4658,6.4629,14.8877,5.6318,14.1338,4.9849z"/>
	<path class="st0" d="M20.3428,19.1338l-3.7696-4.9725c0.0031-0.0038,0.0067-0.0071,0.0098-0.0109
		c1.751-2.1313,2.2402-5.0728,1.2764-7.6763c-0.4531-1.2246-1.2148-2.3203-2.2119-3.1758c-0.001-0.0005-0.002-0.0015-0.0029-0.002
		c-1.5391-1.3159-3.4932-1.9438-5.4985-1.7681C8.127,1.7056,6.3003,2.6729,5.0024,4.2529c-1.751,2.1309-2.2397,5.0723-1.2764,7.6763
		c0.4531,1.2261,1.2163,2.3228,2.207,3.1714c1.3735,1.1768,3.0728,1.8066,4.8457,1.8066c0.2231,0,0.4482-0.0098,0.6733-0.0303
		c1.6703-0.1484,3.2051-0.8483,4.4219-1.9832l3.668,4.8387c0.1777,0.2402,0.251,0.5371,0.2061,0.8359
		c-0.0449,0.2959-0.1992,0.5537-0.4346,0.7275c-0.4727,0.3447-1.1172,0.2451-1.4678-0.2285l-2.5645-3.4688
		c-0.165-0.2227-0.4785-0.2666-0.6992-0.1055c-0.2227,0.1641-0.2695,0.4775-0.1055,0.6992l2.5645,3.4697
		c0.4043,0.5449,1.0283,0.834,1.6582,0.834c0.4209,0,0.8438-0.1279,1.2061-0.3955c0.4521-0.332,0.7471-0.8232,0.8311-1.3828
		C20.8213,20.1543,20.6826,19.5938,20.3428,19.1338z M15.8096,13.5156c-1.125,1.3701-2.7041,2.21-4.4463,2.3652
		c-1.7422,0.1543-3.4395-0.3916-4.7798-1.54c-0.8613-0.7383-1.5254-1.6919-1.9199-2.7583C3.8232,9.3105,4.249,6.7451,5.7749,4.8877
		c1.126-1.3706,2.7095-2.21,4.458-2.3633c0.1919-0.0166,0.3828-0.0249,0.5728-0.0249c1.5352,0,3.0068,0.5439,4.1943,1.561
		l0.0049,0.0034c0.8594,0.7383,1.5225,1.6914,1.917,2.7568C17.7627,9.0928,17.3369,11.6577,15.8096,13.5156z"/>
</g>
</svg>
