<?xml version="1.0" encoding="utf-8"?>
<!-- Generator: Adobe Illustrator 27.0.1, SVG Export Plug-In . SVG Version: 6.00 Build 0)  -->
<svg version="1.1" id="PICTOS" xmlns="http://www.w3.org/2000/svg" xmlns:xlink="http://www.w3.org/1999/xlink" x="0px" y="0px"
	 viewBox="0 0 24 24" style="enable-background:new 0 0 24 24;" xml:space="preserve">
<style type="text/css">
	.st0{opacity:0;}
	.st1{fill:#FFFFFF;}
	.st2{fill:#EC6500;}
</style>
<g class="st0">
	<rect x="0" y="0" class="st1" width="24" height="24"/>
</g>
<path class="st2" d="M12,22.6c-1.58,0-2.87-1.29-2.87-2.87v-0.75H3.1c-0.33,0-0.6-0.27-0.6-0.6v-2.32c0-0.34,0.15-0.66,0.42-0.88
	l0.75-0.68c1.28-1.16,2.02-2.81,2.02-4.54c0-0.54,0.12-4.97,4.4-6.09V3.32c0-1.06,0.86-1.92,1.92-1.92c1.06,0,1.92,0.86,1.92,1.92
	v0.55c4.27,1.09,4.4,5.55,4.4,6.05c0,1.77,0.73,3.42,2.01,4.58l0.77,0.7c0.24,0.2,0.39,0.52,0.39,0.86v2.32c0,0.33-0.27,0.6-0.6,0.6
	h-6.04v0.75C14.87,21.31,13.58,22.6,12,22.6z M20.32,16.1C20.32,16.1,20.32,16.11,20.32,16.1L20.32,16.1z"/>
</svg>
