<?xml version="1.0" encoding="utf-8"?>
<!-- Generator: Adobe Illustrator 27.0.1, SVG Export Plug-In . SVG Version: 6.00 Build 0)  -->
<svg version="1.1" id="PICTOS" xmlns="http://www.w3.org/2000/svg" xmlns:xlink="http://www.w3.org/1999/xlink" x="0px" y="0px"
	 viewBox="0 0 24 24" style="enable-background:new 0 0 24 24;" xml:space="preserve">
<style type="text/css">
	.st0{opacity:0;}
	.st1{fill:#FFFFFF;}
	.st2{fill:none;stroke:#EC6500;stroke-width:1.1948;stroke-linecap:round;stroke-linejoin:round;stroke-miterlimit:10;}
</style>
<g class="st0">
	<rect x="0" y="0" class="st1" width="24" height="24"/>
</g>
<path class="st2" d="M13.6,21.34C13.19,21.75,12.63,22,12,22c-1.25,0-2.27-1.02-2.27-2.27v-1.35"/>
<path class="st2" d="M15.14,5.03c-0.43-0.25-0.92-0.47-1.5-0.61l-0.32-0.1v-1C13.32,2.59,12.73,2,12,2s-1.32,0.59-1.32,1.32v1
	l-0.32,0.1C6.38,5.37,6.28,9.49,6.28,9.93c0,0.02,0,0.03,0,0.03c0,1.9-0.8,3.71-2.21,4.98l-0.77,0.7c-0.13,0.1-0.2,0.26-0.2,0.42
	v2.32h17.8v-2.32c0-0.16-0.07-0.31-0.2-0.42l-0.77-0.7c-1.41-1.27-2.21-3.09-2.21-4.98c0,0,0-0.01,0-0.03c0-0.02,0-0.04,0-0.08"/>
<g>
	<circle class="st2" cx="16.97" cy="7.14" r="2.77"/>
</g>
</svg>
