<?xml version="1.0" encoding="utf-8"?>
<!-- Generator: Adobe Illustrator 27.9.0, SVG Export Plug-In . SVG Version: 6.00 Build 0)  -->
<svg version="1.1" id="Artwork" xmlns="http://www.w3.org/2000/svg" xmlns:xlink="http://www.w3.org/1999/xlink" x="0px" y="0px"
	 viewBox="0 0 24.0009441 24.0009441" style="enable-background:new 0 0 24.0009441 24.0009441;" xml:space="preserve">
<style type="text/css">
	.st0{fill:#EA650D;}
	.st1{fill:none;}
</style>
<g>
	<path class="st0" d="M23.963501,0.2998943c-0.0506592-0.1224365-0.1481934-0.2199707-0.2706299-0.2706299
		c-0.0610962-0.0252686-0.1258545-0.0384521-0.190918-0.0384521h-3.4375c-0.2763672,0-0.5,0.2236328-0.5,0.5s0.2236328,0.5,0.5,0.5
		h2.2304688L14.2138672,9.071867c-0.1953125,0.1953125-0.1953125,0.5117188,0,0.7070312
		c0.0976562,0.0976562,0.2255859,0.1464844,0.3535156,0.1464844s0.2558594-0.0488281,0.3535156-0.1464844l8.0810547-8.0810547
		v2.2304688c0,0.2763672,0.2236328,0.5,0.5,0.5s0.5-0.2236328,0.5-0.5v-3.4375
		C24.0019531,0.4257488,23.9887695,0.3609905,23.963501,0.2998943z"/>
	<path class="st0" d="M9.0771484,14.2105389l-8.0810547,8.0810547v-2.2304688c0-0.2763672-0.2236328-0.5-0.5-0.5
		s-0.5,0.2236328-0.5,0.5v3.4375c0,0.0650635,0.0131836,0.1298218,0.0384521,0.190918
		c0.0506592,0.1224365,0.1481934,0.2199707,0.2706299,0.2706299c0.0610962,0.0252686,0.1258545,0.0384521,0.190918,0.0384521h3.4375
		c0.2763672,0,0.5-0.2236328,0.5-0.5s-0.2236328-0.5-0.5-0.5H1.703125l8.0810547-8.0810547
		c0.1953125-0.1953125,0.1953125-0.5117188,0-0.7070312S9.2724609,14.0152264,9.0771484,14.2105389z"/>
</g>
<rect x="-0.0012535" y="0.0022303" class="st1" width="24.0048237" height="23.9754333"/>
</svg>
