<?xml version="1.0" encoding="utf-8"?>
<!-- Generator: Adobe Illustrator 27.9.0, SVG Export Plug-In . SVG Version: 6.00 Build 0)  -->
<svg version="1.1" id="Artwork" xmlns="http://www.w3.org/2000/svg" xmlns:xlink="http://www.w3.org/1999/xlink" x="0px" y="0px"
	 viewBox="0 0 24.0009441 24.0009441" style="enable-background:new 0 0 24.0009441 24.0009441;" xml:space="preserve">
<style type="text/css">
	.st0{fill:#EA650D;}
	.st1{fill:none;}
</style>
<g>
	<path class="st0" d="M20.8837891,6.7417889H12.625c-0.2763672,0-0.5,0.2236328-0.5,0.5s0.2236328,0.5,0.5,0.5h8.2587891
		c0.2763672,0,0.5-0.2236328,0.5-0.5S21.1601562,6.7417889,20.8837891,6.7417889z"/>
	<path class="st0" d="M16.7548828,0.0113201c-3.9873047,0-7.230957,3.2436523-7.230957,7.2304688
		c0,1.8264771,0.6861572,3.4920044,1.807312,4.7661133L0.1499023,23.1314373
		c-0.1958008,0.1943359-0.1967773,0.5117188-0.0019531,0.7070312c0.0976562,0.0986328,0.2260742,0.1474609,0.3544922,0.1474609
		c0.1274414,0,0.2548828-0.0488281,0.3525391-0.1455078l11.18573-11.1278687
		c1.2672729,1.0933838,2.9129028,1.7597046,4.7141724,1.7597046c3.9873047,0,7.2304688-3.2436523,7.2304688-7.2304688
		S20.7421875,0.0113201,16.7548828,0.0113201z M16.7548828,13.4722576c-3.4355469,0-6.230957-2.7949219-6.230957-6.2304688
		s2.7954102-6.2304688,6.230957-6.2304688s6.2304688,2.7949219,6.2304688,6.2304688S20.1904297,13.4722576,16.7548828,13.4722576z"
		/>
</g>
<rect x="-0.0012535" y="0.0022303" class="st1" width="24.0048237" height="23.9754333"/>
</svg>
