<?xml version="1.0" encoding="utf-8"?>
<!-- Generator: Adobe Illustrator 27.9.0, SVG Export Plug-In . SVG Version: 6.00 Build 0)  -->
<svg version="1.1" id="Round_frame" xmlns="http://www.w3.org/2000/svg" xmlns:xlink="http://www.w3.org/1999/xlink" x="0px"
	 y="0px" viewBox="0 0 24.0068359 24.0031738" style="enable-background:new 0 0 24.0068359 24.0031738;" xml:space="preserve">
<style type="text/css">
	.st0{fill:#EA650D;}
	.st1{fill:none;}
</style>
<g>
	<path class="st0" d="M21.0928421,4.1850696c-0.1793766-0.2087817-0.4959793-0.2347569-0.7077026-0.0529304
		c-0.2097607,0.180356-0.2342663,0.4974494-0.0529308,0.7077017c1.7163239,1.9961696,2.6612339,4.5387983,2.6612339,7.1588631
		c0,6.0630026-4.9323483,10.9953508-10.9948606,10.9953508S1.0037209,18.0617065,1.0037209,11.998704
		c0-6.0625138,4.9323473-10.9948606,10.9948606-10.9948606c0.9287357,0,1.8506098,0.1156632,2.7416086,0.3445389
		c0.4156027,0.1063514,0.8547306,0.2538708,1.3438492,0.44991c0.2577915,0.1029207,0.5498886-0.0210742,0.6528111-0.2788658
		c0.1029205-0.2568114-0.0215645-0.5493999-0.2783775-0.6523205c-0.5302849-0.2127026-1.010581-0.3734547-1.4693136-0.4910783
		c-0.9713736-0.2494599-1.9780359-0.3759052-2.9905777-0.3759052C5.3827472,0.0001221,0,5.3828692,0,11.998704
		S5.3827472,23.997776,11.9985819,23.997776c6.6163244,0,11.9985819-5.3832378,11.9985819-11.9990721
		C23.9971638,9.1384907,22.9659958,6.3635559,21.0928421,4.1850696z"/>
	<path class="st0" d="M12.5259266,16.3149967V4.6202769c0-0.2773957-0.2244644-0.5018606-0.5018597-0.5018606
		c-0.2773962,0-0.5018606,0.2244649-0.5018606,0.5018606v11.6947193c0,0.2773972,0.2244644,0.5018616,0.5018606,0.5018616
		C12.3014622,16.8168583,12.5259266,16.5923939,12.5259266,16.3149967z"/>
	<path class="st0" d="M11.244504,18.5037136c0,0.4197693,0.340312,0.7600822,0.7601423,0.7600822
		c0.4197693,0,0.7600813-0.340313,0.7600813-0.7600822s-0.340312-0.7600803-0.7600813-0.7600803
		C11.584816,17.7436333,11.244504,18.0839443,11.244504,18.5037136z"/>
</g>
<rect x="-0.0012535" y="0.0022303" class="st1" width="24.0048237" height="23.9754333"/>
</svg>
