<?xml version="1.0" encoding="utf-8"?>
<!-- Generator: Adobe Illustrator 27.7.0, SVG Export Plug-In . SVG Version: 6.00 Build 0)  -->
<svg version="1.1" id="Artwork" xmlns="http://www.w3.org/2000/svg" xmlns:xlink="http://www.w3.org/1999/xlink" x="0px" y="0px"
	 viewBox="0 0 24 24" style="enable-background:new 0 0 24 24;" xml:space="preserve">
<style type="text/css">
	.st0{fill:#EA650D;}
</style>
<g>
	<path class="st0" d="M23.9111328,21.5236206L22.78125,19.8615112c0.0234375-0.6503906,0.0927734-3.015625-0.0849609-4.5205078
		c-0.2099609-1.7841797-2.3964844-3.1459961-3.7021484-3.9589844l-0.2939453-0.1845093V7.5997925
		c0-1.1967773-0.859375-2.0996094-2-2.0996094h-4.9003906c-0.2763672,0-0.5,0.2236328-0.5,0.5s0.2236328,0.5,0.5,0.5h4.9003906
		c0.6904297,0,1,0.5522461,1,1.0996094v6.8776245c-0.296814-0.2472534-0.5643311-0.4729614-0.7637939-0.6464233
		c-0.7075806-0.9051514-1.6446533-1.4246216-2.836792-1.5310059h-0.3994141c-2.168457,0-4,1.7402344-4,3.7998047
		c0,0.2763672,0.2236328,0.5,0.5,0.5s0.5-0.2236328,0.5-0.5c0-1.5175781,1.3740234-2.7998047,3-2.7998047l0.3544922-0.0019531
		c0.4161377,0.0379028,0.7792358,0.1467896,1.1091309,0.3147583c-0.1609497,0.0811768-0.3065796,0.1865234-0.4274902,0.3112183
		c-0.4726562,0.4863281-0.6630859,1.3242188-0.0078125,2.1113281c0.7578125,0.8417969,2.2998047,2.609375,2.7607422,3.1396484
		c-0.0244141,0.4736328-0.0693359,1.5830078,0.0175781,2.1074219c0.1298828,0.7851562,0.8515625,1.7841797,1.8808594,2.6083984
		c0.0927734,0.0732422,0.203125,0.109375,0.3125,0.109375c0.1464844,0,0.2919922-0.0644531,0.390625-0.1875
		c0.171875-0.2158203,0.1376953-0.5302734-0.078125-0.703125c-0.9414062-0.7529297-1.4482422-1.5595703-1.5195312-1.9912109
		c-0.0742188-0.4462891-0.0205078-1.6582031,0.0058594-2.0869141c0.0078125-0.1308594-0.0351562-0.2607422-0.1220703-0.359375
		c0,0-2.0039062-2.3046875-2.8925781-3.2910156c-0.3203125-0.3847656-0.1279297-0.6601562-0.0302734-0.7607422
		c0.1875-0.1933594,0.5205078-0.2753906,0.8164062-0.0429688c0.7988281,0.6972656,2.8291016,2.3417969,2.9150391,2.4111328
		c0.2138672,0.1738281,0.5292969,0.1416016,0.703125-0.0742188c0.1738281-0.2148438,0.140625-0.5292969-0.0742188-0.703125
		c-0.0100098-0.0081177-0.5117188-0.4145508-1.1142578-0.9083862v-2.9248047
		c1.109436,0.6962891,2.8598633,1.8602295,3.0039062,3.0802612c0.1923828,1.6396484,0.0732422,4.4990234,0.0712891,4.5273438
		c-0.0039062,0.1074219,0.0263672,0.2138672,0.0869141,0.3027344l1.2226562,1.7978516
		c0.0966797,0.1425781,0.2539062,0.21875,0.4130859,0.21875c0.0976562,0,0.1953125-0.0283203,0.28125-0.0869141
		C24.0078125,22.0626831,24.0664062,21.7521362,23.9111328,21.5236206z"/>
	<path class="st0" d="M12.7998047,20.0997925c0,0.3310547,0.2695312,0.6005859,0.6005859,0.6005859S14,20.4308472,14,20.0997925
		s-0.2685547-0.5996094-0.5996094-0.5996094S12.7998047,19.7687378,12.7998047,20.0997925z"/>
	<path class="st0" d="M16.2998047,21.2003784H10c-0.6269531,0-1.1000977-0.4736328-1.1000977-1.1005859v-1.0996094h6.699707
		c0.2763672,0,0.5-0.2236328,0.5-0.5s-0.2236328-0.5-0.5-0.5h-6.699707v-6c0-0.2763672-0.2236328-0.5-0.5-0.5
		s-0.5,0.2236328-0.5,0.5v8.0996094c0,1.1777344,0.9223633,2.1005859,2.1000977,2.1005859h6.2998047
		c0.2763672,0,0.5-0.2236328,0.5-0.5S16.5761719,21.2003784,16.2998047,21.2003784z"/>
	<path class="st0" d="M15.7998047,9.6998901c0-1.1582031-0.9414062-2.1000977-2.0996094-2.1000977
		s-2.1000977,0.9418945-2.1000977,2.1000977s0.9418945,2.1000977,2.1000977,2.1000977S15.7998047,10.8580933,15.7998047,9.6998901z
		 M12.6000977,9.6998901c0-0.6064453,0.4936523-1.1000977,1.1000977-1.1000977s1.0996094,0.4936523,1.0996094,1.1000977
		s-0.4931641,1.1000977-1.0996094,1.1000977S12.6000977,10.3063354,12.6000977,9.6998901z"/>
	<path class="st0" d="M10.7578125,11.5827026c0.1196289,0,0.2387695-0.0429688,0.3330078-0.1269531
		c0.1611328-0.144043,0.2119141-0.3754883,0.125-0.5737305L9.921875,7.9279175
		c0.4511719-0.8339844,0.6757812-1.6430664,0.6855469-2.4663086C10.640625,2.5431519,8.3925781,0.1437378,5.4892578-0.00177
		C4.0458984-0.0725708,2.6318359,0.4430542,1.5981445,1.4142456c-1.0097656,0.949707-1.574707,2.2348633-1.590332,3.6186523
		c-0.0336914,2.918457,2.2143555,5.3178711,5.137207,5.4638672c0.9536133,0.0073242,1.7880859-0.190918,2.5-0.6142578
		c0.4980469,0.2685547,1.7460938,0.9833984,2.8613281,1.6323242C10.5844727,11.5602417,10.6713867,11.5827026,10.7578125,11.5827026
		z M7.6157227,8.8097534c-0.0014648,0-0.003418,0-0.0048828,0c-0.1020508,0-0.2021484,0.03125-0.2856445,0.0898438
		C6.7338867,9.3117065,6.0229492,9.5202026,5.175293,9.4972534C2.8110352,9.3790894,0.9804688,7.4230347,1.0078125,5.0446167
		C1.0205078,3.9347534,1.4736328,2.90448,2.2832031,2.1427612c0.8364258-0.7866211,1.987793-1.2045898,3.15625-1.1455078
		c2.3642578,0.1181641,4.1953125,2.0742188,4.1679688,4.4526367c-0.0083008,0.71875-0.2290039,1.4370117-0.6748047,2.1967773
		C8.8515625,7.7848511,8.8413086,7.9533081,8.9057617,8.1002808l0.78125,1.7841797
		C7.824707,8.8117065,7.7539062,8.8112183,7.6157227,8.8097534z"/>
</g>
<path class="st0" d="M8.1064911,3.8448944H6.6831517V2.4215546c0-0.3491211-0.2841797-0.6333008-0.6333008-0.6333008H4.4785619
	c-0.3491211,0-0.6328127,0.2841797-0.6328127,0.6333008v1.4233398H2.4224093c-0.3491211,0-0.6333008,0.2836914-0.6333008,0.6328125
	V6.048996c0,0.3491211,0.2841797,0.6333008,0.6333008,0.6333008h1.4233398v1.4233398
	c0,0.3491211,0.2836916,0.6333008,0.6328127,0.6333008h1.5712891c0.3491211,0,0.6333008-0.2841797,0.6333008-0.6333008V6.6822968
	h1.4233394c0.3491211,0,0.6328125-0.2841797,0.6328125-0.6333008V4.4777069
	C8.7393036,4.1285858,8.4556122,3.8448944,8.1064911,3.8448944z M7.7378392,5.6793671L6.2905736,5.6808929
	c-0.4977417,0-0.6135864,0.3347168-0.6135864,0.5942993s0,1.4614868,0,1.4614868H4.846787c0,0,0-1.2019043,0-1.4614868
	S4.7309422,5.6808929,4.2332006,5.6808929L2.7905734,5.6796112v-0.833313h1.4484866
	c0.4977417,0,0.6135864-0.3347168,0.6135864-0.5942993s0-1.4614868,0-1.4614868h0.8302002c0,0,0,1.2019043,0,1.4614868
	S5.7986913,4.8462982,6.296433,4.8462982h1.4414062V5.6793671z"/>
</svg>
