<?xml version="1.0" encoding="utf-8"?>
<!-- Generator: Adobe Illustrator 27.9.0, SVG Export Plug-In . SVG Version: 6.00 Build 0)  -->
<svg version="1.1" id="Layer_1" xmlns="http://www.w3.org/2000/svg" xmlns:xlink="http://www.w3.org/1999/xlink" x="0px" y="0px"
	 viewBox="0 0 23.9086304 23.9086304" style="enable-background:new 0 0 23.9086304 23.9086304;" xml:space="preserve">
<style type="text/css">
	.st0{fill:#EA650D;}
	.st1{fill:none;}
</style>
<g id="Streamline">
</g>
<g>
	<path class="st0" d="M23.6806641,11.5168438c-0.1425781-0.0917969-0.3232422-0.1054688-0.4755859-0.0361328l-5.6621094,2.5387573
		V11.008543c0-0.2763672-0.2236328-0.5-0.5-0.5h-2.3886108c1.1586914-0.8812866,1.9198608-2.262207,1.9198608-3.829102
		c0-2.6591797-2.1582031-4.8222656-4.8110352-4.8222656c-2.329895,0-4.2756958,1.66864-4.7160645,3.8756714
		C6.4158325,5.0361304,5.5140381,4.5900855,4.5029297,4.5900855c-1.9013672,0-3.4482422,1.550293-3.4482422,3.4555669
		c0,0.9642944,0.3981934,1.8354492,1.0360718,2.4628906H0.4921875c-0.2763672,0-0.5,0.2236328-0.5,0.5v10.5004883
		c0,0.2763672,0.2236328,0.5,0.5,0.5h16.5507812c0.2763672,0,0.5-0.2236328,0.5-0.5v-2.7489624l5.6894531,2.1434937
		c0.0576172,0.0214844,0.1171875,0.0322266,0.1767578,0.0322266c0.1005859,0,0.2001953-0.0302734,0.2841797-0.0888672
		c0.1357422-0.09375,0.2158203-0.2470703,0.2158203-0.4111328v-8.4990234
		C23.9091797,11.7673321,23.8232422,11.609129,23.6806641,11.5168438z M11.7631836,2.8571754
		c2.1010742,0,3.8110352,1.7148438,3.8110352,3.8222656s-1.7099609,3.8217778-3.8110352,3.8217778
		c-2.1015625,0-3.8115234-1.7143555-3.8115234-3.8217778S9.6616211,2.8571754,11.7631836,2.8571754z M2.0546875,8.0456524
		c0-1.3540044,1.0981445-2.4555669,2.4482422-2.4555669S6.9516602,6.691648,6.9516602,8.0456524
		s-1.0986328,2.4555664-2.4487305,2.4555664S2.0546875,9.3996563,2.0546875,8.0456524z M7.7176514,9.2687359
		c0.3075562,0.480957,0.7011108,0.8953857,1.1539917,1.2398071H6.9155273
		C7.2677002,10.1622295,7.5387573,9.7388287,7.7176514,9.2687359z M16.5429688,21.0090313H0.9921875V11.508543h15.5507812v3.2827148
		v3.2460938V21.0090313z M22.9091797,19.7131329l-5.3662109-2.0214844v-2.5761719l5.3662109-2.4067383V19.7131329z"/>
	<path class="st0" d="M11.8930664,13.7766094H5.6425781c-0.2763672,0-0.5,0.2236328-0.5,0.5v3.9648438
		c0,0.2763672,0.2236328,0.5,0.5,0.5h6.2504883c0.2763672,0,0.5-0.2236328,0.5-0.5v-3.9648438
		C12.3930664,14.0002422,12.1694336,13.7766094,11.8930664,13.7766094z M11.3930664,17.7414532H6.1425781v-2.9648438h5.2504883
		V17.7414532z"/>
</g>
<g id="Round_frame">
</g>
<rect class="st1" width="23.9085999" height="23.9085999"/>
</svg>
