<?xml version="1.0" encoding="utf-8"?>
<!-- Generator: Adobe Illustrator 28.0.0, SVG Export Plug-In . SVG Version: 6.00 Build 0)  -->
<svg version="1.1" id="Artwork" xmlns="http://www.w3.org/2000/svg" xmlns:xlink="http://www.w3.org/1999/xlink" x="0px" y="0px"
	 viewBox="0 0 23.9086304 23.9086304" style="enable-background:new 0 0 23.9086304 23.9086304;" xml:space="preserve">
<style type="text/css">
	.st0{fill:#EA650D;}
	.st1{fill:none;}
</style>
<g>
	<path class="st0" d="M8.5397224,19.6285286h-5.499023c-0.3320312,0-0.6289062-0.171875-0.7949219-0.4589844
		c-0.1669922-0.2880859-0.1669922-0.6318359-0.0009766-0.9199219l4.3438721-7.524291l0.4539795,1.7039795
		c0.0595703,0.2236328,0.2617188,0.3710938,0.4833984,0.3710938c0.0419922,0,0.0859375-0.0048828,0.1289062-0.0166016
		c0.2666016-0.0712891,0.4257808-0.3457031,0.3544917-0.6123047L7.2476697,9.3126116
		C7.2177625,9.1817522,7.138783,9.0629778,7.0133557,8.9908342c-0.081604-0.0471191-0.170166-0.0600586-0.2579346-0.0584717
		c-0.041687,0.0003662-0.083374-0.0030518-0.1248779,0.0076904L3.7545667,9.7066545
		c-0.2666016,0.0712891-0.4257812,0.3457031-0.3544922,0.6123047c0.0703125,0.265625,0.34375,0.4287109,0.6123047,0.3544922
		l1.7164917-0.4575195l-4.3493042,7.5336905c-0.3476562,0.6015625-0.3466797,1.3193359,0,1.9199219
		s0.9677736,0.9589844,1.6611329,0.9589844h5.499023c0.2763672,0,0.5-0.2236328,0.5-0.5S8.8160896,19.6285286,8.5397224,19.6285286z
		"/>
	<path class="st0" d="M7.7545667,7.7066541c0.2402344,0.1396484,0.545898,0.0576172,0.6826167-0.1826172l2.7607422-4.78125
		c0.1650391-0.2841797,0.4589844-0.4541016,0.7871094-0.4541016c0,0,0,0,0.0009766,0
		c0.328125,0,0.6230469,0.1699219,0.7880859,0.4541016l3.9845581,6.9018555l-1.7130737-0.456543
		C14.775074,9.1138811,14.5045662,9.276967,14.4332771,9.542592c-0.0712891,0.2675781,0.0878906,0.5410156,0.3544922,0.6123047
		l2.8759766,0.765625c0.0429688,0.0117188,0.0869141,0.0166016,0.1289062,0.0166016
		c0.1594238,0,0.2883911-0.0938721,0.3818359-0.2199707c0.0027466-0.003418,0.0046387-0.0072021,0.0072632-0.0107422
		c0.0327148-0.0466309,0.0787964-0.0821533,0.0942993-0.1403809l0.7666016-2.875977
		c0.0712891-0.2666016-0.0878906-0.5410156-0.3544922-0.6123047C18.4176521,7.0045056,18.1471443,7.166615,18.0758553,7.43224
		l-0.454895,1.7072759l-3.9816284-6.8967285c-0.3447266-0.5976564-0.9638672-0.9541017-1.6533203-0.9541017
		c-0.0009766,0-0.0009766,0-0.0009766,0c-0.6904297,0-1.3076172,0.3564453-1.6523438,0.9541017l-2.7607417,4.78125
		C7.4332776,7.2632947,7.5153089,7.5689588,7.7545667,7.7066541z"/>
	<path class="st0" d="M22.5963631,17.7584114l-3.2822266-5.6865225c-0.1376953-0.2402344-0.4443359-0.3222656-0.6826172-0.1826172
		c-0.2392578,0.1376953-0.3212891,0.4433594-0.1826172,0.6826172l3.2822266,5.6865225
		c0.1650391,0.2861328,0.1650391,0.6269531,0,0.9130859s-0.4609375,0.4570312-0.7910156,0.4570312h-9.0117188l1.2509766-1.2509766
		c0.1953125-0.1953125,0.1953125-0.5117188,0-0.7070312s-0.5117188-0.1953125-0.7070312,0l-2.1038818,2.1037598
		c-0.0463867,0.0463867-0.0831909,0.1018066-0.1086426,0.1633301c-0.0505371,0.1220703-0.0505371,0.2595215,0,0.3818359
		c0.0254517,0.0615234,0.0622559,0.1169434,0.1086426,0.1630859l2.1038818,2.1040039
		c0.0976562,0.0976562,0.2255859,0.1464844,0.3535156,0.1464844s0.2558594-0.0488281,0.3535156-0.1464844
		c0.1953125-0.1953125,0.1953125-0.5117188,0-0.7070312l-1.2509766-1.2509766h9.0117188
		c0.6923828,0,1.3115234-0.3574219,1.6572266-0.9570312S22.9430428,18.3570442,22.5963631,17.7584114z"/>
</g>
<rect class="st1" width="23.907402" height="23.9086304"/>
</svg>
