<?xml version="1.0" encoding="utf-8"?>
<!-- Generator: Adobe Illustrator 28.0.0, SVG Export Plug-In . SVG Version: 6.00 Build 0)  -->
<svg version="1.1" id="Artwork" xmlns="http://www.w3.org/2000/svg" xmlns:xlink="http://www.w3.org/1999/xlink" x="0px" y="0px"
	 viewBox="0 0 23.9086304 23.9086304" style="enable-background:new 0 0 23.9086304 23.9086304;" xml:space="preserve">
<style type="text/css">
	.st0{fill:#EA650D;}
	.st1{fill:none;}
</style>
<g>
	<path class="st0" d="M23.4160061,16.4908333l-4.6787109-0.0361328v-4.9814444c0-0.1787109-0.0957031-0.3447266-0.2509766-0.4335938
		c-0.1552734-0.0878906-0.3476562-0.0898438-0.5009766,0.0019531l-6.749999,3.9433594l-0.0898438-3.5244141
		c-0.0048828-0.1806641-0.1064453-0.34375-0.265625-0.4287109s-0.3525391-0.0761719-0.5029297,0.0195312l-6.1386724,3.9150391
		L3.5898347,4.7632947C3.5761628,4.5456433,3.4222322,4.3752332,3.2215486,4.3196912
		c0.0245972-0.4080808,0.1154785-0.7120359,0.2755127-0.8728025C3.6249909,3.318959,3.8173738,3.256459,4.086905,3.256459
		c0.3476562,0,0.4345703,0.1279297,0.6816406,0.5703125C5.1113191,4.4410291,5.6562409,5.3355603,7.524405,5.2984509
		c0.3916016-0.015625,0.4707031,0.0996094,0.6904302,0.4072266c0.2871094,0.4013672,0.7226562,1.0087891,1.9863281,1.0087891
		c1.234375,0,1.6416016-0.6396484,1.9111328-1.0634766c0.203125-0.3193359,0.2480469-0.3564453,0.4316406-0.3564453
		c1.4003906,0,2.3789062-0.9316406,2.3789062-2.2646482c0-1.6621095-0.765625-2.3710938-2.5585938-2.3710938
		c-1.0859375,0-1.4970703,0.6142578-1.7705078,1.0214844c-0.2099609,0.3144531-0.2548828,0.3437501-0.3730469,0.3437501
		c-0.4931641,0-0.5488281-0.1220704-0.6972656-0.4482423c-0.1591797-0.3496094-0.4267578-0.9345703-1.359375-0.9345703
		c-0.6474614,0-0.9843755,0.4345703-1.2070317,0.7216797c-0.21875,0.28125-0.2949219,0.3525391-0.4589844,0.3525391
		c-0.2050781,0-0.3056641-0.0625-0.5332031-0.2148438C5.6220613,1.2701308,5.1542878,0.9556776,4.1464753,0.9556776
		c-1.9786987,0-2.9465332,1.0788575-3.0481567,3.3520508C0.8621736,4.3406873,0.6748567,4.5308728,0.66503,4.77599
		l-0.6679688,17.9980469c-0.0048828,0.1357422,0.0458984,0.2675781,0.1396484,0.3652344
		c0.0947266,0.0976562,0.2246094,0.1533203,0.3603516,0.1533203h22.9150391c0.2763672,0,0.5-0.2236328,0.5-0.5v-5.8017578
		C23.9120998,16.7164192,23.6904202,16.4927864,23.4160061,16.4908333z M4.1464753,1.9556776
		c0.703125,0,0.9736328,0.1816407,1.2597656,0.3740236c0.2558594,0.171875,0.5732422,0.3857422,1.0917969,0.3857422
		c0.6757812,0,1.0205078-0.4453125,1.2490234-0.7392579C7.9540925,1.7086073,8.025382,1.6412245,8.1640539,1.6412245
		c0.2900391,0,0.3115234,0.046875,0.4492188,0.3496094c0.1767578,0.3867189,0.4716797,1.0332032,1.6074219,1.0332032
		c0.6767578,0,0.9814453-0.4550781,1.2041016-0.7871094c0.2333984-0.3476564,0.3876953-0.5781251,0.9394531-0.5781251
		c1.3232422,0,1.5585938,0.3593751,1.5585938,1.3710939c0,0.6113281-0.3623047,1.2646482-1.3789062,1.2646482
		c-0.7539062,0-1.0673828,0.4931641-1.2753906,0.8193359c-0.2304688,0.3613281-0.3818359,0.6005859-1.0673828,0.6005859
		c-0.75,0-0.9277344-0.2480469-1.1728516-0.5908203C8.7685461,4.760365,8.4208899,4.27599,7.4853425,4.2984509
		c-1.2919922,0.0546875-1.5292969-0.394531-1.84375-0.9589841C5.3867097,2.8824356,5.0371003,2.256459,4.086905,2.256459
		c-0.5419922,0-0.9785156,0.1630859-1.2988281,0.4863281c-0.34729,0.348877-0.5257568,0.8654785-0.5617065,1.5517576H2.1002107
		C2.2122102,2.1683242,3.1624665,1.9556776,4.1464753,1.9556776z M22.9120998,22.2925911H1.0156159L1.6464753,5.2945447h0.9755859
		l0.671875,10.5800781c0.0117188,0.1767569,0.1152344,0.33496,0.2724609,0.4150381
		c0.1591797,0.0810547,0.3476562,0.0703125,0.4951172-0.0244141l6.1064458-3.8945303l0.0888672,3.4853516
		c0.0048828,0.1767569,0.1025391,0.3378897,0.2568359,0.4238272c0.1533203,0.0859375,0.34375,0.0849609,0.4951172-0.0048828
		l6.7285147-3.9306631v4.6064444c0,0.2744141,0.2216797,0.4980469,0.4960938,0.5l4.6787109,0.0361328V22.2925911z"/>
	<path class="st0" d="M5.868155,18.009388H3.3496003c-0.2763672,0-0.5,0.2236328-0.5,0.5v1.4443359
		c0,0.2763672,0.2236328,0.5,0.5,0.5H5.868155c0.2763672,0,0.5-0.2236328,0.5-0.5V18.509388
		C6.368155,18.2330208,6.1445222,18.009388,5.868155,18.009388z M5.368155,19.4537239H3.8496003V19.009388H5.368155V19.4537239z"/>
	<path class="st0" d="M10.978507,18.009388H8.4599524c-0.2763672,0-0.5000005,0.2236328-0.5000005,0.5v1.4443359
		c0,0.2763672,0.2236333,0.5,0.5000005,0.5h2.5185547c0.2763672,0,0.5-0.2236328,0.5-0.5V18.509388
		C11.478507,18.2330208,11.2548742,18.009388,10.978507,18.009388z M10.478507,19.4537239H8.9599524V19.009388h1.5185547V19.4537239
		z"/>
	<path class="st0" d="M16.0888577,18.009388h-2.5175772c-0.2763672,0-0.5,0.2236328-0.5,0.5v1.4443359
		c0,0.2763672,0.2236328,0.5,0.5,0.5h2.5175772c0.2763672,0,0.5-0.2236328,0.5-0.5V18.509388
		C16.5888577,18.2330208,16.3652248,18.009388,16.0888577,18.009388z M15.5888586,19.4537239h-1.5175781V19.009388h1.5175781
		V19.4537239z"/>
</g>
<rect x="-0.003261" class="st1" width="23.907402" height="23.9086304"/>
</svg>
