<?xml version="1.0" encoding="utf-8"?>
<!-- Generator: Adobe Illustrator 27.7.0, SVG Export Plug-In . SVG Version: 6.00 Build 0)  -->
<svg version="1.1" xmlns="http://www.w3.org/2000/svg" xmlns:xlink="http://www.w3.org/1999/xlink" x="0px" y="0px"
	 viewBox="0 0 24.0009441 24.0009441" style="enable-background:new 0 0 24.0009441 24.0009441;" xml:space="preserve">
<style type="text/css">
	.st0{fill:#EA650D;}
</style>
<g id="Streamline">
</g>
<g id="Artwork">
	<g>
		<path class="st0" d="M21.3952789,9.3199883H11.207778V6.8268237c0-2.9296875-2.3681641-5.3134766-5.2792969-5.3134766
			S0.6491842,3.8971362,0.6491842,6.8268237c0,0.2763672,0.2236328,0.5,0.5,0.5s0.5-0.2236328,0.5-0.5
			c0-2.3789062,1.9199219-4.3134766,4.2792969-4.3134766s4.2792969,1.9345703,4.2792969,4.3134766v2.4931645H9.4939108
			c-1.0722656,0-1.9453125,0.8730469-1.9453125,1.9453125v9.0439453c0,0.2763672,0.2236328,0.5,0.5,0.5s0.5-0.2236328,0.5-0.5
			v-9.0439453c0-0.5214844,0.4238281-0.9453125,0.9453125-0.9453125h11.9013681
			c0.5214844,0,0.9453125,0.4238281,0.9453125,0.9453125v9.3037109c0,0.5214844-0.4238281,0.9453125-0.9453125,0.9453125H9.7605124
			c-0.2763672,0-0.5,0.2236328-0.5,0.5s0.2236328,0.5,0.5,0.5h11.6347666c1.0722656,0,1.9453125-0.8730469,1.9453125-1.9453125
			v-9.3037109C23.3405914,10.1930351,22.4675446,9.3199883,21.3952789,9.3199883z"/>
		<path class="st0" d="M15.4919577,19.4547539c0.2763672,0,0.5-0.2236328,0.5-0.5v-2.7197266
			c0.8258677-0.2320557,1.4365244-0.9837036,1.4365244-1.8828125c0-1.0820312-0.8808594-1.9628906-1.9638681-1.9628906
			c-1.0820312,0-1.9628906,0.8808594-1.9628906,1.9628906c0,0.9190674,0.6369019,1.6867065,1.4902344,1.8997192v2.7028198
			C14.9919577,19.2311211,15.2155905,19.4547539,15.4919577,19.4547539z"/>
	</g>
</g>
</svg>
