<?xml version="1.0" encoding="utf-8"?>
<!-- Generator: Adobe Illustrator 27.9.0, SVG Export Plug-In . SVG Version: 6.00 Build 0)  -->
<svg version="1.1" id="Round_frame" xmlns="http://www.w3.org/2000/svg" xmlns:xlink="http://www.w3.org/1999/xlink" x="0px"
	 y="0px" viewBox="0 0 24.0068359 24.0031738" style="enable-background:new 0 0 24.0068359 24.0031738;" xml:space="preserve">
<style type="text/css">
	.st0{fill:#EA650D;}
	.st1{fill:none;}
</style>
<path class="st0" d="M23.4401245,7.4066162c0.0014648-0.015625,0.0090942-0.0291138,0.0090942-0.045166V0.4932861
	c0-0.2763672-0.2236328-0.5-0.5-0.5s-0.5,0.2236328-0.5,0.5v5.3341064c-2.3311768-2.7954712-5.8029175-4.425415-9.5620117-4.425415
	c-6.8217773,0-12.3720703,5.4482422-12.3720703,12.1455078c0,4.2783203,2.2475586,8.1591797,6.0126953,10.3808594
	c0.0795898,0.046875,0.1669922,0.0693359,0.253418,0.0693359c0.1708984,0,0.3378906-0.0878906,0.4311523-0.2460938
	c0.1401367-0.2373047,0.0610352-0.5439453-0.1767578-0.6845703c-3.456543-2.0400391-5.5205078-5.5986328-5.5205078-9.5195312
	c0-6.1455078,5.1015625-11.1455078,11.3720703-11.1455078c3.6251221,0,6.9442139,1.659668,9.0812988,4.4594727h-5.8874512
	c-0.2763672,0-0.5,0.2236328-0.5,0.5s0.2236328,0.5,0.5,0.5h6.8681641c0.0200806,0,0.0371094-0.0090942,0.0565186-0.0114136
	c0.0220337-0.0023804,0.0426025-0.0075073,0.0643311-0.0129395c0.0442505-0.0112915,0.0847778-0.026123,0.1233521-0.0482788
	c0.0081177-0.0046387,0.017395-0.0047607,0.0253296-0.0098877c0.0101318-0.0064697,0.0153809-0.0169067,0.0249023-0.0239258
	c0.034668-0.0259399,0.0648804-0.0542603,0.0917358-0.0881958c0.0168457-0.0209351,0.0307617-0.0419922,0.0438232-0.0650024
	c0.0166016-0.0296021,0.0297852-0.0592651,0.0401611-0.0922241C23.430481,7.4755859,23.4364624,7.4421997,23.4401245,7.4066162z"/>
<rect x="-0.0012535" y="0.0022303" class="st1" width="24.0048237" height="23.9754333"/>
</svg>
