<?xml version="1.0" encoding="utf-8"?>
<!-- Generator: Adobe Illustrator 27.9.0, SVG Export Plug-In . SVG Version: 6.00 Build 0)  -->
<svg version="1.1" id="Artwork" xmlns="http://www.w3.org/2000/svg" xmlns:xlink="http://www.w3.org/1999/xlink" x="0px" y="0px"
	 viewBox="0 0 24.0009441 24.0009441" style="enable-background:new 0 0 24.0009441 24.0009441;" xml:space="preserve">
<style type="text/css">
	.st0{fill:#EA650D;}
	.st1{fill:none;}
</style>
<g>
	<path class="st0" d="M20.8837891,6.7417889h-3.6289062V3.1119061c0-0.2763672-0.2236328-0.5-0.5-0.5s-0.5,0.2236328-0.5,0.5
		v3.6298828H12.625c-0.2763672,0-0.5,0.2236328-0.5,0.5s0.2236328,0.5,0.5,0.5h3.6298828v3.6293945
		c0,0.2763672,0.2236328,0.5,0.5,0.5s0.5-0.2236328,0.5-0.5V7.7417889h3.6289062c0.2763672,0,0.5-0.2236328,0.5-0.5
		S21.1601562,6.7417889,20.8837891,6.7417889z"/>
	<path class="st0" d="M16.7548828,0.0113201c-3.9873047,0-7.230957,3.2436523-7.230957,7.2304688
		c0,1.8264771,0.6861572,3.4920044,1.807312,4.7661133L0.1499023,23.1314373
		c-0.1958008,0.1943359-0.1967773,0.5117188-0.0019531,0.7070312c0.0976562,0.0986328,0.2260742,0.1474609,0.3544922,0.1474609
		c0.1274414,0,0.2548828-0.0488281,0.3525391-0.1455078l11.18573-11.1278687
		c1.2672729,1.0933838,2.9129028,1.7597046,4.7141724,1.7597046c3.9873047,0,7.2304688-3.2436523,7.2304688-7.2304688
		S20.7421875,0.0113201,16.7548828,0.0113201z M16.7548828,13.4722576c-3.4355469,0-6.230957-2.7949219-6.230957-6.2304688
		s2.7954102-6.2304688,6.230957-6.2304688s6.2304688,2.7949219,6.2304688,6.2304688S20.1904297,13.4722576,16.7548828,13.4722576z"
		/>
</g>
<g>
	<path d="M1205.6357422,1692.8111572c0.6357422-0.0957031,1.3916016-0.1679688,2.21875-0.1679688
		c1.5,0,2.5673828,0.3476562,3.2744141,1.0078125c0.7197266,0.6601562,1.1396484,1.5957031,1.1396484,2.9023438
		c0,1.3193359-0.4082031,2.3984375-1.1630859,3.1425781c-0.7558594,0.7558594-2.0029297,1.1630859-3.5742188,1.1630859
		c-0.7441406,0-1.3671875-0.0361328-1.8955078-0.0957031V1692.8111572z M1206.6796875,1699.9595947
		c0.2636719,0.0478516,0.6474609,0.0605469,1.0556641,0.0605469c2.2304688,0,3.4414062-1.2480469,3.4414062-3.4306641
		c0.0126953-1.9072266-1.0673828-3.1181641-3.2734375-3.1181641c-0.5400391,0-0.9482422,0.0478516-1.2236328,0.1074219V1699.9595947
		z"/>
	<path d="M1214.2275391,1698.0767822c0.0244141,1.4277344,0.9355469,2.0146484,1.9912109,2.0146484
		c0.7558594,0,1.2109375-0.1318359,1.6074219-0.2998047l0.1796875,0.7558594
		c-0.3720703,0.1679688-1.0078125,0.359375-1.9306641,0.359375c-1.7871094,0-2.8544922-1.1748047-2.8544922-2.9257812
		c0-1.7519531,1.03125-3.1308594,2.7226562-3.1308594c1.8945312,0,2.3984375,1.6679688,2.3984375,2.734375
		c0,0.2167969-0.0244141,0.3847656-0.0361328,0.4921875H1214.2275391z M1217.3222656,1697.3209229
		c0.0117188-0.671875-0.2763672-1.7148438-1.4628906-1.7148438c-1.0673828,0-1.5351562,0.9833984-1.6191406,1.7148438H1217.3222656z
		"/>
	<path d="M1223.4667969,1693.3150635v1.6679688h1.5117188v0.8027344h-1.5117188v3.1308594
		c0,0.71875,0.2041016,1.1269531,0.7919922,1.1269531c0.2753906,0,0.4794922-0.0361328,0.6113281-0.0722656l0.0478516,0.7919922
		c-0.203125,0.0839844-0.5273438,0.1435547-0.9355469,0.1435547c-0.4912109,0-0.8867188-0.15625-1.1386719-0.4433594
		c-0.2998047-0.3125-0.4082031-0.828125-0.4082031-1.5117188v-3.1660156h-0.8994141v-0.8027344h0.8994141v-1.3916016
		L1223.4667969,1693.3150635z"/>
	<path d="M1226.1679688,1692.2720947h1.0546875v3.6220703h0.0244141c0.1679688-0.2998047,0.4316406-0.5634766,0.7558594-0.7431641
		c0.3115234-0.1806641,0.6835938-0.3007812,1.0791016-0.3007812c0.7792969,0,2.0263672,0.4804688,2.0263672,2.4824219v3.4550781
		h-1.0546875v-3.3339844c0-0.9355469-0.3486328-1.7275391-1.34375-1.7275391c-0.6835938,0-1.2236328,0.4794922-1.4150391,1.0556641
		c-0.0595703,0.1435547-0.0722656,0.2988281-0.0722656,0.5039062v3.5019531h-1.0546875V1692.2720947z"/>
	<path d="M1233.4150391,1698.0767822c0.0244141,1.4277344,0.9355469,2.0146484,1.9912109,2.0146484
		c0.7558594,0,1.2109375-0.1318359,1.6074219-0.2998047l0.1796875,0.7558594
		c-0.3720703,0.1679688-1.0078125,0.359375-1.9306641,0.359375c-1.7871094,0-2.8544922-1.1748047-2.8544922-2.9257812
		c0-1.7519531,1.03125-3.1308594,2.7226562-3.1308594c1.8945312,0,2.3984375,1.6679688,2.3984375,2.734375
		c0,0.2167969-0.0244141,0.3847656-0.0361328,0.4921875H1233.4150391z M1236.5097656,1697.3209229
		c0.0117188-0.671875-0.2763672-1.7148438-1.4628906-1.7148438c-1.0673828,0-1.5351562,0.9833984-1.6191406,1.7148438H1236.5097656z
		"/>
	<path d="M1238.8398438,1696.7935791c0-0.6835938-0.0126953-1.2714844-0.0488281-1.8105469h0.9238281l0.0361328,1.1386719h0.0478516
		c0.2636719-0.7792969,0.8994141-1.2714844,1.6074219-1.2714844c0.1201172,0,0.203125,0.0117188,0.2998047,0.0361328v0.9951172
		c-0.1083984-0.0234375-0.2158203-0.0351562-0.3603516-0.0351562c-0.7431641,0-1.2714844,0.5634766-1.4150391,1.3554688
		c-0.0234375,0.1435547-0.0478516,0.3105469-0.0478516,0.4912109v3.0947266h-1.0429688V1696.7935791z"/>
	<path d="M1242.8115234,1696.5533447c0-0.5996094-0.0126953-1.0917969-0.0488281-1.5703125h0.9238281l0.0478516,0.9355469h0.0361328
		c0.3242188-0.5527344,0.8632812-1.0683594,1.8232422-1.0683594c0.7910156,0,1.390625,0.4804688,1.6425781,1.1640625h0.0244141
		c0.1796875-0.3242188,0.4072266-0.5761719,0.6474609-0.7558594c0.3476562-0.2636719,0.7314453-0.4082031,1.2832031-0.4082031
		c0.7675781,0,1.9072266,0.5039062,1.9072266,2.5195312v3.4179688h-1.03125v-3.2871094
		c0-1.1152344-0.4082031-1.7871094-1.2597656-1.7871094c-0.5996094,0-1.0673828,0.4443359-1.2470703,0.9599609
		c-0.0478516,0.1435547-0.0839844,0.3359375-0.0839844,0.5283203v3.5859375h-1.03125v-3.4785156
		c0-0.9238281-0.4082031-1.5957031-1.2119141-1.5957031c-0.6591797,0-1.1386719,0.5283203-1.3066406,1.0566406
		c-0.0605469,0.1552734-0.0839844,0.3349609-0.0839844,0.515625v3.5019531h-1.03125V1696.5533447z"/>
	<path d="M1258.0722656,1697.8365479c0,2.1464844-1.4873047,3.0820312-2.890625,3.0820312
		c-1.5712891,0-2.7822266-1.1503906-2.7822266-2.9863281c0-1.9423828,1.2705078-3.0820312,2.8779297-3.0820312
		C1256.9443359,1694.8502197,1258.0722656,1696.0611572,1258.0722656,1697.8365479z M1253.4667969,1697.8970947
		c0,1.2714844,0.7314453,2.2304688,1.7626953,2.2304688c1.0078125,0,1.7626953-0.9472656,1.7626953-2.2548828
		c0-0.9833984-0.4912109-2.2304688-1.7382812-2.2304688
		C1254.0058594,1695.6422119,1253.4667969,1696.7935791,1253.4667969,1697.8970947z"/>
	<path d="M1259.4082031,1696.5533447c0-0.5996094-0.0126953-1.0917969-0.0488281-1.5703125h0.9238281l0.0478516,0.9355469h0.0361328
		c0.3242188-0.5527344,0.8632812-1.0683594,1.8232422-1.0683594c0.7910156,0,1.390625,0.4804688,1.6425781,1.1640625h0.0244141
		c0.1796875-0.3242188,0.4072266-0.5761719,0.6474609-0.7558594c0.3476562-0.2636719,0.7314453-0.4082031,1.2832031-0.4082031
		c0.7675781,0,1.9072266,0.5039062,1.9072266,2.5195312v3.4179688h-1.03125v-3.2871094
		c0-1.1152344-0.4082031-1.7871094-1.2597656-1.7871094c-0.5996094,0-1.0673828,0.4443359-1.2470703,0.9599609
		c-0.0478516,0.1435547-0.0839844,0.3359375-0.0839844,0.5283203v3.5859375h-1.03125v-3.4785156
		c0-0.9238281-0.4082031-1.5957031-1.2119141-1.5957031c-0.6591797,0-1.1386719,0.5283203-1.3066406,1.0566406
		c-0.0605469,0.1552734-0.0839844,0.3349609-0.0839844,0.515625v3.5019531h-1.03125V1696.5533447z"/>
	<path d="M1270.0029297,1698.0767822c0.0244141,1.4277344,0.9355469,2.0146484,1.9912109,2.0146484
		c0.7558594,0,1.2109375-0.1318359,1.6074219-0.2998047l0.1796875,0.7558594
		c-0.3720703,0.1679688-1.0078125,0.359375-1.9306641,0.359375c-1.7871094,0-2.8544922-1.1748047-2.8544922-2.9257812
		c0-1.7519531,1.03125-3.1308594,2.7226562-3.1308594c1.8945312,0,2.3984375,1.6679688,2.3984375,2.734375
		c0,0.2167969-0.0244141,0.3847656-0.0361328,0.4921875H1270.0029297z M1273.0976562,1697.3209229
		c0.0117188-0.671875-0.2763672-1.7148438-1.4628906-1.7148438c-1.0673828,0-1.5351562,0.9833984-1.6191406,1.7148438H1273.0976562z
		"/>
	<path d="M1276.6982422,1693.3150635v1.6679688h1.5117188v0.8027344h-1.5117188v3.1308594
		c0,0.71875,0.2041016,1.1269531,0.7919922,1.1269531c0.2753906,0,0.4794922-0.0361328,0.6113281-0.0722656l0.0478516,0.7919922
		c-0.203125,0.0839844-0.5273438,0.1435547-0.9355469,0.1435547c-0.4912109,0-0.8867188-0.15625-1.1386719-0.4433594
		c-0.2998047-0.3125-0.4082031-0.828125-0.4082031-1.5117188v-3.1660156h-0.8994141v-0.8027344h0.8994141v-1.3916016
		L1276.6982422,1693.3150635z"/>
	<path d="M1279.9140625,1698.0767822c0.0244141,1.4277344,0.9355469,2.0146484,1.9912109,2.0146484
		c0.7558594,0,1.2109375-0.1318359,1.6074219-0.2998047l0.1796875,0.7558594
		c-0.3720703,0.1679688-1.0078125,0.359375-1.9306641,0.359375c-1.7871094,0-2.8544922-1.1748047-2.8544922-2.9257812
		c0-1.7519531,1.03125-3.1308594,2.7226562-3.1308594c1.8945312,0,2.3984375,1.6679688,2.3984375,2.734375
		c0,0.2167969-0.0244141,0.3847656-0.0361328,0.4921875H1279.9140625z M1283.0087891,1697.3209229
		c0.0117188-0.671875-0.2763672-1.7148438-1.4628906-1.7148438c-1.0673828,0-1.5351562,0.9833984-1.6191406,1.7148438H1283.0087891z
		"/>
	<path d="M1285.3398438,1696.7935791c0-0.6835938-0.0126953-1.2714844-0.0488281-1.8105469h0.9238281l0.0361328,1.1386719h0.0478516
		c0.2636719-0.7792969,0.8994141-1.2714844,1.6074219-1.2714844c0.1201172,0,0.203125,0.0117188,0.2998047,0.0361328v0.9951172
		c-0.1083984-0.0234375-0.2158203-0.0351562-0.3603516-0.0351562c-0.7431641,0-1.2714844,0.5634766-1.4150391,1.3554688
		c-0.0234375,0.1435547-0.0478516,0.3105469-0.0478516,0.4912109v3.0947266h-1.0429688V1696.7935791z"/>
	<path d="M1291.6630859,1699.7076416c0.3115234,0.2041016,0.8632812,0.4199219,1.3916016,0.4199219
		c0.7675781,0,1.1269531-0.3837891,1.1269531-0.8632812c0-0.5039062-0.2998047-0.7792969-1.0791016-1.0673828
		c-1.0439453-0.3720703-1.5351562-0.9482422-1.5351562-1.6435547c0-0.9355469,0.7558594-1.703125,2.0029297-1.703125
		c0.5878906,0,1.1035156,0.1679688,1.4267578,0.359375l-0.2636719,0.7675781
		c-0.2275391-0.1425781-0.6474609-0.3349609-1.1875-0.3349609c-0.6230469,0-0.9707031,0.3603516-0.9707031,0.7919922
		c0,0.4785156,0.3476562,0.6953125,1.1025391,0.9824219c1.0078125,0.3847656,1.5234375,0.8886719,1.5234375,1.7519531
		c0,1.0195312-0.7910156,1.7382812-2.1708984,1.7382812c-0.6357422,0-1.2226562-0.15625-1.6308594-0.3955078
		L1291.6630859,1699.7076416z"/>
	<path d="M1297.8300781,1693.3150635v1.6679688h1.5117188v0.8027344h-1.5117188v3.1308594
		c0,0.71875,0.2041016,1.1269531,0.7919922,1.1269531c0.2753906,0,0.4794922-0.0361328,0.6113281-0.0722656l0.0478516,0.7919922
		c-0.203125,0.0839844-0.5273438,0.1435547-0.9355469,0.1435547c-0.4912109,0-0.8867188-0.15625-1.1386719-0.4433594
		c-0.2998047-0.3125-0.4082031-0.828125-0.4082031-1.5117188v-3.1660156h-0.8994141v-0.8027344h0.8994141v-1.3916016
		L1297.8300781,1693.3150635z"/>
	<path d="M1303.7451172,1700.7877197l-0.0839844-0.7324219H1303.625c-0.3242188,0.4560547-0.9472656,0.8632812-1.7753906,0.8632812
		c-1.1748047,0-1.7744141-0.8271484-1.7744141-1.6660156c0-1.4042969,1.2470703-2.171875,3.4902344-2.1591797v-0.1201172
		c0-0.4794922-0.1318359-1.34375-1.3193359-1.34375c-0.5400391,0-1.1035156,0.1679688-1.5117188,0.4316406l-0.2392578-0.6953125
		c0.4794922-0.3115234,1.1748047-0.515625,1.90625-0.515625c1.7753906,0,2.2070312,1.2109375,2.2070312,2.375v2.1708984
		c0,0.5029297,0.0244141,0.9951172,0.0957031,1.3916016H1303.7451172z M1303.5888672,1697.8248291
		c-1.1513672-0.0234375-2.4580078,0.1796875-2.4580078,1.3066406c0,0.6835938,0.4550781,1.0078125,0.9951172,1.0078125
		c0.7558594,0,1.2353516-0.4794922,1.4033203-0.9707031c0.0361328-0.1083984,0.0595703-0.2285156,0.0595703-0.3359375V1697.8248291z
		"/>
	<path d="M1309.5292969,1700.7877197l-0.0839844-0.7324219h-0.0361328
		c-0.3232422,0.4560547-0.9472656,0.8632812-1.7753906,0.8632812c-1.1748047,0-1.7744141-0.8271484-1.7744141-1.6660156
		c0-1.4042969,1.2470703-2.171875,3.4902344-2.1591797v-0.1201172c0-0.4794922-0.1318359-1.34375-1.3193359-1.34375
		c-0.5400391,0-1.1035156,0.1679688-1.5117188,0.4316406l-0.2392578-0.6953125
		c0.4794922-0.3115234,1.1748047-0.515625,1.90625-0.515625c1.7753906,0,2.2070312,1.2109375,2.2070312,2.375v2.1708984
		c0,0.5029297,0.0244141,0.9951172,0.0957031,1.3916016H1309.5292969z M1309.3730469,1697.8248291
		c-1.1513672-0.0234375-2.4580078,0.1796875-2.4580078,1.3066406c0,0.6835938,0.4550781,1.0078125,0.9951172,1.0078125
		c0.7558594,0,1.2353516-0.4794922,1.4033203-0.9707031c0.0361328-0.1083984,0.0595703-0.2285156,0.0595703-0.3359375V1697.8248291z
		"/>
	<path d="M1313.3212891,1693.3150635v1.6679688h1.5117188v0.8027344h-1.5117188v3.1308594
		c0,0.71875,0.2041016,1.1269531,0.7919922,1.1269531c0.2753906,0,0.4794922-0.0361328,0.6113281-0.0722656l0.0478516,0.7919922
		c-0.203125,0.0839844-0.5273438,0.1435547-0.9355469,0.1435547c-0.4912109,0-0.8867188-0.15625-1.1386719-0.4433594
		c-0.2998047-0.3125-0.4082031-0.828125-0.4082031-1.5117188v-3.1660156h-0.8994141v-0.8027344h0.8994141v-1.3916016
		L1313.3212891,1693.3150635z"/>
	<path d="M1319.8378906,1693.3150635v1.6679688h1.5117188v0.8027344h-1.5117188v3.1308594
		c0,0.71875,0.2041016,1.1269531,0.7919922,1.1269531c0.2753906,0,0.4794922-0.0361328,0.6113281-0.0722656l0.0478516,0.7919922
		c-0.203125,0.0839844-0.5273438,0.1435547-0.9355469,0.1435547c-0.4912109,0-0.8867188-0.15625-1.1386719-0.4433594
		c-0.2998047-0.3125-0.4082031-0.828125-0.4082031-1.5117188v-3.1660156h-0.8994141v-0.8027344h0.8994141v-1.3916016
		L1319.8378906,1693.3150635z"/>
	<path d="M1323.0537109,1698.0767822c0.0244141,1.4277344,0.9355469,2.0146484,1.9912109,2.0146484
		c0.7558594,0,1.2109375-0.1318359,1.6074219-0.2998047l0.1796875,0.7558594
		c-0.3720703,0.1679688-1.0078125,0.359375-1.9306641,0.359375c-1.7871094,0-2.8544922-1.1748047-2.8544922-2.9257812
		c0-1.7519531,1.03125-3.1308594,2.7226562-3.1308594c1.8945312,0,2.3984375,1.6679688,2.3984375,2.734375
		c0,0.2167969-0.0244141,0.3847656-0.0361328,0.4921875H1323.0537109z M1326.1484375,1697.3209229
		c0.0117188-0.671875-0.2763672-1.7148438-1.4628906-1.7148438c-1.0673828,0-1.5351562,0.9833984-1.6191406,1.7148438H1326.1484375z
		"/>
	<path d="M1331.0224609,1696.7935791c0-0.6835938-0.0126953-1.2714844-0.0488281-1.8105469h0.9238281l0.0361328,1.1386719h0.0478516
		c0.2636719-0.7792969,0.8994141-1.2714844,1.6074219-1.2714844c0.1201172,0,0.2041016,0.0117188,0.2998047,0.0361328v0.9951172
		c-0.1083984-0.0234375-0.2158203-0.0351562-0.3603516-0.0351562c-0.7431641,0-1.2705078,0.5634766-1.4150391,1.3554688
		c-0.0234375,0.1435547-0.0478516,0.3105469-0.0478516,0.4912109v3.0947266h-1.0429688V1696.7935791z"/>
	<path d="M1335.4140625,1698.0767822c0.0244141,1.4277344,0.9355469,2.0146484,1.9912109,2.0146484
		c0.7558594,0,1.2109375-0.1318359,1.6074219-0.2998047l0.1796875,0.7558594
		c-0.3720703,0.1679688-1.0078125,0.359375-1.9306641,0.359375c-1.7871094,0-2.8544922-1.1748047-2.8544922-2.9257812
		c0-1.7519531,1.03125-3.1308594,2.7226562-3.1308594c1.8945312,0,2.3984375,1.6679688,2.3984375,2.734375
		c0,0.2167969-0.0244141,0.3847656-0.0361328,0.4921875H1335.4140625z M1338.5087891,1697.3209229
		c0.0117188-0.671875-0.2763672-1.7148438-1.4628906-1.7148438c-1.0673828,0-1.5351562,0.9833984-1.6191406,1.7148438H1338.5087891z
		"/>
	<path d="M1344.9765625,1700.5709229c-0.2763672,0.1445312-0.8876953,0.3359375-1.6679688,0.3359375
		c-1.7509766,0-2.8896484-1.1875-2.8896484-2.9619141c0-1.7871094,1.2226562-3.0830078,3.1181641-3.0830078
		c0.6230469,0,1.1748047,0.15625,1.4628906,0.3007812l-0.2402344,0.8144531
		c-0.2509766-0.1425781-0.6474609-0.2753906-1.2226562-0.2753906c-1.3310547,0-2.0507812,0.984375-2.0507812,2.1953125
		c0,1.3427734,0.8632812,2.1699219,2.0146484,2.1699219c0.5996094,0,0.9951172-0.1552734,1.2949219-0.2871094
		L1344.9765625,1700.5709229z"/>
	<path d="M1346.2148438,1692.2720947h1.0546875v3.6220703h0.0244141c0.1679688-0.2998047,0.4316406-0.5634766,0.7558594-0.7431641
		c0.3115234-0.1806641,0.6835938-0.3007812,1.0791016-0.3007812c0.7792969,0,2.0263672,0.4804688,2.0263672,2.4824219v3.4550781
		h-1.0546875v-3.3339844c0-0.9355469-0.3486328-1.7275391-1.34375-1.7275391c-0.6835938,0-1.2236328,0.4794922-1.4150391,1.0556641
		c-0.0595703,0.1435547-0.0722656,0.2988281-0.0722656,0.5039062v3.5019531h-1.0546875V1692.2720947z"/>
	<path d="M1354.0966797,1693.3150635v1.6679688h1.5117188v0.8027344h-1.5117188v3.1308594
		c0,0.71875,0.2041016,1.1269531,0.7919922,1.1269531c0.2753906,0,0.4794922-0.0361328,0.6113281-0.0722656l0.0478516,0.7919922
		c-0.203125,0.0839844-0.5273438,0.1435547-0.9355469,0.1435547c-0.4912109,0-0.8867188-0.15625-1.1386719-0.4433594
		c-0.2998047-0.3125-0.4082031-0.828125-0.4082031-1.5117188v-3.1660156h-0.8994141v-0.8027344h0.8994141v-1.3916016
		L1354.0966797,1693.3150635z"/>
	<path d="M1361.9794922,1697.8365479c0,2.1464844-1.4873047,3.0820312-2.890625,3.0820312
		c-1.5712891,0-2.7822266-1.1503906-2.7822266-2.9863281c0-1.9423828,1.2714844-3.0820312,2.8779297-3.0820312
		C1360.8515625,1694.8502197,1361.9794922,1696.0611572,1361.9794922,1697.8365479z M1357.3740234,1697.8970947
		c0,1.2714844,0.7314453,2.2304688,1.7626953,2.2304688c1.0078125,0,1.7626953-0.9472656,1.7626953-2.2548828
		c0-0.9833984-0.4912109-2.2304688-1.7382812-2.2304688
		C1357.9130859,1695.6422119,1357.3740234,1696.7935791,1357.3740234,1697.8970947z"/>
	<path d="M1363.3144531,1696.8775635c0-0.7441406-0.0244141-1.34375-0.0488281-1.8945312h0.9482422l0.0478516,0.9941406h0.0234375
		c0.4316406-0.7070312,1.1152344-1.1269531,2.0634766-1.1269531c1.4033203,0,2.4580078,1.1875,2.4580078,2.9511719
		c0,2.0859375-1.2705078,3.1171875-2.6386719,3.1171875c-0.7675781,0-1.4384766-0.3359375-1.7861328-0.9111328h-0.0244141v3.1542969
		h-1.0429688V1696.8775635z M1364.3574219,1698.4244385c0,0.15625,0.0244141,0.2998047,0.0478516,0.4316406
		c0.1923828,0.7324219,0.828125,1.2353516,1.5830078,1.2353516c1.1152344,0,1.7636719-0.9111328,1.7636719-2.2431641
		c0-1.1621094-0.6123047-2.1582031-1.7275391-2.1582031c-0.7197266,0-1.3916016,0.515625-1.5947266,1.3066406
		c-0.0361328,0.1328125-0.0722656,0.2890625-0.0722656,0.4326172V1698.4244385z"/>
</g>
<g>
	<path d="M1205.6357422,1692.8111572c0.6357422-0.0957031,1.3916016-0.1679688,2.21875-0.1679688
		c1.5,0,2.5673828,0.3476562,3.2744141,1.0078125c0.7197266,0.6601562,1.1396484,1.5957031,1.1396484,2.9023438
		c0,1.3193359-0.4082031,2.3984375-1.1630859,3.1425781c-0.7558594,0.7558594-2.0029297,1.1630859-3.5742188,1.1630859
		c-0.7441406,0-1.3671875-0.0361328-1.8955078-0.0957031V1692.8111572z M1206.6796875,1699.9595947
		c0.2636719,0.0478516,0.6474609,0.0605469,1.0556641,0.0605469c2.2304688,0,3.4414062-1.2480469,3.4414062-3.4306641
		c0.0126953-1.9072266-1.0673828-3.1181641-3.2734375-3.1181641c-0.5400391,0-0.9482422,0.0478516-1.2236328,0.1074219V1699.9595947
		z"/>
	<path d="M1214.2275391,1698.0767822c0.0244141,1.4277344,0.9355469,2.0146484,1.9912109,2.0146484
		c0.7558594,0,1.2109375-0.1318359,1.6074219-0.2998047l0.1796875,0.7558594
		c-0.3720703,0.1679688-1.0078125,0.359375-1.9306641,0.359375c-1.7871094,0-2.8544922-1.1748047-2.8544922-2.9257812
		c0-1.7519531,1.03125-3.1308594,2.7226562-3.1308594c1.8945312,0,2.3984375,1.6679688,2.3984375,2.734375
		c0,0.2167969-0.0244141,0.3847656-0.0361328,0.4921875H1214.2275391z M1217.3222656,1697.3209229
		c0.0117188-0.671875-0.2763672-1.7148438-1.4628906-1.7148438c-1.0673828,0-1.5351562,0.9833984-1.6191406,1.7148438H1217.3222656z
		"/>
	<path d="M1223.4667969,1693.3150635v1.6679688h1.5117188v0.8027344h-1.5117188v3.1308594
		c0,0.71875,0.2041016,1.1269531,0.7919922,1.1269531c0.2753906,0,0.4794922-0.0361328,0.6113281-0.0722656l0.0478516,0.7919922
		c-0.203125,0.0839844-0.5273438,0.1435547-0.9355469,0.1435547c-0.4912109,0-0.8867188-0.15625-1.1386719-0.4433594
		c-0.2998047-0.3125-0.4082031-0.828125-0.4082031-1.5117188v-3.1660156h-0.8994141v-0.8027344h0.8994141v-1.3916016
		L1223.4667969,1693.3150635z"/>
	<path d="M1226.1679688,1692.2720947h1.0546875v3.6220703h0.0244141c0.1679688-0.2998047,0.4316406-0.5634766,0.7558594-0.7431641
		c0.3115234-0.1806641,0.6835938-0.3007812,1.0791016-0.3007812c0.7792969,0,2.0263672,0.4804688,2.0263672,2.4824219v3.4550781
		h-1.0546875v-3.3339844c0-0.9355469-0.3486328-1.7275391-1.34375-1.7275391c-0.6835938,0-1.2236328,0.4794922-1.4150391,1.0556641
		c-0.0595703,0.1435547-0.0722656,0.2988281-0.0722656,0.5039062v3.5019531h-1.0546875V1692.2720947z"/>
	<path d="M1233.4150391,1698.0767822c0.0244141,1.4277344,0.9355469,2.0146484,1.9912109,2.0146484
		c0.7558594,0,1.2109375-0.1318359,1.6074219-0.2998047l0.1796875,0.7558594
		c-0.3720703,0.1679688-1.0078125,0.359375-1.9306641,0.359375c-1.7871094,0-2.8544922-1.1748047-2.8544922-2.9257812
		c0-1.7519531,1.03125-3.1308594,2.7226562-3.1308594c1.8945312,0,2.3984375,1.6679688,2.3984375,2.734375
		c0,0.2167969-0.0244141,0.3847656-0.0361328,0.4921875H1233.4150391z M1236.5097656,1697.3209229
		c0.0117188-0.671875-0.2763672-1.7148438-1.4628906-1.7148438c-1.0673828,0-1.5351562,0.9833984-1.6191406,1.7148438H1236.5097656z
		"/>
	<path d="M1238.8398438,1696.7935791c0-0.6835938-0.0126953-1.2714844-0.0488281-1.8105469h0.9238281l0.0361328,1.1386719h0.0478516
		c0.2636719-0.7792969,0.8994141-1.2714844,1.6074219-1.2714844c0.1201172,0,0.203125,0.0117188,0.2998047,0.0361328v0.9951172
		c-0.1083984-0.0234375-0.2158203-0.0351562-0.3603516-0.0351562c-0.7431641,0-1.2714844,0.5634766-1.4150391,1.3554688
		c-0.0234375,0.1435547-0.0478516,0.3105469-0.0478516,0.4912109v3.0947266h-1.0429688V1696.7935791z"/>
	<path d="M1242.8115234,1696.5533447c0-0.5996094-0.0126953-1.0917969-0.0488281-1.5703125h0.9238281l0.0478516,0.9355469h0.0361328
		c0.3242188-0.5527344,0.8632812-1.0683594,1.8232422-1.0683594c0.7910156,0,1.390625,0.4804688,1.6425781,1.1640625h0.0244141
		c0.1796875-0.3242188,0.4072266-0.5761719,0.6474609-0.7558594c0.3476562-0.2636719,0.7314453-0.4082031,1.2832031-0.4082031
		c0.7675781,0,1.9072266,0.5039062,1.9072266,2.5195312v3.4179688h-1.03125v-3.2871094
		c0-1.1152344-0.4082031-1.7871094-1.2597656-1.7871094c-0.5996094,0-1.0673828,0.4443359-1.2470703,0.9599609
		c-0.0478516,0.1435547-0.0839844,0.3359375-0.0839844,0.5283203v3.5859375h-1.03125v-3.4785156
		c0-0.9238281-0.4082031-1.5957031-1.2119141-1.5957031c-0.6591797,0-1.1386719,0.5283203-1.3066406,1.0566406
		c-0.0605469,0.1552734-0.0839844,0.3349609-0.0839844,0.515625v3.5019531h-1.03125V1696.5533447z"/>
	<path d="M1258.0722656,1697.8365479c0,2.1464844-1.4873047,3.0820312-2.890625,3.0820312
		c-1.5712891,0-2.7822266-1.1503906-2.7822266-2.9863281c0-1.9423828,1.2705078-3.0820312,2.8779297-3.0820312
		C1256.9443359,1694.8502197,1258.0722656,1696.0611572,1258.0722656,1697.8365479z M1253.4667969,1697.8970947
		c0,1.2714844,0.7314453,2.2304688,1.7626953,2.2304688c1.0078125,0,1.7626953-0.9472656,1.7626953-2.2548828
		c0-0.9833984-0.4912109-2.2304688-1.7382812-2.2304688
		C1254.0058594,1695.6422119,1253.4667969,1696.7935791,1253.4667969,1697.8970947z"/>
	<path d="M1259.4082031,1696.5533447c0-0.5996094-0.0126953-1.0917969-0.0488281-1.5703125h0.9238281l0.0478516,0.9355469h0.0361328
		c0.3242188-0.5527344,0.8632812-1.0683594,1.8232422-1.0683594c0.7910156,0,1.390625,0.4804688,1.6425781,1.1640625h0.0244141
		c0.1796875-0.3242188,0.4072266-0.5761719,0.6474609-0.7558594c0.3476562-0.2636719,0.7314453-0.4082031,1.2832031-0.4082031
		c0.7675781,0,1.9072266,0.5039062,1.9072266,2.5195312v3.4179688h-1.03125v-3.2871094
		c0-1.1152344-0.4082031-1.7871094-1.2597656-1.7871094c-0.5996094,0-1.0673828,0.4443359-1.2470703,0.9599609
		c-0.0478516,0.1435547-0.0839844,0.3359375-0.0839844,0.5283203v3.5859375h-1.03125v-3.4785156
		c0-0.9238281-0.4082031-1.5957031-1.2119141-1.5957031c-0.6591797,0-1.1386719,0.5283203-1.3066406,1.0566406
		c-0.0605469,0.1552734-0.0839844,0.3349609-0.0839844,0.515625v3.5019531h-1.03125V1696.5533447z"/>
	<path d="M1270.0029297,1698.0767822c0.0244141,1.4277344,0.9355469,2.0146484,1.9912109,2.0146484
		c0.7558594,0,1.2109375-0.1318359,1.6074219-0.2998047l0.1796875,0.7558594
		c-0.3720703,0.1679688-1.0078125,0.359375-1.9306641,0.359375c-1.7871094,0-2.8544922-1.1748047-2.8544922-2.9257812
		c0-1.7519531,1.03125-3.1308594,2.7226562-3.1308594c1.8945312,0,2.3984375,1.6679688,2.3984375,2.734375
		c0,0.2167969-0.0244141,0.3847656-0.0361328,0.4921875H1270.0029297z M1273.0976562,1697.3209229
		c0.0117188-0.671875-0.2763672-1.7148438-1.4628906-1.7148438c-1.0673828,0-1.5351562,0.9833984-1.6191406,1.7148438H1273.0976562z
		"/>
	<path d="M1276.6982422,1693.3150635v1.6679688h1.5117188v0.8027344h-1.5117188v3.1308594
		c0,0.71875,0.2041016,1.1269531,0.7919922,1.1269531c0.2753906,0,0.4794922-0.0361328,0.6113281-0.0722656l0.0478516,0.7919922
		c-0.203125,0.0839844-0.5273438,0.1435547-0.9355469,0.1435547c-0.4912109,0-0.8867188-0.15625-1.1386719-0.4433594
		c-0.2998047-0.3125-0.4082031-0.828125-0.4082031-1.5117188v-3.1660156h-0.8994141v-0.8027344h0.8994141v-1.3916016
		L1276.6982422,1693.3150635z"/>
	<path d="M1279.9140625,1698.0767822c0.0244141,1.4277344,0.9355469,2.0146484,1.9912109,2.0146484
		c0.7558594,0,1.2109375-0.1318359,1.6074219-0.2998047l0.1796875,0.7558594
		c-0.3720703,0.1679688-1.0078125,0.359375-1.9306641,0.359375c-1.7871094,0-2.8544922-1.1748047-2.8544922-2.9257812
		c0-1.7519531,1.03125-3.1308594,2.7226562-3.1308594c1.8945312,0,2.3984375,1.6679688,2.3984375,2.734375
		c0,0.2167969-0.0244141,0.3847656-0.0361328,0.4921875H1279.9140625z M1283.0087891,1697.3209229
		c0.0117188-0.671875-0.2763672-1.7148438-1.4628906-1.7148438c-1.0673828,0-1.5351562,0.9833984-1.6191406,1.7148438H1283.0087891z
		"/>
	<path d="M1285.3398438,1696.7935791c0-0.6835938-0.0126953-1.2714844-0.0488281-1.8105469h0.9238281l0.0361328,1.1386719h0.0478516
		c0.2636719-0.7792969,0.8994141-1.2714844,1.6074219-1.2714844c0.1201172,0,0.203125,0.0117188,0.2998047,0.0361328v0.9951172
		c-0.1083984-0.0234375-0.2158203-0.0351562-0.3603516-0.0351562c-0.7431641,0-1.2714844,0.5634766-1.4150391,1.3554688
		c-0.0234375,0.1435547-0.0478516,0.3105469-0.0478516,0.4912109v3.0947266h-1.0429688V1696.7935791z"/>
	<path d="M1291.6630859,1699.7076416c0.3115234,0.2041016,0.8632812,0.4199219,1.3916016,0.4199219
		c0.7675781,0,1.1269531-0.3837891,1.1269531-0.8632812c0-0.5039062-0.2998047-0.7792969-1.0791016-1.0673828
		c-1.0439453-0.3720703-1.5351562-0.9482422-1.5351562-1.6435547c0-0.9355469,0.7558594-1.703125,2.0029297-1.703125
		c0.5878906,0,1.1035156,0.1679688,1.4267578,0.359375l-0.2636719,0.7675781
		c-0.2275391-0.1425781-0.6474609-0.3349609-1.1875-0.3349609c-0.6230469,0-0.9707031,0.3603516-0.9707031,0.7919922
		c0,0.4785156,0.3476562,0.6953125,1.1025391,0.9824219c1.0078125,0.3847656,1.5234375,0.8886719,1.5234375,1.7519531
		c0,1.0195312-0.7910156,1.7382812-2.1708984,1.7382812c-0.6357422,0-1.2226562-0.15625-1.6308594-0.3955078
		L1291.6630859,1699.7076416z"/>
	<path d="M1297.8300781,1693.3150635v1.6679688h1.5117188v0.8027344h-1.5117188v3.1308594
		c0,0.71875,0.2041016,1.1269531,0.7919922,1.1269531c0.2753906,0,0.4794922-0.0361328,0.6113281-0.0722656l0.0478516,0.7919922
		c-0.203125,0.0839844-0.5273438,0.1435547-0.9355469,0.1435547c-0.4912109,0-0.8867188-0.15625-1.1386719-0.4433594
		c-0.2998047-0.3125-0.4082031-0.828125-0.4082031-1.5117188v-3.1660156h-0.8994141v-0.8027344h0.8994141v-1.3916016
		L1297.8300781,1693.3150635z"/>
	<path d="M1303.7451172,1700.7877197l-0.0839844-0.7324219H1303.625c-0.3242188,0.4560547-0.9472656,0.8632812-1.7753906,0.8632812
		c-1.1748047,0-1.7744141-0.8271484-1.7744141-1.6660156c0-1.4042969,1.2470703-2.171875,3.4902344-2.1591797v-0.1201172
		c0-0.4794922-0.1318359-1.34375-1.3193359-1.34375c-0.5400391,0-1.1035156,0.1679688-1.5117188,0.4316406l-0.2392578-0.6953125
		c0.4794922-0.3115234,1.1748047-0.515625,1.90625-0.515625c1.7753906,0,2.2070312,1.2109375,2.2070312,2.375v2.1708984
		c0,0.5029297,0.0244141,0.9951172,0.0957031,1.3916016H1303.7451172z M1303.5888672,1697.8248291
		c-1.1513672-0.0234375-2.4580078,0.1796875-2.4580078,1.3066406c0,0.6835938,0.4550781,1.0078125,0.9951172,1.0078125
		c0.7558594,0,1.2353516-0.4794922,1.4033203-0.9707031c0.0361328-0.1083984,0.0595703-0.2285156,0.0595703-0.3359375V1697.8248291z
		"/>
	<path d="M1309.5292969,1700.7877197l-0.0839844-0.7324219h-0.0361328
		c-0.3232422,0.4560547-0.9472656,0.8632812-1.7753906,0.8632812c-1.1748047,0-1.7744141-0.8271484-1.7744141-1.6660156
		c0-1.4042969,1.2470703-2.171875,3.4902344-2.1591797v-0.1201172c0-0.4794922-0.1318359-1.34375-1.3193359-1.34375
		c-0.5400391,0-1.1035156,0.1679688-1.5117188,0.4316406l-0.2392578-0.6953125
		c0.4794922-0.3115234,1.1748047-0.515625,1.90625-0.515625c1.7753906,0,2.2070312,1.2109375,2.2070312,2.375v2.1708984
		c0,0.5029297,0.0244141,0.9951172,0.0957031,1.3916016H1309.5292969z M1309.3730469,1697.8248291
		c-1.1513672-0.0234375-2.4580078,0.1796875-2.4580078,1.3066406c0,0.6835938,0.4550781,1.0078125,0.9951172,1.0078125
		c0.7558594,0,1.2353516-0.4794922,1.4033203-0.9707031c0.0361328-0.1083984,0.0595703-0.2285156,0.0595703-0.3359375V1697.8248291z
		"/>
	<path d="M1313.3212891,1693.3150635v1.6679688h1.5117188v0.8027344h-1.5117188v3.1308594
		c0,0.71875,0.2041016,1.1269531,0.7919922,1.1269531c0.2753906,0,0.4794922-0.0361328,0.6113281-0.0722656l0.0478516,0.7919922
		c-0.203125,0.0839844-0.5273438,0.1435547-0.9355469,0.1435547c-0.4912109,0-0.8867188-0.15625-1.1386719-0.4433594
		c-0.2998047-0.3125-0.4082031-0.828125-0.4082031-1.5117188v-3.1660156h-0.8994141v-0.8027344h0.8994141v-1.3916016
		L1313.3212891,1693.3150635z"/>
	<path d="M1319.8378906,1693.3150635v1.6679688h1.5117188v0.8027344h-1.5117188v3.1308594
		c0,0.71875,0.2041016,1.1269531,0.7919922,1.1269531c0.2753906,0,0.4794922-0.0361328,0.6113281-0.0722656l0.0478516,0.7919922
		c-0.203125,0.0839844-0.5273438,0.1435547-0.9355469,0.1435547c-0.4912109,0-0.8867188-0.15625-1.1386719-0.4433594
		c-0.2998047-0.3125-0.4082031-0.828125-0.4082031-1.5117188v-3.1660156h-0.8994141v-0.8027344h0.8994141v-1.3916016
		L1319.8378906,1693.3150635z"/>
	<path d="M1323.0537109,1698.0767822c0.0244141,1.4277344,0.9355469,2.0146484,1.9912109,2.0146484
		c0.7558594,0,1.2109375-0.1318359,1.6074219-0.2998047l0.1796875,0.7558594
		c-0.3720703,0.1679688-1.0078125,0.359375-1.9306641,0.359375c-1.7871094,0-2.8544922-1.1748047-2.8544922-2.9257812
		c0-1.7519531,1.03125-3.1308594,2.7226562-3.1308594c1.8945312,0,2.3984375,1.6679688,2.3984375,2.734375
		c0,0.2167969-0.0244141,0.3847656-0.0361328,0.4921875H1323.0537109z M1326.1484375,1697.3209229
		c0.0117188-0.671875-0.2763672-1.7148438-1.4628906-1.7148438c-1.0673828,0-1.5351562,0.9833984-1.6191406,1.7148438H1326.1484375z
		"/>
	<path d="M1331.0224609,1696.7935791c0-0.6835938-0.0126953-1.2714844-0.0488281-1.8105469h0.9238281l0.0361328,1.1386719h0.0478516
		c0.2636719-0.7792969,0.8994141-1.2714844,1.6074219-1.2714844c0.1201172,0,0.2041016,0.0117188,0.2998047,0.0361328v0.9951172
		c-0.1083984-0.0234375-0.2158203-0.0351562-0.3603516-0.0351562c-0.7431641,0-1.2705078,0.5634766-1.4150391,1.3554688
		c-0.0234375,0.1435547-0.0478516,0.3105469-0.0478516,0.4912109v3.0947266h-1.0429688V1696.7935791z"/>
	<path d="M1335.4140625,1698.0767822c0.0244141,1.4277344,0.9355469,2.0146484,1.9912109,2.0146484
		c0.7558594,0,1.2109375-0.1318359,1.6074219-0.2998047l0.1796875,0.7558594
		c-0.3720703,0.1679688-1.0078125,0.359375-1.9306641,0.359375c-1.7871094,0-2.8544922-1.1748047-2.8544922-2.9257812
		c0-1.7519531,1.03125-3.1308594,2.7226562-3.1308594c1.8945312,0,2.3984375,1.6679688,2.3984375,2.734375
		c0,0.2167969-0.0244141,0.3847656-0.0361328,0.4921875H1335.4140625z M1338.5087891,1697.3209229
		c0.0117188-0.671875-0.2763672-1.7148438-1.4628906-1.7148438c-1.0673828,0-1.5351562,0.9833984-1.6191406,1.7148438H1338.5087891z
		"/>
	<path d="M1344.9765625,1700.5709229c-0.2763672,0.1445312-0.8876953,0.3359375-1.6679688,0.3359375
		c-1.7509766,0-2.8896484-1.1875-2.8896484-2.9619141c0-1.7871094,1.2226562-3.0830078,3.1181641-3.0830078
		c0.6230469,0,1.1748047,0.15625,1.4628906,0.3007812l-0.2402344,0.8144531
		c-0.2509766-0.1425781-0.6474609-0.2753906-1.2226562-0.2753906c-1.3310547,0-2.0507812,0.984375-2.0507812,2.1953125
		c0,1.3427734,0.8632812,2.1699219,2.0146484,2.1699219c0.5996094,0,0.9951172-0.1552734,1.2949219-0.2871094
		L1344.9765625,1700.5709229z"/>
	<path d="M1346.2148438,1692.2720947h1.0546875v3.6220703h0.0244141c0.1679688-0.2998047,0.4316406-0.5634766,0.7558594-0.7431641
		c0.3115234-0.1806641,0.6835938-0.3007812,1.0791016-0.3007812c0.7792969,0,2.0263672,0.4804688,2.0263672,2.4824219v3.4550781
		h-1.0546875v-3.3339844c0-0.9355469-0.3486328-1.7275391-1.34375-1.7275391c-0.6835938,0-1.2236328,0.4794922-1.4150391,1.0556641
		c-0.0595703,0.1435547-0.0722656,0.2988281-0.0722656,0.5039062v3.5019531h-1.0546875V1692.2720947z"/>
	<path d="M1354.0966797,1693.3150635v1.6679688h1.5117188v0.8027344h-1.5117188v3.1308594
		c0,0.71875,0.2041016,1.1269531,0.7919922,1.1269531c0.2753906,0,0.4794922-0.0361328,0.6113281-0.0722656l0.0478516,0.7919922
		c-0.203125,0.0839844-0.5273438,0.1435547-0.9355469,0.1435547c-0.4912109,0-0.8867188-0.15625-1.1386719-0.4433594
		c-0.2998047-0.3125-0.4082031-0.828125-0.4082031-1.5117188v-3.1660156h-0.8994141v-0.8027344h0.8994141v-1.3916016
		L1354.0966797,1693.3150635z"/>
	<path d="M1361.9794922,1697.8365479c0,2.1464844-1.4873047,3.0820312-2.890625,3.0820312
		c-1.5712891,0-2.7822266-1.1503906-2.7822266-2.9863281c0-1.9423828,1.2714844-3.0820312,2.8779297-3.0820312
		C1360.8515625,1694.8502197,1361.9794922,1696.0611572,1361.9794922,1697.8365479z M1357.3740234,1697.8970947
		c0,1.2714844,0.7314453,2.2304688,1.7626953,2.2304688c1.0078125,0,1.7626953-0.9472656,1.7626953-2.2548828
		c0-0.9833984-0.4912109-2.2304688-1.7382812-2.2304688
		C1357.9130859,1695.6422119,1357.3740234,1696.7935791,1357.3740234,1697.8970947z"/>
	<path d="M1363.3144531,1696.8775635c0-0.7441406-0.0244141-1.34375-0.0488281-1.8945312h0.9482422l0.0478516,0.9941406h0.0234375
		c0.4316406-0.7070312,1.1152344-1.1269531,2.0634766-1.1269531c1.4033203,0,2.4580078,1.1875,2.4580078,2.9511719
		c0,2.0859375-1.2705078,3.1171875-2.6386719,3.1171875c-0.7675781,0-1.4384766-0.3359375-1.7861328-0.9111328h-0.0244141v3.1542969
		h-1.0429688V1696.8775635z M1364.3574219,1698.4244385c0,0.15625,0.0244141,0.2998047,0.0478516,0.4316406
		c0.1923828,0.7324219,0.828125,1.2353516,1.5830078,1.2353516c1.1152344,0,1.7636719-0.9111328,1.7636719-2.2431641
		c0-1.1621094-0.6123047-2.1582031-1.7275391-2.1582031c-0.7197266,0-1.3916016,0.515625-1.5947266,1.3066406
		c-0.0361328,0.1328125-0.0722656,0.2890625-0.0722656,0.4326172V1698.4244385z"/>
</g>
<g>
	<path d="M1205.6357422,1692.8111572c0.6357422-0.0957031,1.3916016-0.1679688,2.21875-0.1679688
		c1.5,0,2.5673828,0.3476562,3.2744141,1.0078125c0.7197266,0.6601562,1.1396484,1.5957031,1.1396484,2.9023438
		c0,1.3193359-0.4082031,2.3984375-1.1630859,3.1425781c-0.7558594,0.7558594-2.0029297,1.1630859-3.5742188,1.1630859
		c-0.7441406,0-1.3671875-0.0361328-1.8955078-0.0957031V1692.8111572z M1206.6796875,1699.9595947
		c0.2636719,0.0478516,0.6474609,0.0605469,1.0556641,0.0605469c2.2304688,0,3.4414062-1.2480469,3.4414062-3.4306641
		c0.0126953-1.9072266-1.0673828-3.1181641-3.2734375-3.1181641c-0.5400391,0-0.9482422,0.0478516-1.2236328,0.1074219V1699.9595947
		z"/>
	<path d="M1214.2275391,1698.0767822c0.0244141,1.4277344,0.9355469,2.0146484,1.9912109,2.0146484
		c0.7558594,0,1.2109375-0.1318359,1.6074219-0.2998047l0.1796875,0.7558594
		c-0.3720703,0.1679688-1.0078125,0.359375-1.9306641,0.359375c-1.7871094,0-2.8544922-1.1748047-2.8544922-2.9257812
		c0-1.7519531,1.03125-3.1308594,2.7226562-3.1308594c1.8945312,0,2.3984375,1.6679688,2.3984375,2.734375
		c0,0.2167969-0.0244141,0.3847656-0.0361328,0.4921875H1214.2275391z M1217.3222656,1697.3209229
		c0.0117188-0.671875-0.2763672-1.7148438-1.4628906-1.7148438c-1.0673828,0-1.5351562,0.9833984-1.6191406,1.7148438H1217.3222656z
		"/>
	<path d="M1223.4667969,1693.3150635v1.6679688h1.5117188v0.8027344h-1.5117188v3.1308594
		c0,0.71875,0.2041016,1.1269531,0.7919922,1.1269531c0.2753906,0,0.4794922-0.0361328,0.6113281-0.0722656l0.0478516,0.7919922
		c-0.203125,0.0839844-0.5273438,0.1435547-0.9355469,0.1435547c-0.4912109,0-0.8867188-0.15625-1.1386719-0.4433594
		c-0.2998047-0.3125-0.4082031-0.828125-0.4082031-1.5117188v-3.1660156h-0.8994141v-0.8027344h0.8994141v-1.3916016
		L1223.4667969,1693.3150635z"/>
	<path d="M1226.1679688,1692.2720947h1.0546875v3.6220703h0.0244141c0.1679688-0.2998047,0.4316406-0.5634766,0.7558594-0.7431641
		c0.3115234-0.1806641,0.6835938-0.3007812,1.0791016-0.3007812c0.7792969,0,2.0263672,0.4804688,2.0263672,2.4824219v3.4550781
		h-1.0546875v-3.3339844c0-0.9355469-0.3486328-1.7275391-1.34375-1.7275391c-0.6835938,0-1.2236328,0.4794922-1.4150391,1.0556641
		c-0.0595703,0.1435547-0.0722656,0.2988281-0.0722656,0.5039062v3.5019531h-1.0546875V1692.2720947z"/>
	<path d="M1233.4150391,1698.0767822c0.0244141,1.4277344,0.9355469,2.0146484,1.9912109,2.0146484
		c0.7558594,0,1.2109375-0.1318359,1.6074219-0.2998047l0.1796875,0.7558594
		c-0.3720703,0.1679688-1.0078125,0.359375-1.9306641,0.359375c-1.7871094,0-2.8544922-1.1748047-2.8544922-2.9257812
		c0-1.7519531,1.03125-3.1308594,2.7226562-3.1308594c1.8945312,0,2.3984375,1.6679688,2.3984375,2.734375
		c0,0.2167969-0.0244141,0.3847656-0.0361328,0.4921875H1233.4150391z M1236.5097656,1697.3209229
		c0.0117188-0.671875-0.2763672-1.7148438-1.4628906-1.7148438c-1.0673828,0-1.5351562,0.9833984-1.6191406,1.7148438H1236.5097656z
		"/>
	<path d="M1238.8398438,1696.7935791c0-0.6835938-0.0126953-1.2714844-0.0488281-1.8105469h0.9238281l0.0361328,1.1386719h0.0478516
		c0.2636719-0.7792969,0.8994141-1.2714844,1.6074219-1.2714844c0.1201172,0,0.203125,0.0117188,0.2998047,0.0361328v0.9951172
		c-0.1083984-0.0234375-0.2158203-0.0351562-0.3603516-0.0351562c-0.7431641,0-1.2714844,0.5634766-1.4150391,1.3554688
		c-0.0234375,0.1435547-0.0478516,0.3105469-0.0478516,0.4912109v3.0947266h-1.0429688V1696.7935791z"/>
	<path d="M1242.8115234,1696.5533447c0-0.5996094-0.0126953-1.0917969-0.0488281-1.5703125h0.9238281l0.0478516,0.9355469h0.0361328
		c0.3242188-0.5527344,0.8632812-1.0683594,1.8232422-1.0683594c0.7910156,0,1.390625,0.4804688,1.6425781,1.1640625h0.0244141
		c0.1796875-0.3242188,0.4072266-0.5761719,0.6474609-0.7558594c0.3476562-0.2636719,0.7314453-0.4082031,1.2832031-0.4082031
		c0.7675781,0,1.9072266,0.5039062,1.9072266,2.5195312v3.4179688h-1.03125v-3.2871094
		c0-1.1152344-0.4082031-1.7871094-1.2597656-1.7871094c-0.5996094,0-1.0673828,0.4443359-1.2470703,0.9599609
		c-0.0478516,0.1435547-0.0839844,0.3359375-0.0839844,0.5283203v3.5859375h-1.03125v-3.4785156
		c0-0.9238281-0.4082031-1.5957031-1.2119141-1.5957031c-0.6591797,0-1.1386719,0.5283203-1.3066406,1.0566406
		c-0.0605469,0.1552734-0.0839844,0.3349609-0.0839844,0.515625v3.5019531h-1.03125V1696.5533447z"/>
	<path d="M1258.0722656,1697.8365479c0,2.1464844-1.4873047,3.0820312-2.890625,3.0820312
		c-1.5712891,0-2.7822266-1.1503906-2.7822266-2.9863281c0-1.9423828,1.2705078-3.0820312,2.8779297-3.0820312
		C1256.9443359,1694.8502197,1258.0722656,1696.0611572,1258.0722656,1697.8365479z M1253.4667969,1697.8970947
		c0,1.2714844,0.7314453,2.2304688,1.7626953,2.2304688c1.0078125,0,1.7626953-0.9472656,1.7626953-2.2548828
		c0-0.9833984-0.4912109-2.2304688-1.7382812-2.2304688
		C1254.0058594,1695.6422119,1253.4667969,1696.7935791,1253.4667969,1697.8970947z"/>
	<path d="M1259.4082031,1696.5533447c0-0.5996094-0.0126953-1.0917969-0.0488281-1.5703125h0.9238281l0.0478516,0.9355469h0.0361328
		c0.3242188-0.5527344,0.8632812-1.0683594,1.8232422-1.0683594c0.7910156,0,1.390625,0.4804688,1.6425781,1.1640625h0.0244141
		c0.1796875-0.3242188,0.4072266-0.5761719,0.6474609-0.7558594c0.3476562-0.2636719,0.7314453-0.4082031,1.2832031-0.4082031
		c0.7675781,0,1.9072266,0.5039062,1.9072266,2.5195312v3.4179688h-1.03125v-3.2871094
		c0-1.1152344-0.4082031-1.7871094-1.2597656-1.7871094c-0.5996094,0-1.0673828,0.4443359-1.2470703,0.9599609
		c-0.0478516,0.1435547-0.0839844,0.3359375-0.0839844,0.5283203v3.5859375h-1.03125v-3.4785156
		c0-0.9238281-0.4082031-1.5957031-1.2119141-1.5957031c-0.6591797,0-1.1386719,0.5283203-1.3066406,1.0566406
		c-0.0605469,0.1552734-0.0839844,0.3349609-0.0839844,0.515625v3.5019531h-1.03125V1696.5533447z"/>
	<path d="M1270.0029297,1698.0767822c0.0244141,1.4277344,0.9355469,2.0146484,1.9912109,2.0146484
		c0.7558594,0,1.2109375-0.1318359,1.6074219-0.2998047l0.1796875,0.7558594
		c-0.3720703,0.1679688-1.0078125,0.359375-1.9306641,0.359375c-1.7871094,0-2.8544922-1.1748047-2.8544922-2.9257812
		c0-1.7519531,1.03125-3.1308594,2.7226562-3.1308594c1.8945312,0,2.3984375,1.6679688,2.3984375,2.734375
		c0,0.2167969-0.0244141,0.3847656-0.0361328,0.4921875H1270.0029297z M1273.0976562,1697.3209229
		c0.0117188-0.671875-0.2763672-1.7148438-1.4628906-1.7148438c-1.0673828,0-1.5351562,0.9833984-1.6191406,1.7148438H1273.0976562z
		"/>
	<path d="M1276.6982422,1693.3150635v1.6679688h1.5117188v0.8027344h-1.5117188v3.1308594
		c0,0.71875,0.2041016,1.1269531,0.7919922,1.1269531c0.2753906,0,0.4794922-0.0361328,0.6113281-0.0722656l0.0478516,0.7919922
		c-0.203125,0.0839844-0.5273438,0.1435547-0.9355469,0.1435547c-0.4912109,0-0.8867188-0.15625-1.1386719-0.4433594
		c-0.2998047-0.3125-0.4082031-0.828125-0.4082031-1.5117188v-3.1660156h-0.8994141v-0.8027344h0.8994141v-1.3916016
		L1276.6982422,1693.3150635z"/>
	<path d="M1279.9140625,1698.0767822c0.0244141,1.4277344,0.9355469,2.0146484,1.9912109,2.0146484
		c0.7558594,0,1.2109375-0.1318359,1.6074219-0.2998047l0.1796875,0.7558594
		c-0.3720703,0.1679688-1.0078125,0.359375-1.9306641,0.359375c-1.7871094,0-2.8544922-1.1748047-2.8544922-2.9257812
		c0-1.7519531,1.03125-3.1308594,2.7226562-3.1308594c1.8945312,0,2.3984375,1.6679688,2.3984375,2.734375
		c0,0.2167969-0.0244141,0.3847656-0.0361328,0.4921875H1279.9140625z M1283.0087891,1697.3209229
		c0.0117188-0.671875-0.2763672-1.7148438-1.4628906-1.7148438c-1.0673828,0-1.5351562,0.9833984-1.6191406,1.7148438H1283.0087891z
		"/>
	<path d="M1285.3398438,1696.7935791c0-0.6835938-0.0126953-1.2714844-0.0488281-1.8105469h0.9238281l0.0361328,1.1386719h0.0478516
		c0.2636719-0.7792969,0.8994141-1.2714844,1.6074219-1.2714844c0.1201172,0,0.203125,0.0117188,0.2998047,0.0361328v0.9951172
		c-0.1083984-0.0234375-0.2158203-0.0351562-0.3603516-0.0351562c-0.7431641,0-1.2714844,0.5634766-1.4150391,1.3554688
		c-0.0234375,0.1435547-0.0478516,0.3105469-0.0478516,0.4912109v3.0947266h-1.0429688V1696.7935791z"/>
	<path d="M1291.6630859,1699.7076416c0.3115234,0.2041016,0.8632812,0.4199219,1.3916016,0.4199219
		c0.7675781,0,1.1269531-0.3837891,1.1269531-0.8632812c0-0.5039062-0.2998047-0.7792969-1.0791016-1.0673828
		c-1.0439453-0.3720703-1.5351562-0.9482422-1.5351562-1.6435547c0-0.9355469,0.7558594-1.703125,2.0029297-1.703125
		c0.5878906,0,1.1035156,0.1679688,1.4267578,0.359375l-0.2636719,0.7675781
		c-0.2275391-0.1425781-0.6474609-0.3349609-1.1875-0.3349609c-0.6230469,0-0.9707031,0.3603516-0.9707031,0.7919922
		c0,0.4785156,0.3476562,0.6953125,1.1025391,0.9824219c1.0078125,0.3847656,1.5234375,0.8886719,1.5234375,1.7519531
		c0,1.0195312-0.7910156,1.7382812-2.1708984,1.7382812c-0.6357422,0-1.2226562-0.15625-1.6308594-0.3955078
		L1291.6630859,1699.7076416z"/>
	<path d="M1297.8300781,1693.3150635v1.6679688h1.5117188v0.8027344h-1.5117188v3.1308594
		c0,0.71875,0.2041016,1.1269531,0.7919922,1.1269531c0.2753906,0,0.4794922-0.0361328,0.6113281-0.0722656l0.0478516,0.7919922
		c-0.203125,0.0839844-0.5273438,0.1435547-0.9355469,0.1435547c-0.4912109,0-0.8867188-0.15625-1.1386719-0.4433594
		c-0.2998047-0.3125-0.4082031-0.828125-0.4082031-1.5117188v-3.1660156h-0.8994141v-0.8027344h0.8994141v-1.3916016
		L1297.8300781,1693.3150635z"/>
	<path d="M1303.7451172,1700.7877197l-0.0839844-0.7324219H1303.625c-0.3242188,0.4560547-0.9472656,0.8632812-1.7753906,0.8632812
		c-1.1748047,0-1.7744141-0.8271484-1.7744141-1.6660156c0-1.4042969,1.2470703-2.171875,3.4902344-2.1591797v-0.1201172
		c0-0.4794922-0.1318359-1.34375-1.3193359-1.34375c-0.5400391,0-1.1035156,0.1679688-1.5117188,0.4316406l-0.2392578-0.6953125
		c0.4794922-0.3115234,1.1748047-0.515625,1.90625-0.515625c1.7753906,0,2.2070312,1.2109375,2.2070312,2.375v2.1708984
		c0,0.5029297,0.0244141,0.9951172,0.0957031,1.3916016H1303.7451172z M1303.5888672,1697.8248291
		c-1.1513672-0.0234375-2.4580078,0.1796875-2.4580078,1.3066406c0,0.6835938,0.4550781,1.0078125,0.9951172,1.0078125
		c0.7558594,0,1.2353516-0.4794922,1.4033203-0.9707031c0.0361328-0.1083984,0.0595703-0.2285156,0.0595703-0.3359375V1697.8248291z
		"/>
	<path d="M1309.5292969,1700.7877197l-0.0839844-0.7324219h-0.0361328
		c-0.3232422,0.4560547-0.9472656,0.8632812-1.7753906,0.8632812c-1.1748047,0-1.7744141-0.8271484-1.7744141-1.6660156
		c0-1.4042969,1.2470703-2.171875,3.4902344-2.1591797v-0.1201172c0-0.4794922-0.1318359-1.34375-1.3193359-1.34375
		c-0.5400391,0-1.1035156,0.1679688-1.5117188,0.4316406l-0.2392578-0.6953125
		c0.4794922-0.3115234,1.1748047-0.515625,1.90625-0.515625c1.7753906,0,2.2070312,1.2109375,2.2070312,2.375v2.1708984
		c0,0.5029297,0.0244141,0.9951172,0.0957031,1.3916016H1309.5292969z M1309.3730469,1697.8248291
		c-1.1513672-0.0234375-2.4580078,0.1796875-2.4580078,1.3066406c0,0.6835938,0.4550781,1.0078125,0.9951172,1.0078125
		c0.7558594,0,1.2353516-0.4794922,1.4033203-0.9707031c0.0361328-0.1083984,0.0595703-0.2285156,0.0595703-0.3359375V1697.8248291z
		"/>
	<path d="M1313.3212891,1693.3150635v1.6679688h1.5117188v0.8027344h-1.5117188v3.1308594
		c0,0.71875,0.2041016,1.1269531,0.7919922,1.1269531c0.2753906,0,0.4794922-0.0361328,0.6113281-0.0722656l0.0478516,0.7919922
		c-0.203125,0.0839844-0.5273438,0.1435547-0.9355469,0.1435547c-0.4912109,0-0.8867188-0.15625-1.1386719-0.4433594
		c-0.2998047-0.3125-0.4082031-0.828125-0.4082031-1.5117188v-3.1660156h-0.8994141v-0.8027344h0.8994141v-1.3916016
		L1313.3212891,1693.3150635z"/>
	<path d="M1319.8378906,1693.3150635v1.6679688h1.5117188v0.8027344h-1.5117188v3.1308594
		c0,0.71875,0.2041016,1.1269531,0.7919922,1.1269531c0.2753906,0,0.4794922-0.0361328,0.6113281-0.0722656l0.0478516,0.7919922
		c-0.203125,0.0839844-0.5273438,0.1435547-0.9355469,0.1435547c-0.4912109,0-0.8867188-0.15625-1.1386719-0.4433594
		c-0.2998047-0.3125-0.4082031-0.828125-0.4082031-1.5117188v-3.1660156h-0.8994141v-0.8027344h0.8994141v-1.3916016
		L1319.8378906,1693.3150635z"/>
	<path d="M1323.0537109,1698.0767822c0.0244141,1.4277344,0.9355469,2.0146484,1.9912109,2.0146484
		c0.7558594,0,1.2109375-0.1318359,1.6074219-0.2998047l0.1796875,0.7558594
		c-0.3720703,0.1679688-1.0078125,0.359375-1.9306641,0.359375c-1.7871094,0-2.8544922-1.1748047-2.8544922-2.9257812
		c0-1.7519531,1.03125-3.1308594,2.7226562-3.1308594c1.8945312,0,2.3984375,1.6679688,2.3984375,2.734375
		c0,0.2167969-0.0244141,0.3847656-0.0361328,0.4921875H1323.0537109z M1326.1484375,1697.3209229
		c0.0117188-0.671875-0.2763672-1.7148438-1.4628906-1.7148438c-1.0673828,0-1.5351562,0.9833984-1.6191406,1.7148438H1326.1484375z
		"/>
	<path d="M1331.0224609,1696.7935791c0-0.6835938-0.0126953-1.2714844-0.0488281-1.8105469h0.9238281l0.0361328,1.1386719h0.0478516
		c0.2636719-0.7792969,0.8994141-1.2714844,1.6074219-1.2714844c0.1201172,0,0.2041016,0.0117188,0.2998047,0.0361328v0.9951172
		c-0.1083984-0.0234375-0.2158203-0.0351562-0.3603516-0.0351562c-0.7431641,0-1.2705078,0.5634766-1.4150391,1.3554688
		c-0.0234375,0.1435547-0.0478516,0.3105469-0.0478516,0.4912109v3.0947266h-1.0429688V1696.7935791z"/>
	<path d="M1335.4140625,1698.0767822c0.0244141,1.4277344,0.9355469,2.0146484,1.9912109,2.0146484
		c0.7558594,0,1.2109375-0.1318359,1.6074219-0.2998047l0.1796875,0.7558594
		c-0.3720703,0.1679688-1.0078125,0.359375-1.9306641,0.359375c-1.7871094,0-2.8544922-1.1748047-2.8544922-2.9257812
		c0-1.7519531,1.03125-3.1308594,2.7226562-3.1308594c1.8945312,0,2.3984375,1.6679688,2.3984375,2.734375
		c0,0.2167969-0.0244141,0.3847656-0.0361328,0.4921875H1335.4140625z M1338.5087891,1697.3209229
		c0.0117188-0.671875-0.2763672-1.7148438-1.4628906-1.7148438c-1.0673828,0-1.5351562,0.9833984-1.6191406,1.7148438H1338.5087891z
		"/>
	<path d="M1344.9765625,1700.5709229c-0.2763672,0.1445312-0.8876953,0.3359375-1.6679688,0.3359375
		c-1.7509766,0-2.8896484-1.1875-2.8896484-2.9619141c0-1.7871094,1.2226562-3.0830078,3.1181641-3.0830078
		c0.6230469,0,1.1748047,0.15625,1.4628906,0.3007812l-0.2402344,0.8144531
		c-0.2509766-0.1425781-0.6474609-0.2753906-1.2226562-0.2753906c-1.3310547,0-2.0507812,0.984375-2.0507812,2.1953125
		c0,1.3427734,0.8632812,2.1699219,2.0146484,2.1699219c0.5996094,0,0.9951172-0.1552734,1.2949219-0.2871094
		L1344.9765625,1700.5709229z"/>
	<path d="M1346.2148438,1692.2720947h1.0546875v3.6220703h0.0244141c0.1679688-0.2998047,0.4316406-0.5634766,0.7558594-0.7431641
		c0.3115234-0.1806641,0.6835938-0.3007812,1.0791016-0.3007812c0.7792969,0,2.0263672,0.4804688,2.0263672,2.4824219v3.4550781
		h-1.0546875v-3.3339844c0-0.9355469-0.3486328-1.7275391-1.34375-1.7275391c-0.6835938,0-1.2236328,0.4794922-1.4150391,1.0556641
		c-0.0595703,0.1435547-0.0722656,0.2988281-0.0722656,0.5039062v3.5019531h-1.0546875V1692.2720947z"/>
	<path d="M1354.0966797,1693.3150635v1.6679688h1.5117188v0.8027344h-1.5117188v3.1308594
		c0,0.71875,0.2041016,1.1269531,0.7919922,1.1269531c0.2753906,0,0.4794922-0.0361328,0.6113281-0.0722656l0.0478516,0.7919922
		c-0.203125,0.0839844-0.5273438,0.1435547-0.9355469,0.1435547c-0.4912109,0-0.8867188-0.15625-1.1386719-0.4433594
		c-0.2998047-0.3125-0.4082031-0.828125-0.4082031-1.5117188v-3.1660156h-0.8994141v-0.8027344h0.8994141v-1.3916016
		L1354.0966797,1693.3150635z"/>
	<path d="M1361.9794922,1697.8365479c0,2.1464844-1.4873047,3.0820312-2.890625,3.0820312
		c-1.5712891,0-2.7822266-1.1503906-2.7822266-2.9863281c0-1.9423828,1.2714844-3.0820312,2.8779297-3.0820312
		C1360.8515625,1694.8502197,1361.9794922,1696.0611572,1361.9794922,1697.8365479z M1357.3740234,1697.8970947
		c0,1.2714844,0.7314453,2.2304688,1.7626953,2.2304688c1.0078125,0,1.7626953-0.9472656,1.7626953-2.2548828
		c0-0.9833984-0.4912109-2.2304688-1.7382812-2.2304688
		C1357.9130859,1695.6422119,1357.3740234,1696.7935791,1357.3740234,1697.8970947z"/>
	<path d="M1363.3144531,1696.8775635c0-0.7441406-0.0244141-1.34375-0.0488281-1.8945312h0.9482422l0.0478516,0.9941406h0.0234375
		c0.4316406-0.7070312,1.1152344-1.1269531,2.0634766-1.1269531c1.4033203,0,2.4580078,1.1875,2.4580078,2.9511719
		c0,2.0859375-1.2705078,3.1171875-2.6386719,3.1171875c-0.7675781,0-1.4384766-0.3359375-1.7861328-0.9111328h-0.0244141v3.1542969
		h-1.0429688V1696.8775635z M1364.3574219,1698.4244385c0,0.15625,0.0244141,0.2998047,0.0478516,0.4316406
		c0.1923828,0.7324219,0.828125,1.2353516,1.5830078,1.2353516c1.1152344,0,1.7636719-0.9111328,1.7636719-2.2431641
		c0-1.1621094-0.6123047-2.1582031-1.7275391-2.1582031c-0.7197266,0-1.3916016,0.515625-1.5947266,1.3066406
		c-0.0361328,0.1328125-0.0722656,0.2890625-0.0722656,0.4326172V1698.4244385z"/>
</g>
<rect x="-0.0012535" y="0.0022303" class="st1" width="24.0048237" height="23.9754333"/>
</svg>
