<?xml version="1.0" encoding="utf-8"?>
<!-- Generator: Adobe Illustrator 27.5.0, SVG Export Plug-In . SVG Version: 6.00 Build 0)  -->
<svg version="1.1" xmlns="http://www.w3.org/2000/svg" xmlns:xlink="http://www.w3.org/1999/xlink" x="0px" y="0px"
	 viewBox="0 0 240 240" style="enable-background:new 0 0 240 240;" xml:space="preserve">
<style type="text/css">
	.st0{fill:#FFFFFF;}
	.st1{fill:#EC6500;stroke:#F47920;stroke-width:5;stroke-miterlimit:10;}
	.st2{fill:#EC6500;}
</style>
<g id="Layer_1">
	<rect class="st0" width="240" height="240"/>
</g>
<g id="Layer_2">
	<g>
		<path class="st1" d="M72.3,208.9"/>
		<path class="st2" d="M95.3,104.9c-2.8,0-5-2.2-5-5V81.1c0-2.8,2.2-5,5-5s5,2.2,5,5v18.8C100.3,102.6,98.1,104.9,95.3,104.9z"/>
		<path class="st2" d="M144.7,104.9c-2.8,0-5-2.2-5-5V81.1c0-2.8,2.2-5,5-5s5,2.2,5,5v18.8C149.7,102.6,147.5,104.9,144.7,104.9z"/>
		<path class="st2" d="M120,220c-55.1,0-100-44.9-100-100S64.9,20,120,20s100,44.9,100,100S175.1,220,120,220z M120,30
			c-49.6,0-90,40.4-90,90s40.4,90,90,90s90-40.4,90-90S169.6,30,120,30z"/>
		<path class="st2" d="M120,166.8c-23.8,0-43.2-16.6-43.2-37c0-2.8,2.2-5,5-5s5,2.2,5,5c0,14.9,14.9,27,33.2,27s33.2-12.1,33.2-27
			c0-2.8,2.2-5,5-5s5,2.2,5,5C163.2,150.3,143.8,166.8,120,166.8z"/>
	</g>
</g>
</svg>
