<?xml version="1.0" encoding="utf-8"?>
<!-- Generator: Adobe Illustrator 27.3.1, SVG Export Plug-In . SVG Version: 6.00 Build 0)  -->
<svg version="1.1" xmlns="http://www.w3.org/2000/svg" xmlns:xlink="http://www.w3.org/1999/xlink" x="0px" y="0px"
	 viewBox="0 0 457.5 457.2" style="enable-background:new 0 0 457.5 457.2;" xml:space="preserve">
<style type="text/css">
	.st0{fill:#EC6500;}
</style>
<g id="Layer_1">
</g>
<g id="Layer_2">
	<path class="st0" d="M143,275.5c-1.1,5.8-2.7,11.5-4.2,17.3c-2.1,7.9-4.2,15.7-6.3,23.5c-1.5,5.3-2.8,10.6-4.5,15.8
		c-1.1,3.3-0.1,6.8,0.7,10.1c0.6,2.4,1.3,4.8,1.6,7.3c0.1,1.1,0.2,2.2,0.2,3.3c-0.1,1.3-0.4,2.5-0.5,3.7c-0.1,1.5,0.2,2.5,1,3.8
		c1.1,1.7,1.4,4.1,1.1,6.1c-0.2,1.7-1.2,2.7-2.5,3.7c-0.4,0.3-0.9,0.6-1.2,1c-0.5,0.5-0.6,0.9-1.3,1.1c-1.5,0.5-3.3,0.5-4.9,0.5
		c-1,0-1.9,0.3-2.8,0.4c-1,0.2-3.3,0.7-3.8-0.6c-0.7-1.7-0.7-3.8-0.7-5.7c0-0.5,0-1,0-1.4c-0.1-1.1-1.1-2.3-1.5-3.3
		c-0.9-2.5-1.3-5.2-1.4-7.8c-0.2-6.1,0.9-12.2,1.8-18.2c0.4-3.2,0.8-6.3,1-9.5c0.2-3.2,0.1-6.5,0.1-9.7c0-4.7,0.2-9.4,0.8-14.1
		c0.6-5.1,1.9-10.1,2.7-15.2c0.5-3.6,0.4-6.7-1.3-9.9c-2.5-4.6-4.6-9.2-5.5-14.4c-0.8-4.7-0.6-9.7,0.7-14.3c0.2-0.7,0.4-1.4,0.7-2
		c-0.6,0.2-1.2,0.4-1.8,0.7c5.1,2,10.2,3.8,15.4,5.4c4.4,1.4,8.8,2.7,13.3,3.7c4,0.9,8.2,1.7,12.3,1.8c2.9,0.1,6.9-0.2,8.6-2.9
		c-0.8-0.2-1.5-0.4-2.3-0.6c-0.5,17.1-3.5,34-5.5,51c-1.1,9-1.6,18.1-3,27c-0.5,3-1.4,5.6-2.7,8.3c-0.6,1.4-0.6,2.9-0.5,4.4
		c0.2,2.8,0.7,5.5,0.9,8.3c0.2,1.6,0.4,3.3,0,4.9c0,0.2-0.1,0.2-0.1,0.2c-0.2,0.2-0.3,0.2-0.5,0.4c-0.7,0.4-1.4,0.8-2.1,1.1
		c-3.8,1.8-7.8,3.4-11.9,4.6c-1.5,0.4-0.8,2.5,0.6,2.1c3.7-1.1,7.3-2.6,10.8-4.1c1.5-0.6,3-1.3,4.3-2.2c0.9-0.7,1.2-1.6,1.3-2.6
		c0.5-4.5-1.1-9.1-1.1-13.7c0-1.4,0.3-2.4,0.9-3.6c0.8-1.6,1.3-3.2,1.7-4.9c0.7-3.1,1-6.3,1.4-9.5c0.5-4.9,1-9.7,1.5-14.6
		c1.4-12.5,3.4-25,4.7-37.5c0.7-6.5,1.3-13,1.5-19.5c0-1.2-1.7-1.4-2.3-0.6c-0.4,0.7-1.2,1.1-2.1,1.4c-1.3,0.4-2.7,0.5-4.1,0.4
		c-3.9,0-7.7-0.8-11.5-1.6c-8-1.8-15.9-4.4-23.6-7.2c-1.9-0.7-3.3-1.2-5-1.9c-0.7-0.3-1.5-0.1-1.8,0.7c-1.1,2.6-1.5,5.6-1.8,8.4
		c-0.5,6.1,0.7,12.2,3.1,17.8c0.8,2,1.8,3.8,2.8,5.7c0.7,1.3,1.3,2.5,1.5,4c0.3,2.2-0.1,4.6-0.5,6.7c-0.5,2.8-1.1,5.5-1.6,8.3
		c-0.8,4.6-1.3,9.2-1.5,13.8c-0.2,6.1,0.1,12.2-0.4,18.2c-0.6,6.4-1.9,12.8-2.4,19.3c-0.5,5.6-0.3,11.4,2.3,16.5
		c0,0,0.5,1.1,0.4,0.4c0,0,0,0.1,0,0.1c0,0.2,0,0.5,0,0.8c0,0.9,0.1,1.8,0.1,2.7c0.1,1.7,0.2,3.9,1.2,5.3c1.1,1.5,3.6,1.3,5.2,1.2
		c0.8-0.1,1.5-0.2,2.3-0.4c0.2,0,0.4-0.1,0.7-0.2c-0.2,0-0.4,0,0,0c1.6,0.1,3.4-0.1,4.9-0.4c0.8-0.2,1.7-0.4,2.4-1
		c0.5-0.4,0.7-0.8,1.1-1.2c1.1-0.9,2.2-1.5,3.1-2.8c1.3-2,1.3-4.5,0.9-6.8c-0.2-1-0.4-1.9-0.8-2.8c-0.3-0.6-0.7-1-1-1.6
		c-0.8-1.6,0.3-3.9,0.4-5.6c0.3-5-1.7-9.8-2.7-14.6c-0.3-1.7-0.6-3.4-0.1-5.1c0.2-0.7,0.4-1.4,0.6-2c0.8-2.6,1.5-5.1,2.2-7.7
		c4.1-14.7,8.3-29.4,11.7-44.3c0.2-1,0.4-2,0.6-2.9C145.6,274.7,143.3,274.1,143,275.5L143,275.5z"/>
	<path class="st0" d="M112.4,373.5c0.2,1.9,0.4,3.7,0.6,5.6c0.1,0.9,0.2,1.9,0.3,2.8c0.1,0.8,0.5,1.2,1.1,1.8
		c0.8,0.8,2.8,3.1,3.9,1.5c0.2-0.3,0.4-1.8,0.1-2.2c0.2,0.3-2.6,0.9-0.9,0.4c-2.1,0.6-0.8,0-0.7,0.4c0,0.2,0.4,0.7,0.5,0.9
		c0.4,0.6,0.8,1.1,1.3,1.5c1.2,1.1,2.5,2,3.9,2.8c2.7,1.5,5.9,2.7,9,2.9c1.7,0.1,3.5-0.4,5.1-0.7c1.4-0.3,2.8-0.5,4-1.1
		c4.5-1.9-0.2-6.2-2-8.2c-3.2-3.5-6.5-6.9-9.9-10.3c-1-1-2.8,0.4-1.7,1.6c1.8,1.8,3.5,3.6,5.2,5.4c2.4,2.5,5,5,7.1,7.7
		c0.3,0.4,0.6,0.7,0.8,1.2c0,0.1,0.1,0.4,0.1,0.3c0,0.2,0,0.1,0,0.1c-1.2,0.9-3.2,1.1-4.8,1.4c-2.4,0.4-4.3,0.7-6.6,0
		c-2.4-0.6-4.7-1.7-6.8-3.1c-0.9-0.6-1.8-1.3-2.5-2.1c-0.6-0.7-0.9-1.8-1.8-2.2c-0.9-0.4-1.8,0.3-1.9,1.2c0,0.3,0,0.5,0,0.8
		c0,0.1,0,0.3,0,0.4c0.1,0.3-0.2,0.5,0.1,0c0.2-0.2,0.5-0.3,0.7-0.5c0,0,0,0,0,0c0.3,0,0.6,0.1,0.9,0.1c-0.9-0.5-1.7-1.5-2.4-2.2
		c0.1,0.3,0.2,0.5,0.4,0.8c-0.3-2.9-0.6-5.8-0.9-8.8C114.7,372.1,112.3,372.1,112.4,373.5L112.4,373.5z"/>
	<path class="st0" d="M129,374.4c2.3,0,4.6,0,6.9,0c0.7,0,2,0.2,2.6-0.3c0.7-0.7,1.2-1.9,1.7-2.8c-0.5,0.2-0.9,0.3-1.4,0.5
		c2.7,0.8,5.4,1.8,8.2,2.5c1.8,0.4,3.9,0.3,5.8,0.3c2.8,0,6.4,0,8.8-1.7c3.5-2.4,0-6.3-2.4-7.9c-2.2-1.5-4.7-2.2-7.2-2.8
		c-1.2-0.3-4-0.6-4.6-1.9c-0.5-1.3-2.9-0.8-2.4,0.6c1.3,3.2,6.2,3.3,9,4.2c2.1,0.7,4.1,1.6,5.5,3.3c0.4,0.5,1,1.2,1.1,1.9
		c0,0.2-0.1,0.5-0.2,0.7c-0.7,0.7-2.1,1-3.1,1.2c-1.5,0.2-2.9,0.3-4.4,0.3c-1.3,0-2.6,0-3.9-0.1c-0.4,0-0.8-0.1-1.2-0.1
		c-0.1,0-0.2,0-0.3,0c-0.3,0,0.4,0.1,0.1,0c-1.4-0.6-2.9-0.9-4.4-1.3c-1.3-0.4-2.6-0.8-4-1.2c-0.5-0.1-1.1,0.1-1.4,0.5
		c-0.5,0.8-1,1.7-1.5,2.5c0.4-0.2,0.7-0.4,1.1-0.5c-2.9,0-5.7,0-8.6,0C127.5,372.2,127.5,374.4,129,374.4L129,374.4z"/>
	<path class="st0" d="M86.6,104.9c-1.8,0.8-1.2,3.9-1.2,5.6c-0.1,2.9-0.4,5.9-1,8.7c-0.8,3.8-2.7,7.2-3.8,10.8
		c-2.4,8-4.2,16.6-4.4,25c-0.1,2.6-0.2,6.2,1.6,8.3c0.8,0.9,1.9,1.3,3.1,1.1c0.8-0.1,1.5-0.6,2.2-0.9c1.2-0.6,2.4-1.1,3.5-1.8
		c1.3-0.7,2.6-1.4,3.2-2.8c0.6-1.4,0.6-3.2,0.8-4.7c0.5-3.8,0.9-7.5,1.2-11.3c0.2-3.8,0.3-7.5,0.5-11.3c0.1-2.7,0.2-5.5,0.8-8.1
		c0.6-2.7,2.5-4.9,3.8-7.4c1.4-2.7,2.6-5.8,1-8.7c-1.4-2.5-4.1-3.5-6.9-3.3c-1.3,0.1-2.7,0.4-4,0.7c-1.5,0.3-0.8,2.4,0.6,2.1
		c2.2-0.5,5.1-1.3,7,0.3c2.6,2.1,1.3,5.5,0,8c-1.2,2.3-3,4.4-3.8,7c-0.6,2.2-0.8,4.5-0.9,6.7c-0.4,6.8-0.4,13.7-1.1,20.5
		c-0.3,2.4-0.6,4.9-0.9,7.4c-0.2,1.1-0.4,1.7-1.2,2.3c-1.7,1.2-3.8,2.1-5.7,2.9c-0.4,0.2-0.6,0.2-0.8,0.2c-0.2,0-0.2,0-0.1,0
		c-0.3-0.2-0.1,0-0.4-0.2c0,0-0.4-0.6-0.4-0.7c-0.2-0.6-0.4-1.2-0.5-1.7c-0.2-1.4-0.3-2.9-0.2-4.3c0.2-7.7,1.8-15.5,3.9-22.9
		c0.5-1.6,1-3.3,1.6-4.8c0.7-1.8,1.6-3.5,2.2-5.5c0.9-3,1.3-6.1,1.5-9.1c0.1-1.2,0.2-2.5,0.2-3.7c0-0.5,0-1,0-1.5c0-0.2,0-0.3,0-0.5
		c0-0.3,0.1-0.4,0-0.3C89.3,106.1,87.9,104.3,86.6,104.9z"/>
	<g>
		<path class="st0" d="M95.6,115.7"/>
	</g>
	<path class="st0" d="M78.2,164.2c3.2,1.8,6.4,3.6,9.6,5.5c1.1,0.7,2.1,1.3,3.4,1.5c1.2,0.3,2.5,0.4,3.8,0.5
		c5.9,0.6,13.3,1.4,15.2,8.1c0.9,3.1,0.6,6.7,0.4,9.9c-0.2,3.8-0.5,7.7-0.8,11.5c-0.7,8.7-1.5,17.4-1.8,26.1
		c-0.1,4.1-0.2,8.2,0.3,12.2c0.3,2.5,0.7,5.5,2.3,7.6c0.9,1.1,3,0.1,2.1-1.1c-1.4-1.7-1.7-4.2-2-6.3c-0.4-3.5-0.4-7.1-0.3-10.7
		c0.2-8.8,1-17.5,1.7-26.3c0.3-4,0.7-8,0.9-12c0.2-3.2,0.4-6.6-0.1-9.9c-0.6-3.5-2.5-6.4-5.5-8.3c-2.7-1.7-6-2.3-9.2-2.7
		c-2.4-0.3-5.8-0.1-7.8-1.2c-3.7-2.1-7.3-4.3-11-6.3C78.2,161.6,76.9,163.5,78.2,164.2L78.2,164.2z"/>
	<path class="st0" d="M89.9,150.8c3,0.3,6.1,0.7,9,1.6c1.8,0.6,3.5,1.4,5.4,1.8c5.7,1.2,11.9,1.4,17.7,0.9c0.3,0,0.4,0,0.5,0
		c0.4,0.1,0.7,0.2,1.1,0.3c0.9,0.3,1.7,0.6,2.5,1c2.4,1,4.7,2.3,7,3.6c2.4,1.4,4.7,2.8,6.9,4.5c1.6,1.2,3.4,2.5,4.5,4.3
		c0.6,0.9,0.5,1.3,0.6,2.3c0.1,1.4,0.2,2.8,0.2,4.3c0.1,4.5,0,8.9,0,13.4c-0.1,10.9-0.4,21.9-0.3,32.8c0,4,0.1,8.1,0.5,12
		c0.2,2.1,0.7,4.1,1.1,6.2c0.7,4.1,1.1,8.2,1.1,12.3c0,1.8,0,3.5-0.2,5.2c-0.1,1.4,2.3,1.4,2.4,0c0.7-7.4-0.5-14.8-1.8-22.1
		c-0.6-3.3-0.6-7.2-0.7-10.6c-0.2-11,0.1-22.1,0.2-33.1c0.1-4.8,0.1-9.6,0.1-14.4c0-2.5,0.2-5.5-0.5-8c-0.5-1.6-1.9-3-3.1-4.1
		c-1.9-1.7-4.1-3.2-6.3-4.6c-4.2-2.7-8.8-5.5-13.6-6.9c-1.8-0.5-3.5-0.2-5.3-0.2c-3.3,0.1-6.6-0.1-9.9-0.4c-2.4-0.3-4.8-0.6-7.1-1.5
		c-2-0.8-4-1.4-6.2-1.8c-1.9-0.3-3.8-0.6-5.8-0.8C88.4,148.5,88.4,150.7,89.9,150.8L89.9,150.8z"/>
	<path class="st0" d="M119.7,265c1-0.2,1.9-0.7,2.8-1.3c2.1-1.4,3.5-3.5,4.3-5.8c0.7-1.9,0.9-4,0.9-6.1c0-1.4-2.4-1.4-2.4,0
		c0,2.9-0.5,5.8-2.2,8.2c-0.1,0.2-0.3,0.4-0.5,0.6c0.1-0.2-0.1,0.1-0.1,0.2c-0.1,0.1-0.2,0.2-0.3,0.3c-0.3,0.3-0.7,0.6-1,0.9
		c0,0-0.1,0.1-0.1,0.1c0,0,0.2-0.1,0.1-0.1c-0.1,0-0.1,0.1-0.2,0.1c-0.2,0.1-0.3,0.2-0.5,0.3c-0.3,0.1-0.5,0.3-0.8,0.4
		c-0.4,0.2,0.2-0.1-0.1,0c-0.1,0-0.2,0.1-0.3,0.1c-0.1,0-0.2,0-0.2,0.1c-0.6,0.1-1,0.8-0.9,1.4C118.4,264.9,119.1,265.2,119.7,265
		L119.7,265z"/>
	<path class="st0" d="M158.4,211.5c-2,10.2-2.8,20.9-2.1,31.2c0.3,4.3,0.9,8.6,2.1,12.7c0.4,1.4,2.8,0.8,2.4-0.6
		c-2-7.2-2.4-14.7-2.2-22.2c0.2-5.8,0.7-11.6,1.6-17.3c0.2-1.1,0.4-2.2,0.6-3.3C161.1,210.6,158.7,210.1,158.4,211.5L158.4,211.5z"
		/>
	<path class="st0" d="M156.9,226.7c0.7,0.5,1.5,0.8,2.3,1.1c2.4,0.7,5,0.8,7.5,0.7c2.2-0.1,4.3-0.3,6.5-0.5c2.9-0.4,5.8-1.1,8.7-1.5
		c2.6-0.4,5,0.5,7.5,0.7c2.3,0.2,4.6,0,6.8-0.8c2.4-0.9,4.4-2.5,6.3-4.2c1.2-1.2,2.6-2.6,3.2-4.2c1.2-3.8-3.6-4.7-6.2-4.9
		c-0.3,0-1.3-0.3-1.6-0.1c-0.6,0.3,0-0.3-0.1,0c0,0,0.2,0.5,0.1,0.5c0,0,0.4-0.8,0.5-1c0.6-1.2,0.3-2.3-0.9-2.8
		c-1.4-0.6-3.2-0.5-4.5,0.4c-1.1,0.8-1.6,2-2.2,3.2c-0.6,1.4-1.3,2.9-2.7,3.5c-1,0.5-2.1,0.4-3.2,0.5c-1.4,0-2.8,0-4.2-0.1
		c-3.7-0.2-7.4-0.7-11-1.3c-1.5-0.3-2.2,1.8-0.6,2.1c2.7,0.5,5.5,0.8,8.2,1.1c2.2,0.2,4.5,0.4,6.7,0.4c1.9,0,3.8,0,5.5-0.9
		c1.3-0.7,2.2-1.8,2.9-3.1c0.6-1.1,0.9-2.3,1.6-3.2c0.2-0.3,0.5-0.6,0.9-0.7c0.2-0.1,1.7,0.1,1.6,0.1c-0.1,0.1-0.4-0.5-0.2-0.5
		c0,0,0,0.1-0.1,0.2c0.1-0.1-0.1,0.2-0.2,0.3c-0.2,0.4-0.5,0.8-0.6,1.2c-0.3,1.5,1.3,2.1,2.5,2.2c1.5,0.2,3.9-0.1,5.1,1
		c1.9,1.7-4.3,6.3-5.3,7c-1.9,1.3-4.2,1.9-6.5,1.9c-2,0-3.9-0.5-5.9-0.8c-3-0.3-5.8,0.5-8.6,1c-2.4,0.4-4.8,0.8-7.2,0.9
		c-2.9,0.2-6,0.3-8.9-0.3c-0.4-0.1-0.8-0.2-1.1-0.3c-0.2-0.1-0.1,0-0.5-0.2c-0.1-0.1-0.3-0.1-0.4-0.2c-0.2-0.1,0.3,0.2,0.1,0.1
		C157.5,224.2,155.7,225.7,156.9,226.7L156.9,226.7z"/>
	<path class="st0" d="M132.9,158.9c0.7-0.6,1.3-1.2,2-1.8c0.8-0.7,1.6-1.5,2.4-2.1c0.7-0.4,0.9,0,1.2,0.5c0.7,0.9,1.3,1.7,2,2.6
		c1.4,1.8,2.8,3.7,4.2,5.5c0.9,1.1,0.5,3,0.5,4.3c0,2.3,0,4.6,0,6.8c0,1.4,2.4,1.4,2.4,0c0-2.1,0-4.3,0-6.4c0-1.8,0.4-4.2-0.7-5.7
		c-1.5-1.9-2.9-3.9-4.4-5.8c-1.3-1.7-2.8-4.6-5.4-4.1c-1.3,0.2-2.3,1.5-3.3,2.3c-0.9,0.8-1.8,1.6-2.7,2.4
		C130,158.4,131.9,159.9,132.9,158.9L132.9,158.9z"/>
	<path class="st0" d="M158.9,225.1c1-3.2,3-6.3,6.4-7.2c1.3-0.3,2.6-0.3,3.7,0c0.7,0.2,1.5-0.3,1.5-1.1c0.5-8,1-16.1,1.6-24.1
		c0.3-3.9,0.8-7.8-0.5-11.6c-1.8-5.3-6.4-8.5-10.6-11.9c-0.8-0.7-1.7-1.5-2.6-2.1c-0.6-0.5,0,0,0,0.1c0.1-0.2-0.2-0.9-0.2-1.1
		c-0.5-2.2-1-4.4-1.5-6.7c-0.2-0.9-1.5-1-2-0.5c-2.8,2.5-5.6,5.1-8.5,7.6c-0.8,0.7-0.1,1.9,0.9,1.9c3.4,0.1,6.8,0.1,10.2,0.2
		c1.6,0,1.6-2.2,0-2.2c-3.4-0.1-6.8-0.1-10.2-0.2c0.3,0.6,0.6,1.2,0.9,1.9c2.8-2.5,5.6-5.1,8.5-7.6c-0.7-0.2-1.4-0.3-2-0.5
		c0.4,1.9,0.9,3.8,1.3,5.8c0.1,0.6,0.2,1.4,0.5,2c0.2,0.6,0.8,0.9,1.3,1.3c1.9,1.6,3.7,3.1,5.6,4.7c1.8,1.5,3.6,3,4.9,5.1
		c1.6,2.6,2.3,5.7,2.1,8.8c-0.1,1.3-0.2,2.5-0.2,3.8c-0.3,4.9-0.6,9.8-1,14.8c-0.2,3.5-0.5,7.1-0.7,10.6c0.5-0.4,1-0.7,1.5-1.1
		c-1.7-0.5-3.7-0.4-5.4,0.1c-4.1,1.2-6.5,4.8-7.7,8.6C156.1,225.9,158.5,226.4,158.9,225.1L158.9,225.1z"/>
	<g>
		<path class="st0" d="M137.4,135.6c0,6.7,3.1,15.9,10.1,18.2c6.9,2.2,12.1-4.6,14-10.3c1.6-5,1.8-10.4,0.8-15.5
			c-0.3-1.4-2.7-0.9-2.4,0.6c1.4,6.7,0.6,15.6-4.4,20.8c-1.7,1.7-4,3-6.4,2.5c-2.7-0.5-4.7-2.7-6.1-5c-2-3.3-3.1-7.5-3.1-11.3
			C139.9,134.1,137.4,134.1,137.4,135.6L137.4,135.6z"/>
		<path class="st0" d="M137.2,141.2c-0.7-0.1-1.4-0.4-1.9-0.8c-1-0.7-1.1-1.7-1.2-2.9c-0.1-0.9-0.3-2-0.1-2.9
			c0.4-1.3,1.7-1.4,2.9-1.4c0.7,0,1.5-0.6,1.2-1.4c-0.7-1.7-0.5-3.9-0.2-5.7c0.4-2.3,1.2-4.5,2.3-6.5c0.6-1.1,1.3-2.4,2.3-3.2
			c0.3-0.3,0.8-0.4,1.2-0.7c0,0,0.7-0.5,0.7-0.6c0.5,0.8-1.1,0-0.1,0.4c0.4,0.1,0.9,0.2,1.3,0.2c2.2,0.3,4.2,0.3,6.2-0.4
			c0.9-0.3,2.3-1.2,3.1-0.6c1.4,1.1,1.9,3.1,3.2,4.3c0.6,0.5,1.6,0.9,2,1.6c0.3,0.6,0.1,1.4,0,2c-0.1,0.8-0.2,1.7-0.3,2.5
			c0,0.3-0.1,2.3,0.2,2.4c0.1,0,1.1-0.6,1.1-0.4c0,0-0.3-0.2-0.3-0.1c-0.1-0.1-0.3-0.2-0.5-0.3c-0.6-0.4-1.2-0.9-1.8-1.3
			c-1.3-0.9-2.7-1.8-4.2-2.2c-1.9-0.5-4-0.7-6-0.8c-2.7-0.1-6.7,0-7.5,3.2c-0.3,1.2,0,2.5-0.2,3.8c-0.4,2.1-1.4,3.6-2.8,5.2
			c-1,1.2-1.5,2.4-1.1,3.9c0.2,0.7,0.5,1.6,0.1,2.3c-0.2,0.3-0.5,0.4-0.3,0.3c-1.5,0.4-0.8,2.5,0.6,2.1c0.9-0.3,1.7-1,2-1.9
			c0.3-0.7,0.3-1.4,0.2-2.1c-0.1-0.8-0.6-1.6-0.3-2.4c0.2-0.5,0.7-1,1.1-1.4c0.6-0.7,1.1-1.4,1.6-2.2c0.9-1.7,1.5-3.7,1.4-5.6
			c0-1-0.2-2.1,0.8-2.6c1.7-0.8,4.2-0.5,6-0.3c2.1,0.2,4,0.5,5.8,1.6c1.3,0.8,2.4,1.8,3.7,2.6c1,0.5,2.3,0.6,2.7-0.7
			c0.2-0.7,0-1.4-0.1-2c-0.1-1.1,0.1-2.1,0.2-3.2c0.2-1.6,0.3-3.3-1.1-4.4c-0.8-0.6-1.6-1.1-2.2-1.9c-0.6-0.8-1-1.8-1.7-2.6
			c-1-1.2-2.1-2-3.7-1.7c-2.1,0.4-3.8,1.5-6,1.4c-1.4-0.1-3.6-1-4.9-0.3c-0.2,0.1-0.4,0.3-0.6,0.5c0,0,0.2-0.1,0.2-0.1
			c-0.2,0.1-0.5,0.3-0.8,0.4c-3.3,1.8-4.9,6.4-5.8,9.8c-0.7,2.5-1.2,5.8-0.2,8.3c0.4-0.5,0.8-0.9,1.2-1.4c-1.8,0-3.8,0.4-4.8,2
			c-0.8,1.3-0.6,2.8-0.5,4.2c0.2,1.7,0.3,3.2,1.6,4.4c0.9,0.8,2.1,1.4,3.3,1.6C138.1,143.6,138.8,141.5,137.2,141.2z"/>
	</g>
	<path class="st0" d="M140.9,154.4c0.2-2.8,0.4-5.5,0.7-8.3c0-0.4,0.1-0.8,0.1-1.2c0.1-0.6-0.7-1.1-1.2-1.1c-0.6,0-1.2,0.5-1.2,1.1
		c-0.2,2.8-0.4,5.5-0.7,8.3c0,0.4-0.1,0.8-0.1,1.2c-0.1,0.6,0.7,1.1,1.2,1.1C140.3,155.5,140.8,155,140.9,154.4L140.9,154.4z"/>
	<path class="st0" d="M153.9,162.2c0.2-2.8,0.4-5.5,0.7-8.3c0-0.4,0.1-0.8,0.1-1.2c0.1-0.6-0.7-1.1-1.2-1.1c-0.6,0-1.2,0.5-1.2,1.1
		c-0.2,2.8-0.4,5.5-0.7,8.3c0,0.4-0.1,0.8-0.1,1.2c-0.1,0.6,0.7,1.1,1.2,1.1C153.4,163.3,153.9,162.8,153.9,162.2L153.9,162.2z"/>
	<path class="st0" d="M188.7,158c1.9-3.6,5.3-7.6,9.8-7.4c3.5,0.1,5.9,2.6,6.2,6c0.2,1.9,0,3.7,0.1,5.6c0.2,2.1,0.3,3.8-0.4,5.8
		c-1.3,3.5-4,7.2-8.1,7.6c-0.9,0.1-1.9,0-2.8-0.3c-0.5-0.1-1.6-0.7-2.2-0.6c-0.3,0.1,0.5,0.2,0.3,0.4c0,0-0.2-0.5-0.2-0.5
		c-0.3-0.9-0.8-1.8-1.2-2.7c-0.7-1.2-2.8-0.2-2.1,1.1c0.4,0.8,0.7,1.6,1.1,2.4c0.2,0.5,0.4,0.9,0.9,1.2c0.5,0.3,1.1,0.4,1.6,0.5
		c1.1,0.3,2.2,0.6,3.3,0.7c4.7,0.3,8.7-3,10.7-7c1.2-2.3,1.8-4.4,1.6-7c-0.1-1-0.2-2.1-0.2-3.1c0-1.3,0.1-2.5,0-3.8
		c-0.1-2-0.6-3.9-1.9-5.4c-1.3-1.5-3.2-2.4-5.1-2.8c-5.9-1.3-11,3.5-13.5,8.3C185.9,158.2,188,159.2,188.7,158L188.7,158z"/>
	<path class="st0" d="M171.4,171.8c1.1-5.6,3.5-11.3,6.7-16c2.6-3.8,6-7.2,10.3-8.9c2.3-0.9,4.9-1.3,7.4-1.2
		c2.8,0.1,6.1,0.6,8.3,2.5c1.5,1.4,2,3.4,1.7,5.3c-0.1,0.7-0.3,1.3-0.5,2c-0.1,0.2-0.2,0.5-0.3,0.7c-0.1,0.4,0-0.1,0,0
		c-0.7,1.4,1.5,2.4,2.1,1.1c1.3-2.6,1.7-6,0.3-8.6c-2.8-5.3-11-5.8-16.2-4.9c-10.1,1.8-16.4,11.1-19.9,20c-0.9,2.4-1.8,4.9-2.3,7.4
		C168.8,172.7,171.1,173.2,171.4,171.8L171.4,171.8z"/>
	<path class="st0" d="M183.3,174.8c0.3-2.2,0.6-4.5,0.9-6.7c0-0.3,0.1-0.6,0-1c-0.2-0.7-0.8-1.4-1.2-2c-0.5-1-1.1-2.2-0.3-3.2
		c0.6-0.9,1.6-0.9,2.2,0.1c0.5,0.9,1.9,0.6,2.2-0.3c0.5-1.4,1.1-2.7,1.6-4.1c0.5-1.4-1.8-1.9-2.4-0.6c-0.5,1.4-1.1,2.7-1.6,4.1
		c0.7-0.1,1.5-0.2,2.2-0.3c-1.6-2.6-5.3-2.2-6.6,0.4c-0.7,1.4-0.5,2.8,0.2,4.2c0.3,0.6,0.6,1.3,1,1.8c0.1,0.2,0.2,0.4,0.3,0.5
		c0.3,0.3-0.4-0.1-0.1-0.4c-0.2,0.2-0.1,1-0.2,1.2c-0.1,0.8-0.2,1.7-0.3,2.5c-0.2,1.2-0.3,2.4-0.5,3.6
		C180.7,176.3,183.1,176.3,183.3,174.8L183.3,174.8z"/>
	<path class="st0" d="M168.6,227.4c0.3,12,1.5,24,2.7,35.9c0.7,6.6,1.4,13.2,2.4,19.7c0.4,2.3,0.7,4.7,1.2,7c0.3,1.3,0.6,2.9,1.3,4
		c0.8,1.3,2.6,1.4,3.4,0.1c1.1-1.7,1.1-4.2,1.3-6.2c0.3-2.9,0.6-5.8,1.1-8.7c0.3-1.8,0.7-4.8,2.2-5.9c0.1-0.1,0.3-0.1,0.4-0.1
		c0.4,0,0.8,0,1.1,0.3c0.1,0.1,0.3,0.3,0.4,0.5c0.2,0.4,0.2,0.9,0.2,1.4c0.1,2.7-0.6,5.5-0.8,8.2c-0.3,3-0.3,6.2,1.1,9
		c1.3,2.7,3.9,4.6,6.8,5.1c6.3,1.2,13-1.8,18.4-4.6c4.7-2.4,9.1-5.3,13.4-8.4c0.2-0.2,0.5-0.4,0.7-0.6c0.2-0.1,0.4-0.5,0.4-0.8
		c-0.8-5.8-1.8-11.5-2.7-17.2c-1.5-9.1-3-18.3-5.6-27.2c-0.4-1.4-0.9-2.9-1.4-4.2c-1.3-3.2-2.3-6.4-3.1-9.7
		c-1.6-6.3-2.7-12.7-3.9-19c-0.6-3-0.5-5.8,0.4-8.7c0.8-2.8,2-5.4,3.4-7.9c0.9-1.5,2-2.9,2.8-4.5c1-2,2-5.1,1.3-7.3
		c-0.2-0.7-0.8-1.3-1.3-1.9c-0.8-0.8-1.6-1.6-2.4-2.4c-0.8-0.7-1.6-1.5-2.4-2.2c-0.5-0.4-1-0.9-1.7-1.1c-2.3-0.5-3.1,3.8-4,5.1
		c-1.3,1.8-3,3.2-4.6,4.7c-0.4,0.3-0.7,0.7-1.1,1c0.3-0.1,0.6-0.2,0.9-0.3c-1.4-0.1-2.9,0.1-4.3,0.4c-1.1,0.2-2.1,0.7-3.1,0.9
		c-0.8,0.1-1.6-0.1-2.4-0.5c-1.8-0.8-3-2.3-4.5-3.5c-2-1.6-4-3.2-6-4.7c-0.6-0.5-1.2-1.1-1.9-1.5c-0.6-0.4-1.4-0.4-2.1-0.5
		c-5.2-0.6-10.4-1.3-15.6-2.1c-1.5-0.2-2.2,1.9-0.6,2.1c5.8,0.9,11.6,1.7,17.4,2.3c-0.3-0.1-0.6-0.2-0.9-0.3
		c2.8,2.2,5.7,4.2,8.3,6.6c1.7,1.6,3.4,3.2,5.7,3.9c1.8,0.6,3.1,0.2,4.8-0.3c1.6-0.5,3.2-0.7,4.9-0.7c0.8,0,1.2-0.4,1.7-0.9
		c0.9-0.8,1.9-1.7,2.8-2.6c0.9-0.9,1.9-1.9,2.7-3c0.3-0.4,0.5-0.8,0.7-1.3c0.2-0.4,0.3-0.9,0.6-1.3c0.2-0.3,0.8-1.1,0.9-1.4
		c0-0.3,0.9-0.1-0.5-0.1c-1.7,0-0.5-0.1-0.4,0.1c0,0,0.2,0.1,0.3,0.2c0.5,0.4,0.9,0.8,1.4,1.2c1.1,1,2.1,1.9,3.1,3
		c0.6,0.6,1.4,1.2,1.5,2.1c0.2,1.5-0.3,3.3-0.9,4.7c-0.4,1-1,1.8-1.6,2.6c-0.7,1.1-1.4,2.2-2,3.4c-1.7,3.1-3.1,6.5-3.7,10
		c-0.6,3.5,0.1,6.7,0.7,10.1c0.7,3.9,1.4,7.9,2.3,11.8c0.9,4.2,2,8.3,3.4,12.3c0.8,2.1,1.6,4.1,2.2,6.2c1.5,5.2,2.5,10.5,3.5,15.8
		c1.1,5.7,2.1,11.4,3,17.2c0.4,2.2,0.7,4.4,1,6.6c0.1,0.8,0.2,1.5,0.4,2.3c0,0.3,0.1,0.6,0.1,0.9c0.1,0.4,0,0.1,0.1,0.4
		c0,0.2,0.1,0.3,0.1,0.5c0.1-0.3,0.2-0.5,0.4-0.8c-3,2.3-6.2,4.4-9.4,6.3c-5.3,3.1-11.5,6.5-17.8,6.9c-2.7,0.1-5.3-0.4-7.2-2.5
		c-2-2.3-2.1-5.5-2-8.3c0.2-2.8,0.8-5.6,1-8.4c0.1-2-0.2-4.3-2.3-5.1c-5.4-2.3-6.6,5.4-7.1,8.9c-0.4,2.8-0.7,5.6-1,8.4
		c-0.1,1-0.3,2.1-0.5,3.1c-0.1,0.3-0.2,0.8-0.3,1c0-0.1-0.2,0.3-0.2,0.3c-0.1-0.5,0.2,0,0-0.1c0,0,0.1-0.1,0.3-0.1
		c0.3,0,0.4,0,0.5,0c0.5,0.2,0.1,0,0.1,0c0.1,0,0.2,0.3,0,0c0-0.1-0.2-0.4-0.1-0.1c-0.2-0.5-0.4-1.1-0.6-1.6
		c-0.5-1.9-0.9-3.8-1.2-5.8c-1-6-1.7-12.1-2.3-18.1c-1.3-12.4-2.5-24.9-3-37.4c0-0.9-0.1-1.7-0.1-2.6C171,226,168.5,226,168.6,227.4
		L168.6,227.4z"/>
	<path class="st0" d="M178.3,184.5c1.9,1.5,3.6,3.3,5.1,5.1c2.6,3.1,5.2,7,5.3,11.2c0,1.4,2.5,1.4,2.4,0c0-4.5-2.7-8.7-5.5-12.1
		c-1.7-2-3.6-4-5.6-5.7C178.9,182.1,177.1,183.6,178.3,184.5L178.3,184.5z"/>
	<path class="st0" d="M206.3,294.4c0.9,2.8,1.3,5.9,0.5,8.8c-0.5,1.6-1.3,3-2.4,4.2c-0.7,0.7-1.4,1.3-2.1,2c-0.5,0.5-1.3,1-1.3,1.8
		c0.1-0.3,0.2-0.5,0.4-0.8c-4.6,5-8.3,10.8-11.2,16.9c-2.7,5.7-5,12.1-4.7,18.5c0.2,4.8,2,9.1,5.9,12c0.5,0.3,1.3,0.8,1.6,1.1
		c0.2,0.1,0.3,0.3,0.5,0.4c0.1,0,0,0.1,0,0c0,0.1,0.1-0.6,0.2-0.5c0,0.1-0.3,0.1,0,0.1c-0.2,0.1-0.5,0.3-0.6,0.3
		c-0.8,0.3-1.7,0.5-2.5,0.6c-5.6,0.8-12-0.6-16-4.9c0,0.5,0,1,0,1.6c2.5-2.9,4.5-6.6,5.4-10.3c0.3-1.4,0.6-2.9,0.6-4.3
		c0-1.2-0.3-2.4-0.3-3.6c0-2,0.5-3.9,1-5.8c1.4-4.7,3.6-9.2,5.8-13.7c1.8-3.7,3.9-7.3,5.2-11.2c0.9-2.6,0.7-5.4,0-8
		c-0.4-1.4-0.9-2.7-1.5-3.9c-0.3-0.6-0.5-1.3-1-1.7c-1-1-2.8,0.5-1.7,1.6c-0.4-0.4,0,0.1,0.1,0.2c0.2,0.3,0.4,0.7,0.5,1
		c0.5,1.1,1,2.3,1.3,3.4c0.6,2.3,0.8,4.6,0,6.8c-1.3,3.6-3.2,7-4.9,10.4c-2.1,4.3-4.2,8.6-5.7,13.1c-0.7,1.9-1.2,3.9-1.5,6
		c-0.3,2.2,0.3,4.2,0.2,6.4c-0.2,3-1.3,5.8-2.8,8.4c-0.5,0.9-1.1,1.8-1.7,2.6c-0.2,0.3-0.4,0.5-0.6,0.8c-0.1,0.1-0.4,0.5-0.1,0.1
		c-0.4,0.5-0.5,1.1,0,1.6c3.9,4.2,10,5.8,15.6,5.7c1.5,0,9.4-0.6,7.3-3.8c-0.7-1.1-2.1-1.6-3-2.3c-1.7-1.3-3-2.9-3.7-4.8
		c-2.4-6.3-0.3-13.5,2.1-19.4c1.6-3.9,3.6-7.7,5.8-11.2c1.1-1.7,2.2-3.4,3.5-5c0.6-0.8,1.2-1.5,1.8-2.2c0.4-0.5,1.4-1.2,1.4-1.9
		c-0.1,0.3-0.2,0.5-0.4,0.8c1.4-1.5,3-2.7,4.3-4.4c1-1.3,1.7-2.8,2-4.4c0.7-3.1,0.3-6.3-0.7-9.3C208.2,292.4,205.8,293,206.3,294.4
		L206.3,294.4z"/>
	<path class="st0" d="M193.7,359.7c1.9,0.9,3.3,2.6,4.4,4.3c0.4,0.6,0.7,1.2,1.1,1.8c0.5,0.9-0.2-0.1,0.1-0.3c0,0-0.1,0.3-0.1,0.3
		c0,0.1-0.1,0.2-0.1,0.2c0.1-0.3-0.1,0.1-0.1,0.2c-0.3,0.5-0.7,0.8-1.4,1.1c-3,1.4-7,0.5-10.1-0.3c-4.2-1-8.4-2.3-12.5-3.7
		c-0.5-0.2-1.1-0.6-1.7-0.7c0,0,0.2,0.2,0.1,0.1c0.1,0.2,0.3,0.3,0.3,0.7c0,0.5-0.4,0.9-0.8,1c0.6-0.1,1-0.8,0.9-1.4
		c-0.2-0.9-0.3-1.9-0.4-2.8c-0.1-1.2-0.3-3.3,0.6-4.2c1.1-1.1-0.7-2.6-1.7-1.6c-2.2,2.2-1.4,6.4-0.8,9.2c0.3-0.5,0.6-0.9,0.9-1.4
		c-0.6,0.1-1.1,0.8-0.9,1.4c0.1,0.5,0.7,0.8,1.1,1c1,0.5,2.1,0.8,3.1,1.2c2.4,0.8,4.8,1.5,7.3,2.2c4.6,1.3,10.2,3.1,15,1.5
		c1.6-0.5,3.4-1.7,3.8-3.5c0.2-1-0.5-1.9-1-2.6c-1.4-2.3-3.2-4.5-5.7-5.7C193.6,357.1,192.3,359,193.7,359.7L193.7,359.7z"/>
	<path class="st0" d="M215.3,289.3c0.6,9.4,1.2,18.8,1.9,28.2c0.6,8,1,16.1,2.6,23.9c0.7,3.6,2.9,6.3,5.7,8.6
		c1.6,1.3,3.4,2.5,5.3,3.6c0.3,0.2,3.2,1.9,3.1,1.9c-0.2,0.3-0.3-1.8,0.1-1.2c0,0-0.2,0.1-0.2,0.1c-0.3,0-0.7,0.2-1,0.2
		c-1.3,0.2-2.6,0.2-3.9,0.3c-1.6,0.1-3.2,0.1-4.8,0.2c-1.6,0.1-3.2,0.3-4.7-0.1c-1.6-0.4-3.1-1.3-4-2.7c-0.2-0.4-0.4-0.7-0.4-0.8
		c0,0,0-0.1,0-0.1c0,0.5,0.3-0.8,0.3-0.8c0.1-0.8,0.2-1.5,0.1-2.3c-0.1-3.2-2-5.4-3.4-8.2c-1.8-3.6-2.9-7.6-4-11.5
		c-1-3.3-1.9-6.6-2.8-9.9c-0.4-1.4-0.7-2.8-1-4.2c-0.2-1-0.7-2.4-0.7-3.4c0-1.4-2.4-1.4-2.4,0c0,1,0.4,2.1,0.6,3.1
		c0.3,1.4,0.6,2.7,0.9,4.1c0.7,3,1.5,6,2.4,8.9c1,3.5,2.2,7,3.4,10.5c0.6,1.6,1.3,3.2,2.1,4.7c0.7,1.2,1.5,2.4,2,3.7
		c0.5,1.4,0.5,2.9,0.3,4.3c-0.1,0.7-0.3,1.2-0.1,1.8c0.5,1.3,1.6,2.5,2.7,3.3c2.1,1.5,4.7,1.9,7.3,1.8c3.2-0.2,6.5-0.2,9.7-0.5
		c1.1-0.1,3.8-0.2,3.8-1.9c0-1.2-1.7-1.9-2.6-2.3c-3.7-2.2-7.9-4.5-10.2-8.4c-1.4-2.4-1.5-5.4-1.9-8.1c-0.6-4.5-1-8.9-1.4-13.4
		c-1-11.1-1.7-22.2-2.4-33.3C217.7,287.9,215.2,287.8,215.3,289.3L215.3,289.3z"/>
	<path class="st0" d="M234.6,355.9c1.7,0.3,3.6,0.6,5,1.6c0.2,0.1,0.4,0.3,0.5,0.5c0.1,0.1,0.1-0.1,0,0.1c0,0-0.3,0.3-0.6,0.4
		c-2.1,1.3-5,1.7-7.4,2c-2.8,0.4-5.5,0.3-8.3,0c-1.5-0.2-2.9-0.1-4.3,0.3c-1.2,0.3-2.2,0.7-3.5,0.3c-4.3-1.3-2.9-6.1-1.5-9.1
		c0.7-1.4-1.5-2.4-2.1-1.1c-1.6,3.3-3.1,8.1,0.2,10.9c1.3,1.1,3.2,1.8,4.9,1.7c1.6-0.1,3-0.8,4.6-0.9c1.7-0.1,3.5,0.5,5.2,0.5
		c1.9,0,3.8-0.2,5.6-0.4c1.7-0.3,3.4-0.6,5.1-1.1c1.3-0.4,2.7-0.9,3.7-1.8c1.1-1,1.1-2.4,0-3.5c-1.6-1.6-4.4-2-6.5-2.5
		C233.8,353.4,233,355.5,234.6,355.9L234.6,355.9z"/>
	<path class="st0" d="M217.1,178.6c1.4-1.2,2.8-2.4,4.2-3.6c0.6-0.6,0.8-1.3,1.1-2c1.4-4.1,2.8-8.2,4.2-12.3
		c1.7-5.2,3.4-10.4,4.9-15.6c1.6-5.8,2.5-11.7,3.4-17.6c0.5-3.3,1.1-6.6,1.4-10c0.1-1,0.1-2.1,0.2-3.1c0.1-1.1,0.3-2.2,0.2-3.4
		c-0.3-3.1-3.2-4-5.9-4.2c-1.9-0.2-5.7-0.7-6.6,1.7c-0.3,0.7-0.2,1.5-0.3,2.2c-0.1,1.6-0.2,3.1,0.6,4.6c0.7,1.5,2.1,2.3,3,3.5
		c1,1.3,1,2.9,0.5,4.3c-0.6,1.7-1.7,3.4-2.5,5.1c-1,2.2-1.8,4.4-2.7,6.6c-4.4,11.2-8.4,22.6-12.4,34c-0.3,1-0.7,1.9-1,2.9
		c-0.5,1.4,1.9,1.9,2.4,0.6c3.6-10.5,7.4-21,11.3-31.4c1.7-4.5,3.4-9,5.4-13.4c0.9-1.9,2.2-3.7,2.4-5.9c0.1-1.4-0.3-2.8-1.1-3.9
		c-0.9-1.2-2.2-2-2.9-3.3c-0.7-1.4-0.5-2.7-0.4-4.1c0-0.3,0-0.7,0.1-1c0-0.2,0-0.2,0.1-0.3c0.6-0.4,2.4-0.2,3.3-0.2
		c1.2,0.1,3.2,0.1,4,1.2c0.5,0.7,0.4,1.8,0.3,2.7c-0.1,1.1-0.3,2.1-0.3,3.2c-0.1,2.7-0.6,5.5-1,8.2c-1,6.2-1.7,12.5-3.4,18.5
		c-1.3,4.8-2.8,9.5-4.4,14.2c-1.5,4.5-3,9-4.5,13.4c-0.3,1-0.9,2.1-1.1,3.2c0,0-0.1,0.2-0.1,0.2c-0.1-0.1,0.6-0.5,0.2-0.4
		c-0.1,0-0.3,0.2-0.4,0.3c-0.8,0.7-1.6,1.4-2.5,2.1c-0.5,0.5-1.1,0.9-1.6,1.4C214.1,178,216,179.5,217.1,178.6L217.1,178.6z"/>
	<path class="st0" d="M281.7,167.8c0,3.9-1.6,8.5-5.4,10.3c-3.6,1.7-7.1-0.9-8.7-4c-1.1-2-1.4-4.3-1.4-6.6c0-2.2,0-4.5,0.5-6.7
		c0.5-2.1,1.5-3.4,3.7-3.6c1.8-0.2,3.7-0.2,5.5,0c2.2,0.2,4.4,0.6,5.2,3C281.9,162.5,281.7,165.3,281.7,167.8c0,1.4,2.4,1.4,2.4,0
		c0-2.8,0.3-6-0.8-8.6c-0.9-2.3-2.8-3.5-5.2-4c-2.3-0.4-4.7-0.5-7-0.4c-2.4,0.1-4.7,0.8-6,3c-1.3,2.3-1.5,5.1-1.5,7.7
		c-0.1,2.8,0,5.5,1.1,8.1c1.8,4.4,5.9,8,10.9,6.9c5.7-1.2,8.4-7.5,8.5-12.8C284.1,166.4,281.7,166.4,281.7,167.8z"/>
	<path class="st0" d="M283.5,174.8c2.7-0.3,4.7-2.2,6.4-4.1c0.6-0.7,1.2-1.6,1.7-2.1c0.5-0.5,1.4-0.9,2.1-1.2c2.9-1.4,6-2.3,9.1-3
		c2.1-0.5,3.9-1.6,6-1.9c0.3,0,0.7,0,1.1,0c0.1,0-0.2-0.1-0.1-0.2c0,0.2-0.1,0.4-0.2,0.7c-0.2,0.3-0.4,0.6-0.6,0.9
		c-0.1,0.1-0.2,0.2-0.2,0.3c-0.2,0.4,0.2-0.3,0.3-0.2c-0.1-0.3-3.7,2.4-3.8,2.6c-2,1.7-3.9,3.8-5,6.1c-0.9,1.8-1.5,3.8-2,5.7
		c-1.2,4.7-2,9.5-2.7,14.3c-0.3,1.9-0.5,3.7-0.7,5.6c-0.1,0.6-0.1,1.2-0.2,1.8c0,0.2,0,0.4-0.1,0.6c0.1-0.4,0,0.2,0,0.3
		c0,0.9,0.1,1.9,0.3,2.8c0.2,1.8,0.5,3.6,0.8,5.4c0.7,4.5,1.4,9.1,2.1,13.6c0.5,3.1,0.9,6.1,1.1,9.2c0.3,5,1.1,10.1,0.9,15.2
		c0,0.3-0.2,0.9-0.1,1.2c0.1,0.3-0.1,0.2,0.2,0.1c-0.1,0-0.2,0-0.3,0c-0.3-0.1-0.8,0-1.1,0c-1.4-0.1-2.9-0.1-4.3-0.1
		c-6.4,0-12.8,0.8-19.2,1.5c-2.9,0.3-5.8,0.6-8.7,0.8c-1.7,0.1-3.5,0.2-5.2,0c-0.3,0-0.6-0.1-0.9-0.2c-0.2-0.1-0.6-0.2-0.6-0.2
		c-0.5-0.2-0.6-0.3-1-0.6c-0.1-0.1-0.4-0.6-0.4-0.8c-0.3-0.8-0.3-1.7-0.4-2.6c0-0.9,0-1.8,0.1-2.7c0-0.5,0-0.8-0.4-1.2
		c-0.5-0.4-0.5-0.3-1.1-0.9c-0.7-0.7-1.4-1.5-1.9-2.4c-0.6-1.3-0.8-2.9-0.9-4.4c-0.2-2.3-0.2-4.6-0.1-6.9c0.1-5.5,0.6-11.1,0.9-16.6
		c0.3-5,0.5-10.2-0.1-15.2c-0.3-2.5-0.6-5.3-1.7-7.5c-0.5-1-1.4-1.9-2.7-1.6c0,0-0.8,0.2-0.9,0.4c0.1-0.4,1.1,0.3,1.2,0.3
		c0,0,0,0.2,0,0c0-0.1-0.1-0.2-0.1-0.3c-0.4-2.4-1.2-4.8-2.3-7.1c-0.7-1.5-1.6-3-2.5-4.4c0,0.3,0.1,0.6,0.1,0.8
		c0.8-3.8,1.6-7.9,1.4-11.8c-0.1-2.5-1.2-5-1.9-7.4c-2.5-8.1-5.1-16.2-7.7-24.3c-0.7-2.2-1.4-4.3-2.1-6.5c-0.4-1.3-2.8-0.8-2.4,0.6
		c2.6,8,5.1,15.9,7.6,23.9c1.2,4,2.6,7.9,3.7,11.9c1.2,4.3-0.5,8.8-1,13c-0.1,0.8,0.6,1.6,1,2.3c0.8,1.4,1.6,2.9,2.3,4.4
		c0.7,1.5,1.1,3.1,1.4,4.7c0.1,0.7,0.3,1.4,0.9,1.8c0.6,0.3,1.2,0.2,1.8-0.1c0.3-0.2,0-0.1,0.2-0.1c-0.1,0-0.3,0-0.3,0
		c-0.3,0-0.2-0.2-0.2-0.1c0,0,0.3,0.6,0.4,0.8c0.3,0.7,0.4,1.4,0.6,2.1c0.4,1.8,0.7,3.6,0.8,5.4c0.6,6.8,0,13.8-0.5,20.6
		c-0.4,6.1-1.1,12.5-0.2,18.7c0.4,2.4,1.1,4.1,2.8,6c0.3,0.4,0.7,0.8,1.1,1.1c0.2,0.1,0.3,0.3,0.5,0.3c0.2,0.1,0.1,0.1,0,0
		c-0.3-0.5-0.3-0.8-0.3-0.2c-0.1,0.5-0.1,1.1-0.1,1.6c0,2,0,4.3,1.5,5.8c1.1,1.1,2.6,1.5,4.1,1.7c2.5,0.3,5.1,0.1,7.6-0.1
		c4.4-0.4,8.8-0.9,13.1-1.4c5.8-0.6,11.5-0.9,17.4-0.7c0.6,0,1.2,0,1.7-0.1c1.4-0.4,1.5-1.9,1.6-3.2c0.2-3.2-0.2-6.5-0.4-9.7
		c-0.4-4.6-0.7-9.1-1.4-13.7c-0.8-5.7-1.8-11.4-2.6-17c-0.3-1.8-0.6-3.6-0.7-5.4c0-0.2,0-0.3,0-0.5c0-0.2,0,0.3,0,0.1
		c0-0.2,0.1-0.3,0.1-0.5c0.1-0.7,0.2-1.4,0.3-2.1c0.7-5.6,1.5-11.2,2.7-16.8c0.6-2.6,1.2-5.3,2.3-7.8c1.3-2.8,3.8-5.4,6.4-7.2
		c0.5-0.4,1.1-0.6,1.7-0.9c0.6-0.4,1.1-1.2,1.4-1.8c0.5-0.9,0.8-2.1,0-3c-1.1-1.1-3-0.7-4.4-0.4c-1.2,0.2-2.1,0.8-3.2,1.2
		c-1.8,0.7-3.8,0.9-5.7,1.5c-1.9,0.6-3.8,1.3-5.6,2.1c-1.1,0.5-2.3,1-3.1,1.8c-0.8,0.9-1.5,1.9-2.4,2.8c-1,1.1-2.4,2.5-4,2.7
		C281.9,172.7,281.9,174.9,283.5,174.8L283.5,174.8z"/>
	<path class="st0" d="M275.1,259.5c2.1,0.3,3.2,1.1,3.2,3.3c0,2.7-0.6,5.4-0.6,8.1c-0.1,3.3-0.6,6.5-1.4,9.7
		c-0.8,3.4-1.8,6.8-2.3,10.2c-0.5,3.1-0.6,6.2,0.3,9.3c0.9,3.3,1.7,6.6,2.5,9.8c1.8,7.3,3.8,14.5,5,21.9c0.6,3.5,1,7,1.7,10.4
		c0.5,2.5,1,4.8,2.3,6.9c0.7,1.2,2.9,0.2,2.1-1.1c-1.2-1.9-1.6-4-2-6.1c-0.6-3.1-1-6.3-1.5-9.4c-1.2-7.5-3.1-14.8-4.9-22.1
		c-0.8-3.4-1.7-6.9-2.6-10.3c-0.9-3.3-0.8-6.4-0.3-9.7c0.6-3.6,1.7-7,2.5-10.6c0.8-3.2,1.1-6.3,1.2-9.6c0.1-2.9,0.9-5.9,0.5-8.8
		c-0.4-2.6-2.4-3.8-4.9-4.2C274.2,257.2,273.5,259.3,275.1,259.5L275.1,259.5z"/>
	<path class="st0" d="M298.5,249.8c1.7,3.9,1.9,8,1.8,12.2c-0.1,4.9-0.6,9.8-1.7,14.7c-0.5,2.5-1.2,5.1-2.1,7.5
		c-0.7,1.9-1.5,3.7-2.3,5.5c-0.8,2-1.5,4-1.9,6.1c-0.4,2.2-0.5,4.5-0.7,6.7c-0.2,2-0.4,4.2,0.3,6.1c0.3,0.8,0.6,1.6,0.8,2.4
		c0.7,2.5,1.3,5.1,1.8,7.7c1.3,6.4,2.3,13.1,2.1,19.6c-0.1,2.3-0.1,5.5-1.5,7.4c-1.3,1.7-4.1,1-5.9,0.9c-1-0.1-2,0-2.8,0.6
		c-0.2,0.2-0.4,0.4-0.6,0.6c-0.1,0.1-0.2,0.3-0.2,0.4c-0.1,0.4-0.4,0.1,0.4-0.3c0.3,0,0.6-0.1,0.9-0.1c0.5,0.5,0.7,0.5,0.5,0.2
		c-0.5-0.7-1.6-0.7-2.1,0c-0.5,0.7-0.9,1.4-1.4,2.1c0.4-0.2,0.7-0.4,1.1-0.5c-1.6,0-3.3,0-4.9,0c0.4,0.2,0.7,0.4,1.1,0.5
		c-2.1-4.4-4.2-8.9-6.1-13.4c-1.3-3-2.5-6.1-3.5-9.2c-0.8-2.7-0.8-5.3-0.9-8c-0.1-4-0.4-8-1.3-11.9c-1.2-5.3-3.4-10.4-5-15.6
		c-2.4-7.5-4.6-15.1-6.5-22.7c-1.1-4.3-2.1-8.6-2.9-13c-0.1-0.7-0.2-1.3-0.3-2c0-0.3,0-1-0.1-1.3c0,0,0-0.3,0,0c0,0.2-0.2,0.4,0,0.1
		c0.3-0.3,0.5-0.8,0.7-1.1c0.7-1.1,1.3-2.3,2-3.4c0.8-1.3-1.3-2.3-2.1-1.1c-0.7,1-1.3,2-1.9,3.1c-0.3,0.6-0.9,1.2-1.1,1.9
		c-0.2,0.7,0,1.6,0.1,2.3c0.5,3.6,1.3,7.1,2.1,10.6c1.8,7.9,4.1,15.6,6.4,23.4c1.5,5.1,3.3,10,4.9,15c1.5,4.5,2.3,9,2.4,13.7
		c0.1,3-0.1,6,0.5,9c0.6,3,1.8,5.8,3,8.6c2.2,5.5,4.7,10.9,7.3,16.2c0.2,0.4,0.7,0.5,1.1,0.5c1.5,0,3,0,4.5,0c1.5,0,2.1-1.5,2.8-2.6
		c-0.7,0-1.4,0-2.1,0c0.4,0.5,0.9,0.9,1.6,0.8c0.6-0.2,0.8-0.8,1-1c0.5-0.5,1.6-0.2,2.2-0.1c1.1,0.1,2.2,0.2,3.3,0
		c3.1-0.4,4.6-2.8,5.1-5.6c1.3-6.3,0.3-13.2-0.7-19.5c-0.8-5.5-2-10.9-3.8-16.2c-0.7-2.1-0.2-4.5,0-6.7c0.3-2.4,0.4-4.8,1-7.1
		c1.2-4.3,3.4-8.3,4.6-12.6c1.6-5.7,2.5-11.5,2.7-17.4c0.2-5,0.2-10.1-1.9-14.7C300.3,247.9,298,248.5,298.5,249.8L298.5,249.8z"/>
	<path class="st0" d="M284.8,364.3c0.7-0.8,1-2.1,1.2-3.1c0.3-1.5,0.5-3.1,0.6-4.6c0.2-2,0.3-4,0.4-6c0-0.6-0.6-1.1-1.2-1.1
		c-2,0-4,0-6.1,0c0.4,0.6,0.7,1.1,1.1,1.7c0,0,0,0,0,0c-0.5,0.2-0.9,0.3-1.4,0.5c0,0,0,0,0,0c-0.3-0.4-0.6-0.7-0.9-1.1
		c0-0.4,0.1-0.3,0-0.1c-0.1,0.1-0.1,0.2-0.1,0.3c-0.2,0.4-0.3,0.8-0.5,1.2c-0.5,1.2-1.1,2.5-1.7,3.7c-1.4,2.8-2.9,5.8-5.2,8
		c-1.1,1.1,0.7,2.5,1.7,1.6c2.5-2.4,4.2-5.5,5.7-8.6c0.7-1.3,1.3-2.7,1.8-4c0.2-0.6,0.7-1.3,0.7-1.9c0-0.5-0.4-1-0.9-1.1
		c-0.6-0.1-1,0-1.4,0.5c-0.6,0.7,0.3,1.7,1.1,1.7c2,0,4,0,6.1,0c-0.4-0.4-0.8-0.7-1.2-1.1c0,1.9-0.2,3.8-0.3,5.7
		c-0.1,1.4-0.3,2.8-0.6,4.2c-0.1,0.6-0.3,1.2-0.5,1.8c0,0.1-0.1,0.2-0.1,0.3c0,0.1-0.2,0.4-0.1,0.2c-0.1,0.2-0.2,0.4-0.3,0.5
		c-0.4,0.5-0.1,1.2,0.4,1.5C283.7,365,284.4,364.8,284.8,364.3L284.8,364.3z"/>
	<path class="st0" d="M273.1,369.1c0-1.1,0-2.3,0-3.4c0-0.2,0-0.5,0-0.7c0,0,0-0.2,0-0.2c0-0.1,0.1,0-0.1,0.1
		c-0.7,0.2,0,0.1,0.2,0.1c2.6,0,5.3-0.1,7.9-0.1c0.9,0,1.7,0,2.6,0c-0.4-0.3-0.8-0.5-1.2-0.8c0.1,0.2,0.1,0.5,0.2,0.7
		c0,0.1,0,0.2,0.1,0.4c0-0.2,0,0.1,0,0.2c0,0.3,0.1,0.6,0.1,1c0,0.1,0,0.3,0,0.4c0,0,0,0.5,0,0.3c0,0.1-0.1,0.3-0.1,0.4
		c0,0.1,0,0.1-0.1,0.2c-0.1,0.2,0,0,0,0.1c0,0.1-0.2,0.3-0.2,0.3c0,0-0.2,0.1-0.1,0.1c-0.1,0.1-0.4,0.2-0.1,0.1
		c-0.1,0-0.3,0.1-0.4,0.1c-0.1,0-0.2,0-0.3,0.1c0,0-0.4,0.1-0.3,0c0.1,0-0.3,0-0.3,0c-0.2,0-0.3,0-0.5,0c-0.7,0-1.4,0-2.1,0
		c-1.4,0-2.8-0.1-4.2-0.2c-0.8-0.1-1.6-0.1-2.3-0.2c-0.6-0.1-1.2,0.5-1.2,1.1c0,0.7,0.6,1,1.2,1.1c2.2,0.3,4.4,0.4,6.7,0.5
		c1.4,0,2.8,0,4.2-0.3c1.6-0.5,2.4-1.8,2.6-3.4c0.1-1.1-0.1-2.4-0.4-3.5c-0.1-0.5-0.7-0.8-1.2-0.8c-2.3,0-4.7,0-7,0.1
		c-1.2,0-2.4,0-3.6,0c-0.5,0-0.9,0-1.3,0.2c-0.9,0.4-1.2,1.2-1.2,2.1c0,1.3,0,2.7,0,4C270.6,370.5,273.1,370.5,273.1,369.1z"/>
	<path class="st0" d="M294.7,347.3c1.6,4.2,3.1,8.6,3.5,13.1c0.1,1.6,0.2,3.7-1,4.9c-1.5,1.3-3.9,1.6-5.8,1.8
		c-2.5,0.2-5.1,0.1-7.7-0.2c-1.5-0.2-1.5,2,0,2.2c2.5,0.2,4.9,0.4,7.4,0.2c2.4-0.2,5-0.5,7-1.9c4-2.7,2.4-9,1.4-12.9
		c-0.7-2.7-1.6-5.3-2.5-7.8C296.6,345.5,294.2,346,294.7,347.3L294.7,347.3z"/>
	<path class="st0" d="M284.5,363.1c0.3,0,0.6,0,0.9,0.1c0,0,0.4,0,0.1,0c0.1,0,0.2,0,0.3,0c0.3,0,0.6,0.1,0.9,0.1
		c1.1,0.1,2.3,0.2,3.4,0.2c3.4,0,6.7-0.7,9.8-2c0.6-0.2,0.7-1,0.4-1.5c-0.4-0.6-1.1-0.6-1.7-0.4c-2.8,1.2-5.9,1.7-9,1.7
		c-1.9,0-3.4-0.4-5.2-0.4C283,360.9,283,363.1,284.5,363.1L284.5,363.1z"/>
	<path class="st0" d="M229.6,108.6c2.2-0.8,4.4-1.7,6.5-2.5c-0.3,0-0.6,0.1-0.9,0.1c1.2,0.2,2.4,0.5,3.6,0.7
		c-0.3-0.3-0.6-0.5-0.9-0.8c1.9,6.4,3.8,12.9,5.6,19.3c2.8,9.5,5.6,19,8,28.6c0.3,1.2,0.6,2.4,0.8,3.6c0.3,1.9,0.5,5.3,2.4,6.5
		c-0.2-0.2-0.4-0.4-0.6-0.7c1.7,6,5.5,13.1,11.8,15c1.4,0.4,2.2-1.7,0.6-2.1c-3.5-1.1-5.9-4.3-7.6-7.4c-1.1-1.9-1.6-4-2.5-6
		c-0.1-0.2-0.2-0.3-0.3-0.5c-0.5-0.7,0.1,0.2-0.1-0.1c0,0,0.1,0.2,0,0c-0.1-0.2-0.2-0.3-0.2-0.5c-0.7-1.6-0.9-3.4-1.2-5.1
		c-0.3-1.5-0.7-3-1.1-4.5c-3.2-12.1-6.7-24.2-10.3-36.2c-1-3.5-2.1-7-3.1-10.6c-0.1-0.4-0.5-0.7-0.9-0.8c-1-0.2-2.1-0.4-3.1-0.6
		c-0.8-0.2-1.4,0-2.2,0.3c-1.9,0.7-3.9,1.5-5.8,2.2C226.9,107.3,228.2,109.1,229.6,108.6L229.6,108.6z"/>
	<path class="st0" d="M244.9,163.2c2.8-0.2,5.6-0.3,8.4-0.5c0.4,0,0.8,0,1.2-0.1c0.6,0,1.2-0.4,1.2-1.1c0-0.6-0.6-1.1-1.2-1.1
		c-2.8,0.2-5.6,0.3-8.4,0.5c-0.4,0-0.8,0-1.2,0.1c-0.6,0-1.2,0.4-1.2,1.1C243.6,162.7,244.3,163.2,244.9,163.2L244.9,163.2z"/>
	<path class="st0" d="M254.8,158.9c2.1-3.5,4.2-7,7.2-9.8c1.7-1.7,3.2-3.4,4.7-5.3c0.1-0.1,0.4-0.2,0.1-0.2c0.2,0,0.5,0.4,0.7,0.5
		c0.5,0.2,1,0.3,1.5,0.2c1-0.2,1.8-1.1,2.7-1.5c2.3-1,5.4-0.2,7.8,0.3c0.5,0.1,1,0.2,1.5,0.4c0.2,0.1,0.5,0.3,0.4,0.1
		c0.3,0.3,0.5,0.7,0.8,1c0.4,0.4,1,0.8,1.5,1.1c1.5,0.7,3,1.2,4.5,2c0.3,0.2,0.5,0.4,0.8,0.5c0.2,0.1,0.1,0.2,0.1-0.1
		c0,0.2-0.3,0.6-0.4,0.9c-0.4,1.3-0.1,2.6,0.4,3.8c0.3,0.7,0.7,1.4,1.2,1.9c0.3,0.3,0.8,0.6,0.9,1c0.2,0.6-0.2,1.6-0.5,2.1
		c-0.3,0.8-0.8,1.6-1.3,2.4c-0.6,0.9-1.7,2.1-1.7,3.3c0,1.1,0.9,1.4,1.8,1.8c0.3,0.1,0.9,0.3,1,0.6c0.2,0.4-0.5,1.1-0.7,1.4
		c-1,1.2,1.2,2.2,2.1,1.1c0.8-0.9,1.5-2.2,0.8-3.4c-0.5-0.9-1.4-1.3-2.3-1.7c-0.1,0-0.4-0.2-0.5-0.2c-0.1,0-0.4-0.4,0,0.2
		c0.5,0.6,0,0.2,0.2,0.1c0.4-0.2,0.8-1.3,1-1.7c0.9-1.4,1.9-2.9,2.3-4.5c0.3-1.3,0.2-2.3-0.7-3.2c-1-1-2.1-2.5-1.9-4
		c0.1-0.9,0.8-1.5,0.4-2.5c-0.5-1.1-2.1-1.8-3.1-2.3c-1.3-0.6-3.3-1-4.3-2.1c-0.6-0.7-0.9-1.2-1.8-1.6c-2.4-0.9-5.2-1.3-7.7-1.3
		c-1.5,0-2.9,0.2-4.3,0.9c-0.5,0.2-0.9,0.6-1.4,0.9c-0.3,0.2-0.4,0.1-0.1,0.2c0,0-0.4-0.4-0.6-0.4c-2.5-1.3-4,2-5.2,3.5
		c-1.2,1.4-2.8,2.6-4.1,4.1c-0.9,0.9-1.6,2-2.3,3c-1.3,1.8-2.5,3.7-3.6,5.6C251.9,159.1,254,160.1,254.8,158.9L254.8,158.9z"/>
	<path class="st0" d="M310.1,155.8c-0.7,1.5-1.3,3.1-2,4.6c-0.1,0.2-0.2,0.4-0.3,0.7c-0.1,0.2,0,0.6,0.1,0.8
		c0.2,0.2,0.4,0.4,0.7,0.5c0.7,0.1,1.2-0.2,1.5-0.8c0.7-1.5,1.3-3.1,2-4.6c0.1-0.2,0.2-0.4,0.3-0.7c0.1-0.2,0-0.6-0.1-0.8
		c-0.2-0.2-0.4-0.4-0.7-0.5C310.9,154.9,310.3,155.2,310.1,155.8L310.1,155.8z"/>
	<path class="st0" d="M315.6,157.1c-0.5,1.4-0.3,3.1-0.3,4.5c0.1,2.4,0.3,4.8,0.6,7.3c0.5,4.7,1.2,9.3,2.2,13.9
		c0.4,1.7,0.6,3.3,0.6,5.1c-0.1,2.6-0.3,5.2-0.5,7.8c-0.2,3.6-0.2,7.3,0.2,10.9c0.3,3,1.1,5.8,2,8.7c2.3,7,5.4,13.6,8.5,20.3
		c0.6,1.3,3,0.7,2.4-0.6c-2.7-5.7-5.4-11.5-7.5-17.4c-1.1-3-2-6-2.6-9.1c-0.6-3.4-0.6-6.9-0.5-10.4c0.1-2.8,0.3-5.6,0.5-8.4
		c0.1-2,0.2-4-0.3-6c-0.9-4.1-1.6-8.3-2.1-12.4c-0.4-2.8-0.7-5.6-0.9-8.4c-0.1-1.6-0.4-3.7,0.1-5.1
		C318.4,156.3,316.1,155.8,315.6,157.1L315.6,157.1z"/>
	<path class="st0" d="M338.2,354c2.4,2,3.9,4.5,4.3,7.6c0.1,1.4,0.1,3.6,2,3.5c0.8,0,1.6-0.5,2.5-0.6c1.3-0.1,2.6-0.1,3.9,0
		c1.7,0.1,3.3,0.2,5,0.5c0.7,0.1,1.5-0.2,1.5-1.1c0-4.9,0.2-9.8,0.3-14.8c0.2-10.2,0.3-20.3,0.3-30.5c0-8.9,0.1-17.8-0.3-26.7
		c-0.2-3.2-0.5-6.4-0.5-9.7c-0.1-5.5,0-11.1,0.2-16.6c0.3-11.8,0.9-23.5,1.5-35.3c0.1-1,0.1-2,0.2-3c0.1-1.4-2.4-1.4-2.4,0
		c-0.6,11.2-1.1,22.4-1.5,33.6c-0.3,9.6-0.5,19.2,0.1,28.8c0.6,8.3,0.5,16.6,0.5,24.9c0,10.4-0.1,20.7-0.3,31.1
		c-0.1,3.9-0.1,7.8-0.2,11.7c0,2-0.3,4.1-0.1,6c0,0.1,0,0.2,0,0.3c0.5-0.4,1-0.7,1.5-1.1c-1.6-0.2-3.2-0.4-4.8-0.5
		c-2.2-0.1-4.8-0.3-6.9,0.4c0,0-0.5,0.2-0.4,0.2c-0.2,0-0.1,0,0,0c0.3,0,0.5,0.1,0.7,0.3c0.1,0-0.1,0.2,0-0.1c0-0.1,0-0.2,0-0.2
		c-0.2-1-0.2-2-0.4-2.9c-0.6-3-2.4-5.6-4.8-7.5C338.8,351.5,337,353,338.2,354L338.2,354z"/>
	<path class="st0" d="M309.2,245c-0.3,3.2-0.5,6.3-0.8,9.5c-0.1,1.7-0.3,3.1,0,4.8c1.7,7.4,3.3,14.8,4.9,22.2
		c1,4.6,1.9,9.2,2.7,13.8c0.6,3.3,1.2,6.6,1.5,9.9c0.3,3.5,0.8,6.9,1.8,10.3c0.9,3.2,2,6.3,2.9,9.5c0.9,3.1,1.4,6.3,2.6,9.3
		c0.5,1.2,1.2,2,1,3.1c-0.2,1.3-0.8,2.5-1.2,3.7c-0.6,1.8-1.1,3.6-1.5,5.5c-0.3,1.2-0.5,2.4-0.6,3.6c0,0.5,0,0.7,0.1,1.1
		c-0.1-0.4-0.1-0.1,0.1,0.1c0.1,0.2,0.2,0.3,0.4,0.4c1.3,0.9,3.5,1.1,5.1,1.3c2.5,0.4,4.9,0.7,7.4,1c1.3,0.1,4.5,0.9,4.7-1
		c0-0.3,0-0.6,0-0.9c-0.1-1.7-0.2-3.4-0.3-5.1c-0.5-6.6-1-13.2-1.5-19.8c-0.7-8.8-1.4-17.6-2.1-26.4c-0.7-8.3-1.3-16.7-2.1-25
		c-0.5-5.3-0.9-10.6-1.5-15.9c-0.1-0.6-0.2-1.3-0.3-1.9c-0.2-1.4-2.6-0.9-2.4,0.6c0,0.2,0-0.3,0,0.1c0,0.1,0,0.3,0.1,0.4
		c0,0.3,0.1,0.7,0.1,1c0.1,0.9,0.2,1.8,0.3,2.7c0.3,2.7,0.5,5.3,0.7,8c0.7,7.6,1.3,15.2,1.9,22.8c0.7,8.7,1.4,17.5,2.1,26.2
		c0.6,7.4,1.1,14.7,1.7,22.1c0.2,2.4,0.4,4.9,0.5,7.3c0.1,1.1,0,2.5,0.2,3.6c0,0.2-0.1,0.4,0-0.1c0.2-0.2,0.4-0.4,0.6-0.7
		c0,0-0.9-0.1-1.1-0.1c-0.5,0-1-0.1-1.4-0.1c-1.2-0.1-2.4-0.3-3.5-0.4c-2.2-0.3-4.5-0.6-6.7-1.2c-0.3-0.1-0.7-0.3-0.9-0.3
		c0.2,0-0.1,0-0.1-0.1c0-0.1,0.3,0.4,0.2,0.3c0.1,0.2,0.1,0.2,0.1,0.1c-0.1-0.2-0.1-0.2,0,0.1c-0.1,0.3,0.1,0.1,0.1-0.1
		c0-0.2,0-0.4,0.1-0.5c0.1-0.6,0.2-1.2,0.3-1.8c0.7-3.3,1.8-6.3,2.7-9.5c0.4-1.4,0.3-2.5-0.4-3.8c-1.2-2.4-1.7-4.9-2.3-7.4
		c-1.6-6.5-4.3-12.8-5.1-19.5c-0.4-3.6-0.8-7.2-1.4-10.8c-0.8-4.4-1.7-8.9-2.6-13.3c-1.6-7.9-3.3-15.8-5.1-23.6
		c-0.2-0.8-0.3-1.6-0.5-2.4c-0.1-0.3,0-0.4,0,0c0-0.4,0.1-0.8,0.1-1.1c0.3-3.6,0.6-7.2,0.9-10.8c0-0.3,0-0.6,0.1-0.9
		C311.8,243.6,309.3,243.6,309.2,245L309.2,245z"/>
	<path class="st0" d="M354.9,137.9c3.6-3.1,6.9-7,8.5-11.6c1.1-3.5,0.9-7.2,0.5-10.8c-0.9-7.9-2.6-16.1-5.6-23.6
		c-0.4-1.1-0.9-2.3-1.6-3.3c-0.5-0.7-1.2-1.3-1.8-2c-2.2-2.5-4.2-5.3-6-8.1c-1.6-2.5-3.5-5.3-4.4-8.2c0-0.2-0.1-0.4-0.1-0.4
		c0,0,0-0.2,0-0.2c-0.1-0.1,0,0,0,0c0.1,0-0.7,0.7-0.7,0.4c0,0,1.6-0.1,1.7-0.1c0.5,0,0.9-0.1,1.2,0.2c0.6,0.6,0.8,1.7,1.1,2.5
		c0.6,1.2,2.3,1.7,2.8,0.1c0.4-1.3,0.2-3,0.2-4.3c0-1.3-0.1-2.9,0.2-4c0.1-0.2,0.1-0.4,0.2-0.6c0,0,0.1-0.1,0.1-0.2
		c-0.2,0.1,0,0,0.1,0c0.4,0,0.8,0.1,1.2,0.2c2.1,0.6,3.9,2,6.1,2.2c1.1,0.1,2.2-0.1,3.3-0.4c0.3-0.1,0.2,0,0.1,0
		c0.1,0.1-1.1-0.4-0.8-0.7c-0.1,0.1-0.2,1.4-0.2,1.6c-0.4,1.9-1,3.8-1.4,5.7c-0.4,2-0.5,3.9,0.5,5.8c1.2,2.2,2.8,4.3,3.9,6.5
		c2.7,5.1,4.5,10.7,6.4,16.1c1.3,3.6,2.7,7.3,3.6,11.1c0.5,2.3,0.8,4.6,0.8,6.9c0,1.3,0,2.6-0.2,3.8c-0.3,1.5-0.9,3-1.5,4.4
		c-3.4,7.9-8.5,15.3-13.4,22.3c-0.9,1.3-1.9,2.6-2.8,3.8c-0.9,1.2,1.3,2.2,2.1,1.1c5.2-6.8,10-14,14-21.5c1.7-3.1,3.5-6.5,4.1-10.1
		c0.4-2.4,0.3-5.1,0-7.5c-0.3-3-1.1-5.8-2.1-8.7c-1.7-5.3-3.6-10.7-5.7-15.9c-1.5-3.9-3.4-7.8-5.7-11.3c-0.5-0.8-1.1-1.6-1.5-2.4
		c-0.2-0.5-0.4-1.2-0.4-1.9c0-3.3,1.7-6.3,1.9-9.6c0.1-1.1-0.5-2-1.7-2c-0.9,0-1.8,0.5-2.7,0.5c-2.1,0-3.9-1.4-5.9-2
		c-1.3-0.4-3-0.7-4.1,0.4c-0.8,0.8-1,2.2-1,3.3c-0.1,1.6,0,3.3,0,4.9c0,0.5-0.1,1.3-0.1,1.6c0.1,0.7,1.9,0.1,1.8-0.2
		c0-0.5-0.4-1.1-0.6-1.6c-0.7-1.6-1.7-2.6-3.6-2.6c-1.2,0-3.2-0.1-3.8,1.3c-0.3,0.9,0.1,2,0.4,2.8c1.3,3.2,3.3,6.2,5.2,9.1
		c1.8,2.7,3.7,5.4,5.9,7.7c0.7,0.7,1,0.9,1.5,1.9c0.7,1.3,1.2,2.6,1.6,4c1.4,4,2.4,8,3.3,12.1c0.9,4.1,1.6,8.3,1.8,12.5
		c0.1,1.6,0.1,3.3-0.3,4.9c-0.6,2.7-1.9,5.2-3.6,7.4c-1.4,1.8-2.9,3.4-4.6,4.8C352,137.4,353.8,138.9,354.9,137.9L354.9,137.9z"/>
	<path class="st0" d="M337.9,353c-0.1,1-0.3,2.1-0.5,3.1c-0.1,0.4-0.2,1.5-0.5,1.7c-0.4,0.2-2-0.4-2.5-0.4c-0.6-0.1-1.1-0.1-1.6,0.1
		c-2.6,0.6-5,2.4-7.5,3.4c-2.9,1.2-6.9,2.3-9.7,0.3c-0.7-0.5-1.4-1.3-1.4-2.2c0-0.7,0.6-1.1,1.3-1.6c3-2.3,6.5-4,9.9-5.8
		c-0.6-0.2-1.2-0.4-1.8-0.7c0.3,0.9,1.3,1.1,2.1,1.4c1.4,0.4,2.8,0.6,4.3,0.8c3,0.5,6.1,0.9,9.2,1.1c1.6,0.1,1.5-2.1,0-2.2
		c-2.6-0.1-5.2-0.5-7.7-0.9c-1.3-0.2-2.6-0.4-3.9-0.7c-0.5-0.1-1-0.2-1.4-0.4c-0.1,0-0.5-0.1-0.4-0.1c-0.3,0,0-0.2,0.2,0.4
		c-0.3-0.7-1.1-1-1.8-0.7c-3.5,1.9-7.3,3.7-10.5,6.2c-0.9,0.7-1.7,1.5-1.9,2.6c-0.1,1.3,0.5,2.5,1.3,3.4c2.5,2.9,6.8,2.9,10.2,2
		c2.1-0.5,4-1.4,6-2.3c1.3-0.7,2.7-1.6,4.1-2c1.7-0.5,3.6,1.2,5.3-0.1c0.8-0.6,1-1.5,1.1-2.4c0.3-1.3,0.5-2.7,0.6-4
		C340.5,351.6,338.1,351.6,337.9,353z"/>
	<path class="st0" d="M356.4,362.5c1.5,4.1,0.5,9.3-3.3,11.8c-2.1,1.4-5.1,2-7.6,1.3c-0.3-0.1-0.8-0.3-1-0.4
		c-0.4-0.3-0.6-0.6-0.7-0.8c-0.3-0.8-0.3-1.6-0.2-2.5c0.4-2.7,1.9-5.3,3.3-7.6c0.8-1.3-1.4-2.3-2.1-1.1c-2.1,3.4-6.6,11.3-1.1,14
		c2.8,1.4,6.7,0.8,9.5-0.5c2.6-1.2,4.5-3.4,5.6-6.1c1.1-2.8,1.1-6.1,0.1-8.9C358.2,360.6,355.8,361.1,356.4,362.5L356.4,362.5z"/>
	<path class="st0" d="M304.3,127.9c-0.7,1.1-1.1,2.3-1.5,3.5c-0.4,1.2-0.9,2.5-1.2,3.8c-0.8,3.7-0.5,7.8,0.4,11.4
		c0.7,3,2,6.1,4.4,8.2c2.1,1.8,4.5,2.1,7,1.3c3.9-1.3,7.5-3.6,11.6-4.2c1.6-0.2,0.8-2.3-0.6-2.1c-3.2,0.4-6.2,1.9-9.2,3.2
		c-2.1,0.9-4.5,2.1-6.6,0.7c-2.2-1.5-3.4-4.3-4.1-6.7c-1-3.3-1.3-7-0.8-10.4c0.2-1.4,0.7-2.7,1.1-4c0.4-1.2,0.8-2.5,1.4-3.6
		C307.2,127.7,305,126.7,304.3,127.9L304.3,127.9z"/>
	<path class="st0" d="M317.7,139c0-3.1-0.7-6.4-3.3-8.3c-1.4-1.1-2.9-1.3-4.6-1.5c-0.9-0.1-1.7-0.7-2.5-1.2
		c-0.5-0.3-1.1-0.6-1.7-0.7c-0.3,0-0.7,0.1-0.9,0c-0.4-0.2-0.4-1.1-0.3-1.5c0.1-1.7,1.5-2.8,1.5-4.5c0,0.5,0.1-0.7,0.1-0.6
		c0.1-0.4,0.3-0.6,0.8-0.8c1.4-0.3,3,0.3,4.3,0.8c2,0.8,4,1.9,6.1,2.4c1,0.3,2.2,0.5,3.2-0.1c0.7-0.4,1-1.1,1.1-1.9
		c0-0.3,0-0.6,0-0.8c0-0.3,0-0.5,0-0.5c0,0-0.5,0.4-0.5,0.4c0,0-0.1-0.1,0.1,0c0.4,0.3,0.8,0.4,1.2,0.8c1.3,1.2,2.3,2.8,3.3,4.3
		c1.2,1.7,3.1,3.5,3.5,5.7c0.3,1.5-0.2,3-0.5,4.4c-0.5,1.8-0.9,3.6-0.9,5.4c0,2.4,0.6,4.6,1.6,6.7c0.6,1.3,2.8,0.3,2.1-1.1
		c-1-2-1.4-4.2-1.3-6.5c0.1-1.6,0.6-3.2,1-4.8c0.4-1.4,0.6-2.9,0.4-4.4c-0.3-2-1.5-3.4-2.6-5c-1.3-1.8-2.5-3.6-3.9-5.2
		c-0.9-1-1.9-2.1-3.2-2.4c-0.9-0.2-1.9-0.1-2.4,0.8c-0.4,0.6-0.2,1.3-0.2,2c0,0.1,0,0.2,0,0.4c0-0.1-0.1,0,0,0c-0.1,0,0.1,0,0.1,0
		c0-0.1,0.2,0.1-0.1,0c-0.1,0,0,0-0.1,0c-1.9-0.2-3.7-1.2-5.5-2c-2.4-1-6.4-2.7-8.7-0.7c-0.6,0.5-0.9,1.2-1,2c0,0.1,0,1.3,0,1.3
		c0-0.2,0-0.3,0-0.5c0,0.1-0.1,0.2-0.1,0.3c-0.1,0.2-0.2,0.4-0.3,0.6c-0.2,0.4-0.5,0.8-0.7,1.3c-0.4,1-0.5,2.3-0.4,3.4
		c0.1,0.9,0.6,1.7,1.4,2.2c0.3,0.2,0.7,0.3,1.1,0.4c0.2,0,0.4,0,0.6,0c0.2,0,0.4-0.1,0.6-0.1c-0.1,0-0.2,0-0.3,0
		c1.4,0.7,2.7,1.8,4.3,1.8c0.7,0,0.8,0,1.4,0.1c3.3,0.8,4.2,4.4,4.2,7.5C315.2,140.4,317.7,140.4,317.7,139L317.7,139z"/>
	<path class="st0" d="M317.6,158.2c3.5-3,7-5.9,10.6-8.9c-0.7-0.2-1.4-0.3-2-0.5c0.3,0.6,0.5,1.2,0.8,1.8c0.4,0.9,1.7,1.1,2.2,0.3
		c1.8-2.8,5.3-4.8,8.3-6.1c4.7-2,10.4-2.6,14.3-6.2c0.6-0.6,1.2-1.2,1.7-1.9c0.2-0.3,0.5-0.6,0.6-0.9c0.1-0.2,0.2,0,0,0
		c-0.3,0-0.5,0.4-1.2,0.1c-0.3-0.2-0.3-0.5-0.3-0.3c0,0.1,0.1,0.3,0.1,0.4c0,0.2,0.1,0.8,0.1,1.3c0.2,3,0.3,6,0.6,9
		c0.3,2.5,0.6,5.9,2.5,7.7c0.9,0.8,2.1,1.1,3.2,0.8c0.6-0.2,1.2-0.5,1.7-0.8c0.4-0.2,0.7-0.5,1.1-0.7c0.1-0.1,0.3-0.2,0.4-0.2
		c0.2-0.1,0.3-0.3,0.2-0.1c0.3-0.4-0.8-1.4-1.2-1.1c-0.2,0.1,0.2-0.2,0,0c-0.2,0.2-0.3,0.4-0.4,0.6c-0.5,0.7-1,1.4-1.5,2
		c-1.3,1.8-2.6,3.6-3.8,5.5c-1.3,2.1-2.4,4.4-3,6.8c-0.4,1.8-0.7,3.8-0.9,5.6c-0.7,5.1-1,10.3-0.8,15.4c0.2,5.1,0.9,10.4,3,15.1
		c2.3,5.2,7.2,8.7,9.1,14.1c0.6,1.7,0.9,3.7-0.1,5.3c-0.9,1.5-2.5,2.5-4.1,3.2c-3.9,1.8-8.2,2.8-12.3,3.9c-4.4,1.2-8.7,2.2-13.1,3.4
		c-1.3,0.4-2.7,0.7-4,1.2c-1,0.4-1.9,1-2.8,1.6c-3.6,2.2-7.1,4.5-10.9,6.3c-1.5,0.7-3.1,1.5-4.8,1.7c-0.2,0-0.7,0-0.7,0
		c-0.2,0-0.3-0.1-0.3-0.1c-0.3-0.3-0.5-1.1-0.6-1.7c-0.4-2.3-0.2-4.8,0-7.1c0.2-2.9,0.5-5.9,0.8-8.8c0.3-2.7,0.5-5.4,1.2-8
		c0.5-1.8,0.5-3.7,0.4-5.6c-0.1-5.2-0.7-10.4-1.2-15.6c-0.2-2.1-0.4-4.2-0.5-6.3c0-0.7-0.6-1.1-1.2-1.1c-3.8-0.3-7.7-0.6-11.4-1.5
		c-1.5-0.4-2.2,1.7-0.6,2.1c3.9,1,8,1.3,12,1.6c-0.4-0.4-0.8-0.7-1.2-1.1c0.2,5.1,0.9,10.2,1.3,15.2c0.2,2.6,0.4,5.1,0.4,7.7
		c0,1,0,2-0.2,3c-0.1,0.9-0.4,1.7-0.6,2.6c-0.6,2.9-0.7,6-1.1,9c-0.3,3-0.6,6-0.7,9.1c-0.1,2.9-0.6,8.7,3.6,8.8
		c1.8,0,3.5-0.7,5.1-1.4c2.1-0.9,4.1-2,6-3.1c1.9-1.1,3.7-2.2,5.6-3.4c1.1-0.7,2.2-1.5,3.4-2c0.2-0.1,0.1,0,0.4-0.2
		c0.3-0.1,0.6-0.2,0.9-0.3c0.8-0.2,1.6-0.5,2.4-0.7c2.1-0.6,4.2-1.1,6.3-1.6c4.9-1.2,9.8-2.5,14.6-4c3.5-1.1,7.8-2.4,9.9-5.7
		c2.7-4.4-0.5-9.8-3.2-13.4c-1.8-2.4-3.9-4.4-5.2-7.1c-1.2-2.3-1.9-4.8-2.3-7.3c-1.1-5.5-1.1-11.2-0.7-16.8c0.2-2.4,0.4-4.9,0.8-7.3
		c0.3-2.1,0.6-4.2,1.3-6.2c1.6-4.3,4.6-7.9,7.2-11.6c0.6-0.9,1.7-2.6,0-3c-1.4-0.3-2.8,1.2-3.9,1.7c-0.3,0.1-0.3,0.1-0.6,0.2
		c0,0-0.3,0-0.3,0c-0.1,0-0.4-0.2-0.6-0.5c-0.7-1-1-2.3-1.2-3.5c-0.6-3.2-0.7-6.5-0.9-9.7c-0.1-1.3,0.2-5.8-2.3-5.2
		c-0.6,0.1-0.9,0.6-1.2,1c-0.5,0.7-1,1.4-1.6,2c-1.5,1.4-3.5,2.3-5.4,3c-3.2,1.2-6.6,2-9.7,3.4c-2.3,1.1-4.4,2.5-6.2,4.2
		c-0.7,0.7-1.4,1.4-1.9,2.2c0.7,0.1,1.5,0.2,2.2,0.3c-0.3-0.6-0.5-1.2-0.8-1.8c-0.4-0.8-1.3-1.1-2-0.5c-3.5,3-7,5.9-10.6,8.9
		C314.7,157.7,316.6,159.1,317.6,158.2L317.6,158.2z"/>
</g>
</svg>
