<?xml version="1.0" encoding="utf-8"?>
<!-- Generator: Adobe Illustrator 27.5.0, SVG Export Plug-In . SVG Version: 6.00 Build 0)  -->
<svg version="1.1" xmlns="http://www.w3.org/2000/svg" xmlns:xlink="http://www.w3.org/1999/xlink" x="0px" y="0px"
	 viewBox="0 0 240 240" style="enable-background:new 0 0 240 240;" xml:space="preserve">
<style type="text/css">
	.st0{fill:#FFFFFF;}
	.st1{fill:#EC6500;}
</style>
<g id="Layer_1">
	<rect class="st0" width="240" height="240"/>
</g>
<g id="Layer_2">
	<g>
		<g>
			<path class="st1" d="M143,220c-22.8,0-55.6-4-78.7-14.6l-2.9-1.4c-0.7-0.4-1.5-0.5-2.3-0.5c-8.4,0.3-14.9,0.8-19.6,1.3
				c-2.7,0.2-5.2-1.7-5.5-4.5c-0.3-2.7,1.7-5.2,4.5-5.5c4.8-0.5,11.5-1,20.2-1.3c2.7-0.1,5,0.4,7.2,1.5l2.6,1.2
				c26.4,12.1,67.7,14.9,87.4,13.1c2.5-0.2,4.6-0.5,6.3-0.9c0.6-0.1,1.2-0.1,1.8-0.1c0.1,0,7.4,1.1,13.7,1.1c2.8,0,5.4-1.1,7.3-3
				c2-2,3.1-4.7,3.1-7.5c0-2.4-0.9-4.6-2.5-6.5c-1.1-1.3-1.5-3-1-4.6c0.4-1.6,1.7-2.9,3.3-3.4c5.1-1.7,8.5-6.3,8.5-11.7
				c0-3.2-1.3-6.3-3.5-8.6c-1.2-1.2-1.7-2.9-1.3-4.5s1.5-3,3.1-3.6c4.7-1.8,7.8-6.4,7.8-11.4c0-3.6-1.6-7.1-4.4-9.4
				c-1.2-1-1.9-2.6-1.8-4.3c0.1-1.6,1.1-3.1,2.5-3.9c3.8-2.2,6.2-6.3,6.2-10.7c0-3.3-1.3-6.4-3.6-8.7c-2.3-2.3-5.4-3.6-8.7-3.6
				h-23.6c-0.9,0-2.4,0.2-3.9,0.4c-6.1,0.8-11.3,1.5-14.1-2.2c-1.4-1.8-1.7-4.1-0.7-6.4c0.6-1.8,4.2-13.1,6.3-16.9l4.3-11.1
				c3.1-10.7,2.1-27.1-5-35.2c-2.2-2.5-3.3-2.8-3.3-2.8c-1.2,1.3-3.2,10.6-4.2,15.6l-0.5,2.3c-2.2,10.1-4.4,14.5-11.3,22.6
				c-5.8,6.7-13.7,14.7-21.9,22.1c-9.3,8.4-44,29.3-47.7,31c-0.5,0.2-1.1,0.4-1.7,0.4l-34.6,2.7c-2.6,0.2-5.2-1.8-5.4-4.6
				c-0.2-2.7,1.8-5.2,4.6-5.4l33.6-2.6c5.7-3.1,36.4-21.7,44.4-29c7.9-7.1,15.5-14.8,21-21.2c5.9-6.8,7.3-9.7,9.1-18.2l0.5-2.2
				c2.3-11,4.5-21.3,11.9-23.3c6.2-1.7,11.2,4,12.8,5.8c9.9,11.2,11,31.1,7,45.1l-4.7,12.2c-1.1,2.1-3,7.2-4.5,11.6
				c1-0.1,1.9-0.2,2.6-0.3c2-0.3,3.9-0.5,5.2-0.5h23.6c6,0,11.6,2.3,15.8,6.5c4.2,4.2,6.5,9.8,6.5,15.8c0,5.9-2.4,11.5-6.4,15.6
				c2.5,3.7,3.9,8,3.9,12.6c0,7.1-3.3,13.5-8.7,17.7c1.7,3.2,2.7,6.8,2.7,10.6c0,7.6-3.8,14.4-9.8,18.5c1,2.4,1.6,4.9,1.6,7.5
				c0.1,5.6-2,10.8-6,14.7c-3.8,3.9-9,6-14.4,6c-5.8,0-12-0.8-14.3-1.1c-1.9,0.4-4.1,0.7-6.6,0.9C152.8,219.8,148.2,220,143,220z
				 M159.6,99.3c0,0,0,0.1,0,0.1C159.6,99.4,159.6,99.3,159.6,99.3z"/>
		</g>
	</g>
</g>
</svg>
