<?xml version="1.0" encoding="utf-8"?>
<!-- Generator: Adobe Illustrator 27.3.1, SVG Export Plug-In . SVG Version: 6.00 Build 0)  -->
<svg version="1.1" xmlns="http://www.w3.org/2000/svg" xmlns:xlink="http://www.w3.org/1999/xlink" x="0px" y="0px"
	 viewBox="0 0 457.5 457.2" style="enable-background:new 0 0 457.5 457.2;" xml:space="preserve">
<style type="text/css">
	.st0{fill:#EC6500;}
</style>
<g id="Layer_1">
</g>
<g id="Layer_2">
	<g>
		<path class="st0" d="M151.5,146.8c-0.9,16.2,2.8,32.6,9.1,47.4c6.5,15.2,16.1,29.6,29.4,39.6c5.4,4,11.1,7.3,17.9,8.2
			c6.2,0.9,12.5,0,18.4-2.1c12.7-4.6,23.5-14.1,31-25.2c7.1-10.6,11.9-23.8,9.5-36.6c-0.3-1.5-0.7-2.9-1.2-4.3
			c-0.6-1.7-3.7-1.1-3.2,0.8c3.5,11.8,0.3,24.2-5.7,34.7c-6.4,11.1-16.1,20.8-27.8,26.3c-5.3,2.5-11.1,4-16.9,3.9
			c-5.9-0.1-11.3-2.1-16.2-5.3c-13.3-8.9-23.2-21.8-30.1-36.1c-6.8-14.2-11-29.9-11.3-45.7c0-1.8,0-3.6,0.1-5.4
			C154.6,145.1,151.6,145.1,151.5,146.8L151.5,146.8z"/>
		<path class="st0" d="M188.7,210.2c3.9,4.6,10.1,6,15.9,5.8c6.4-0.2,12.9-2.3,18-6.2c2.7-2.1,4.9-4.8,6.1-7.9
			c0.7-1.9-2.5-2.5-3.2-0.8c-1.9,5-6.7,8.2-11.5,10.1c-4.9,1.9-10.7,2.7-15.9,1.4c-2.5-0.6-5-1.8-6.6-3.7c-0.5-0.6-1.4-0.9-2.1-0.5
			C188.6,208.7,188.2,209.6,188.7,210.2L188.7,210.2z"/>
		<path class="st0" d="M189.2,196.2c3.3,1.6,7,1.9,10.5,0.8c3.5-1.1,6.5-3.3,9.1-5.8c1.4-1.4-0.9-3.2-2.3-2
			c-4.2,4.1-9.9,7.5-15.8,4.7C189.2,193.1,187.4,195.3,189.2,196.2L189.2,196.2z"/>
		<path class="st0" d="M217.4,153.2c0,1.6,0.4,3.1,1.2,4.5c0.6,1.1,1.6,2,2.5,2.9c0.6,0.6,1.7,0.5,2.3,0c0.6-0.6,0.6-1.4,0-2
			c-0.4-0.4-0.8-0.8-1.1-1.2c-0.2-0.2,0.2,0.3,0,0c0,0-0.1-0.1-0.1-0.1c-0.1-0.1-0.2-0.2-0.3-0.3c-0.2-0.2-0.3-0.5-0.5-0.7
			c-0.1-0.1-0.1-0.2-0.2-0.4c0-0.1-0.1-0.2-0.1-0.2c0.1,0.1,0.1,0.3,0,0.1c-0.1-0.3-0.2-0.6-0.3-0.8c0-0.2-0.1-0.3-0.1-0.5
			c0-0.1,0-0.2,0-0.2c-0.1-0.3,0,0.2,0,0c0-0.4-0.1-0.8-0.1-1.1C220.5,151.5,217.4,151.5,217.4,153.2L217.4,153.2z"/>
		<path class="st0" d="M172.8,165.5c0.1,0.1,0.2,0.2,0.3,0.3C173,165.6,172.9,165.6,172.8,165.5c0.3,0.4,0.6,0.7,0.8,1.2
			c-0.1-0.1-0.1-0.2-0.2-0.3c0.2,0.5,0.4,1,0.5,1.5c0-0.1,0-0.2-0.1-0.4c0.1,0.6,0.1,1.3,0.1,1.9c0,0.8,0.8,1.4,1.6,1.4
			c0.8,0,1.6-0.5,1.6-1.4c0-0.9,0-1.9-0.3-2.8c-0.3-1.2-1-2.1-1.8-3c-0.6-0.6-1.7-0.5-2.2,0c-0.3,0.3-0.5,0.6-0.5,1
			C172.4,164.9,172.6,165.2,172.8,165.5L172.8,165.5z"/>
		<path class="st0" d="M214.9,130.2c1.4-0.7,2.8-1.4,4.3-1.8c1.4-0.4,2.5-0.4,3.8,0.2c0.7,0.3,1.7,0.2,2.1-0.5
			c0.4-0.7,0.1-1.5-0.6-1.9c-1.9-0.9-3.9-1-5.9-0.6c-1.9,0.4-3.6,1.4-5.3,2.2c-0.7,0.3-1,1.1-0.5,1.8
			C213.3,130.4,214.2,130.6,214.9,130.2L214.9,130.2z"/>
		<path class="st0" d="M200.5,100.6c-11.3,6.2-21.8,13.8-30.9,22.9c-9.2,9.1-17,19.7-22.7,31.4c-3,6.1-5.4,12.5-7.2,19.1
			c-1.7,6.1-2.6,12.7-1.1,18.9c1.1,4.6,3.7,8.5,6.3,12.3c3.6,5.2,7.1,10.8,9,16.9c2.1,6.7,1.8,13.8,1.5,20.7
			c-0.4,7.6-0.7,15.1,0.9,22.6c0.4,2,0.9,3.9,1.6,5.9c0.6,1.7,3.7,1.1,3.1-0.8c-2.2-7.4-2.7-14.9-2.5-22.6
			c0.2-6.9,0.9-13.9-0.1-20.9c-1-6.7-4-12.9-7.5-18.7c-2.5-4-5.7-7.7-7.7-12.1c-2.3-5-2.3-10.6-1.6-16c0.4-3.4,1.6-6.7,2.6-10
			c1-3.2,2.2-6.3,3.4-9.3c5-11.8,12.2-22.7,20.9-32.1c8.6-9.2,18.6-17.2,29.4-23.7c1.3-0.8,2.7-1.6,4.1-2.4
			C203.8,102,202.1,99.7,200.5,100.6L200.5,100.6z"/>
		<path class="st0" d="M211.2,102.5c3.9,7.7,11.8,12.4,19.3,16c8,3.8,16.4,6.8,24.3,11c7.2,3.8,14.1,8.5,19.4,14.8
			c5,6,8.3,13,9.8,20.6c1.8,9.2,1.1,18.5-1.3,27.5c-2.5,9.4-6.4,18.4-7.8,28.1c-1.5,9.9,0,20.3,5.5,28.8c3.7,5.7,9.5,8.7,16.2,9.4
			c5.7,0.6,11.5-0.3,17.2,0.2c2,0.2,4.5,0.7,6.1,1.8c2.1,1.5,3.3,3.9,4,6.4c0.5,1.8,0.7,3.7,0.9,5.6c0.1,1.9,3.5,2,3.4,0
			c-0.3-6.2-2-13.1-8.2-15.7c-5.1-2.1-11-1.4-16.4-1.3c-5.7,0.1-11.7-0.2-16.3-4c-3.2-2.6-5.2-6.3-6.7-10.1
			c-1.9-4.8-2.8-9.8-2.6-14.9c0.3-9.7,3.9-18.9,6.7-28.1c1.5-4.7,2.7-9.4,3.4-14.3c0.7-4.6,0.7-9.4,0.3-14
			c-0.7-8.1-3.1-15.9-7.5-22.8c-4.4-6.8-10.5-12.3-17.3-16.7c-7.4-4.8-15.6-8.2-23.7-11.6c-7.9-3.3-16.6-6.8-22.5-13.4
			c-1.3-1.4-2.4-3-3.3-4.8C213.1,99.5,210.3,100.7,211.2,102.5L211.2,102.5z"/>
		<path class="st0" d="M260.4,173.9c4.8,1.6,9.7-0.2,12.2-4.6c2.7-4.8,2.7-11.2,1.1-16.4c-0.6-1.8-3.6-1.1-3.2,0.8
			c1.1,4.5,1.5,9.5-0.5,13.8c-0.8,1.6-1.9,3-3.5,3.8c-1.6,0.8-3.5,0.6-5.2,0c-0.8-0.2-1.7,0.2-2,1C259,173,259.6,173.6,260.4,173.9
			L260.4,173.9z"/>
		<path class="st0" d="M155.4,146.4c2.3-1.5,4.6-2.7,7.1-3.7c2.3-1,4.6-1.7,7-2.5c0.7-0.3,1.4-0.9,1.1-1.7c-0.2-0.8-1.2-1.2-2-1
			c-5.2,1.6-10.3,3.6-14.8,6.6c-0.6,0.4-1,1.1-0.6,1.9C153.7,146.5,154.8,146.8,155.4,146.4L155.4,146.4z"/>
		<path class="st0" d="M262.4,195c0,7.7-0.5,15.3-0.7,23c-0.1,3.9-0.2,7.8-0.1,11.8c0.1,4,0,8.3,0.8,12.3c0.3,1.6,3.3,1.3,3.3-0.4
			c0-2-0.3-4-0.4-6c-0.1-2-0.2-4-0.2-5.9c-0.1-4,0-8,0-12c0.2-7.6,0.5-15.1,0.5-22.7C265.5,193.3,262.5,193.3,262.4,195L262.4,195z"
			/>
		<path class="st0" d="M201.5,240.8c4.2,5.1,3,13.1,2,19c-1.3,7.5-3.4,14.9-3.8,22.6c-0.2,3.3-0.1,7.1,1.8,9.9
			c0.9,1.2,3.8,0.6,3-1.1c-2.6-6-1.1-12.9,0.1-19.1c1.5-7.5,3.6-15.2,3.1-22.9c-0.2-3.5-1.1-7.1-3.4-9.9c-0.5-0.6-1.4-0.9-2.2-0.5
			C201.5,239.2,201,240.1,201.5,240.8L201.5,240.8z"/>
		<path class="st0" d="M208.9,289.3c12.9-14,28.1-25.6,43.4-36.9c4.3-3.2,8.7-6.4,13-9.6c0.7-0.5,0.6-1.6,0-2.1
			c-0.7-0.6-1.7-0.5-2.4,0c-15.2,11.4-30.9,22.4-44.9,35.4c-3.9,3.6-7.7,7.4-11.3,11.3C205.2,288.8,207.6,290.7,208.9,289.3
			L208.9,289.3z"/>
		<path class="st0" d="M199.2,241.9c-8.4,1.8-15.3,6.9-20.3,13.8c-5,6.9-8.1,14.9-11.2,22.7c-1.6,4.3-3.3,8.6-5.1,12.7
			c-0.8,1.7,1.9,2.3,2.9,1.5c4.9-3.8,10.8-8.4,17.3-8.4c6.9,0,12.7,5.5,17.3,10c1.4,1.4,4-0.6,2.4-2.2c-4.4-4.3-9.4-8.8-15.5-10.4
			c-5.1-1.3-10.2,0.1-14.7,2.5c-3.3,1.8-6.3,4-9.2,6.3c1,0.5,1.9,1,2.9,1.5c3.3-7.3,5.8-14.9,9-22.3c3.1-7.1,7.1-14.2,13.1-19.2
			c3.5-2.9,7.6-4.8,12-5.8C202.2,244.2,201.2,241.5,199.2,241.9L199.2,241.9z"/>
		<path class="st0" d="M204.8,294.2c4.5-5.8,10.5-11.8,17.9-13.5c5.6-1.3,10.7,1,14,5.7c2.5,3.6,3.8,7.8,4.7,12
			c0.2,1,1.8,1.4,2.6,0.9c3.1-2.1,5.8-4.8,8.4-7.5c3.8-4,7.3-8.3,10.6-12.7c3.4-4.6,6.4-9.4,8.8-14.5c1.9-4.1,3.6-8.7,3.4-13.3
			c-0.2-5-3.2-8.6-7.8-10.4c-1.7-0.6-3.2,2.1-1.4,2.8c3.3,1.4,5.3,3.6,5.6,7.1c0.3,4.2-1.2,8.3-2.9,12.1
			c-4.2,9.4-10.9,17.9-17.8,25.5c-1.6,1.8-3.3,3.5-5.1,5.2c-0.7,0.6-1.4,1.3-2.1,1.9c-0.3,0.3-0.6,0.5-1,0.8
			c-0.1,0.1-0.3,0.2-0.4,0.3c-0.1,0.1-0.6,0.4-0.2,0.2c0.9,0.3,1.7,0.6,2.6,0.9c-1.5-7.2-4.8-15.4-11.9-18.7
			c-6.5-3.1-13.8-1-19.5,2.9c-4.4,3-8.1,6.9-11.3,11.1C200.8,294.3,203.7,295.6,204.8,294.2L204.8,294.2z"/>
		<path class="st0" d="M302.8,263.3c1.5,2.1,2.6,4.5,2.7,7.2c0.1,2.6-0.4,5.2-1.2,7.7c-1.5,4.8-3.4,9.7-6.5,13.7
			c-4.4,5.6-11,6.9-17.6,8.3c-4.8,1.1-9.5,2.4-13.9,4.4c-1.2,0.5-1.1,2.2,0,2.8c6.3,3.2,11.9,7.4,17.7,11.3
			c-0.2-0.7-0.4-1.5-0.6-2.2c-9.3,12.7-20.9,23.1-33.6,32.3c-12.2,8.8-25.2,16.6-37.3,25.5c-7.3,5.4-14.2,11.2-20.7,17.6
			c-1.6,1.6,1.1,3.7,2.5,2.3c11.2-11.2,24.1-20.4,37.3-29.1c12.5-8.3,25.3-16.5,36.5-26.7c6.8-6.1,12.9-12.9,18.3-20.3
			c0.6-0.8,0.1-1.7-0.6-2.2c-5.8-3.9-11.4-8.1-17.7-11.3c0,0.9,0,1.8,0,2.8c4.2-1.9,8.5-3.1,12.9-4.1c3.6-0.8,7.2-1.5,10.6-2.9
			c8.8-3.5,12.9-12.1,15.7-20.6c1-3,1.7-6.2,1.5-9.3c-0.2-3.2-1.4-6.1-3.3-8.6C304.5,260.5,301.7,261.7,302.8,263.3L302.8,263.3z"/>
		<path class="st0" d="M240.7,295.1c-6.2,3.2-11.7,7.7-16.7,12.4c-5.9,5.6-11.3,11.9-16.2,18.4c-9.9,13.2-18.5,27.7-24.4,43.1
			c-1.4,3.7-2.6,7.4-3.6,11.2c-0.8,3.3-1.6,6.7-1.5,10.1c0,2,3.2,1.9,3.4,0c0.8-6.2,2.2-12.1,4.2-18c2.6-7.3,5.9-14.2,9.5-21
			c7.8-14.3,17.3-27.9,28.8-39.5c5.4-5.4,11.3-10.6,18-14.2C244.1,296.6,242.3,294.3,240.7,295.1L240.7,295.1z"/>
		<path class="st0" d="M191.7,286.8c-7.7,24-12.3,48.9-13.2,74.1c-0.3,7.4-0.4,14.9,0.3,22.3c0.2,1.8,3.3,1.9,3.3,0
			c0-6.5-0.2-13-0.1-19.5c0.2-6.4,0.5-12.7,1.2-19c1.2-12.4,3.3-24.8,6.2-37c1.6-6.8,3.5-13.5,5.5-20.2
			C195.3,285.8,192.2,285.1,191.7,286.8L191.7,286.8z"/>
		<path class="st0" d="M210.9,96.7c1.5-0.1,2.8-0.8,4.2-1.3c1.3-0.4,2.5-0.3,3.8-0.3c1.3,0,2.1-1.4,1.1-2.4
			c-1.6-1.6-3.2-3.2-4.8-4.8c-0.1,0.7-0.2,1.5-0.3,2.2c1.3-0.7,2.8-1.1,4-1.9c1.3-0.8,2.3-2,3-3.4c0.6-1.1-0.2-2-1.4-2.1
			c-0.6,0-1.9-1.2-2.5-1.7c-1-0.9-1.9-1.8-2.8-2.7c0,0.7,0,1.3,0,2c1-1,2-2,3-3c1.6-1.6-0.2-4.1-1.4-5.4c-0.1,0.7-0.2,1.5-0.3,2.2
			c1.1-0.5,2.1-1.1,3.2-1.6c0.9-0.5,1-1.5,0.3-2.2c-1-1.1-1.1-2.4-1.2-3.8c-0.1-1.8-3.1-1.8-3.2,0c-0.1,2.3,0.5,4.1,2.1,5.8
			c0.1-0.7,0.2-1.5,0.3-2.2c-1.1,0.5-2.1,1.1-3.2,1.6c-0.9,0.5-1,1.5-0.3,2.2c0.5,0.5,1.1,1.4,1.1,2.2c0.2-0.3,0.3-0.7,0.5-1
			c-1.1,1.1-2.1,2.1-3.2,3.2c-0.6,0.6-0.6,1.4,0,2c2,2,4.6,5,7.6,5.2c-0.5-0.7-0.9-1.4-1.4-2.1c-0.6,1.1-1.2,2-2.3,2.6
			c-1.1,0.7-2.4,1.1-3.6,1.7c-0.9,0.4-1,1.5-0.3,2.2c1.6,1.6,3.2,3.2,4.8,4.8c0.4-0.8,0.7-1.6,1.1-2.4c-1.3,0-2.7,0-4,0.3
			c-1.3,0.3-2.7,1.3-4.1,1.4C209,94.1,209,96.8,210.9,96.7L210.9,96.7z"/>
		<path class="st0" d="M218.5,66.1c15,2.8,29.2,8.9,41.3,18.1c11.6,8.9,21.2,20.1,29.2,32.3c8.7,13.4,15.9,28,21.9,42.9
			c7.1,17.6,12.1,36.1,15.9,54.7c3.8,18.8,6.4,37.9,8.5,57c0.3,2.4,0.5,4.7,0.8,7.1c0.2,2.2,4,2.2,3.8,0
			c-2.1-19.4-4.5-38.7-8.1-57.9c-3.6-19.1-8.3-38-15.1-56.2c-3.2-8.5-6.9-16.7-10.8-24.8c-3.3-6.9-7-13.7-11-20.2
			c-7.9-12.7-17.3-24.6-28.9-34.2c-11.8-9.8-25.6-16.7-40.6-20.2c-2-0.5-4-0.9-6-1.2C217.5,63.1,216.5,65.8,218.5,66.1L218.5,66.1z"
			/>
		<path class="st0" d="M307.5,270.4c9.4,2.4,18.8,5.1,27.8,8.6c9.4,3.7,19.3,8.2,26.5,15.5c3.4,3.4,5.5,7.3,6.7,11.9
			c0.4,1.6,3.5,1.3,3.3-0.4c-0.7-9.5-9.7-16.7-17.2-21.3c-9.5-5.8-20.2-9.7-30.8-12.9c-5.1-1.6-10.3-2.9-15.4-4.2
			C306.4,267.1,305.4,269.9,307.5,270.4L307.5,270.4z"/>
		<path class="st0" d="M368.4,304.4c-0.2,2.8-0.1,5.6-0.1,8.3c0,2,0,4,0,6c0,2.1,0,4.2-0.1,6.4c0,0.2,0,0.4,0,0.7c0,0.1,0,0.1,0,0.2
			c0-0.3,0.2-0.7,0.5-1.1c0.3-0.1,0.5-0.3,0.8-0.4c0,0,0,0,0,0c0.3,0,0.7,0,1,0c0,0,0,0,0,0c0.3,0.1,0.5,0.3,0.8,0.4
			c0.5,0.4,0.4,0.5,0.5,0.9c0.1,0.4,0,0.2,0,0.1c0-0.1,0-0.2,0-0.3c0-0.3,0-0.6,0-0.9c0-0.9,0-1.8-0.1-2.7c0-2-0.1-4.1-0.1-6.1
			c0-0.6,0.1-1.7-0.3-2.2c-0.5-0.6-1.3-1-2.1-0.8c-1.6,0.4-1.4,1.9-1.3,3.1c0.2,2,3.3,2,3.5,0c0-0.4,0.1-0.7,0.1-1.1
			c0-0.1,0-0.2,0-0.3c0,0,0,0,0-0.1c0,0-0.2,0.7-0.2,0.8c-0.4,0.3-0.7,0.5-1.1,0.8c0,0,0,0,0,0c-0.7-0.3-1.4-0.5-2.1-0.8
			c-0.2-0.2-0.3-1.2-0.2-0.6c0,0.2,0,0.4,0,0.6c0,0.7,0,1.4,0,2.1c0,1.8,0.1,3.6,0.1,5.4c0,0.7,0,1.4,0.1,2.1c0,0.6,0,1.2,0.3,1.7
			c0.7,1.1,2.5,1.1,3.2,0c0.2-0.3,0.2-0.5,0.3-0.9c0-0.2,0-0.3,0-0.5c0-1,0-1.9,0-2.9c0-5.1,0-10.1,0-15.2c0-1,0-2-0.1-3
			C371.7,302.4,368.6,302.4,368.4,304.4L368.4,304.4z"/>
		<path class="st0" d="M153,264.4c-8,0.7-16.1,2.9-23.7,5.5c-8.6,2.9-18,6.7-24.4,13.4c-2.9,3.1-5.2,7-5,11.4c0.1,1.9,3.2,1.9,3.3,0
			c0.4-7.6,7.6-12.6,13.7-16c7.9-4.3,16.6-7.2,25.3-9.3c3.7-0.9,7.5-1.7,11.2-2.3C155.2,266.9,154.8,264.3,153,264.4L153,264.4z"/>
		<path class="st0" d="M100.2,294c-4,5.8-7.6,12-11,18.2c-2,3.6-3.8,7.2-5.4,11c-1.3,3.2-2,6.3-1.9,9.7c0,0.6,0,1.1-0.1,1.7
			c0,0.1,0.1-0.4,0,0.1c0,0.2-0.1,0.3-0.1,0.5c-0.1,0.5-0.2,1-0.3,1.5c-0.1,1.7,2.4,1.9,3.2,0.8c1.5-2,0.8-4.9,1-7.2
			c0-0.1,0-0.3,0-0.4c0-0.1,0-0.2,0-0.3c0-0.4-0.1,0.3,0,0.1c0.1-0.4,0.2-0.8,0.2-1.2c0.3-1.1,0.6-2.1,1-3.2
			c1.2-3.4,2.8-6.6,4.5-9.8c3.6-6.8,7.7-13.3,11.5-20C104,293.7,101.2,292.5,100.2,294L100.2,294z"/>
		<path class="st0" d="M133.8,373.6c-0.8-2.8-1.8-5.7-2.6-8.5c-0.2-0.8-0.5-1.6-0.6-2.4c-0.1-0.3-0.1-0.6-0.2-0.9
			c-0.1-0.3,0,0.4,0-0.1c0-0.2,0-0.3-0.1-0.5c-0.1-1.3-0.1-2.7-0.1-4.1c0-2.5,0-5.1-0.1-7.6c-0.2-5.9-0.6-11.8-1.2-17.7
			c-0.2-2-3.7-2-3.5,0c0.7,8.3,1.3,16.5,1.3,24.8c0,3,0.1,5.7,0.9,8.6c0.9,3.1,1.9,6.2,3,9.2C131.3,376,134.3,375.5,133.8,373.6
			L133.8,373.6z"/>
		<path class="st0" d="M128.6,332.4c4.6-7.4,12.6-10.8,20.4-13.9c0.8-0.3,1-1.3,0.6-2c-0.5-0.8-1.5-0.8-2.3-0.5
			c-8.3,3.4-16.6,7.1-21.4,15.1C125,332.7,127.7,333.8,128.6,332.4L128.6,332.4z"/>
		<path class="st0" d="M149.7,316.9c-3.4-7.2-11.8-8.9-18.3-12.2c0.3,0.4,0.5,0.8,0.8,1.3c0-1-0.1-2.4,0-3.1c0.5-2,1.7-4.1,2.7-5.9
			c2.3-4,5.2-7.6,8.4-10.9c6.5-6.7,14.1-12.1,22.1-16.9c3.7-2.2,7.5-4.2,11.3-6.2c1.9-1,0.1-3.3-1.7-2.5
			c-7.9,3.7-15.4,8.4-22.4,13.5c-7.7,5.7-15.1,12.4-20.1,20.7c-1.3,2.2-2.4,4.4-3.3,6.8c-0.5,1.5-0.4,3-0.4,4.5c0,0.5,0.3,1,0.8,1.3
			c6,2.9,13.7,4.4,17.2,10.7C147.6,319.2,150.4,318.4,149.7,316.9L149.7,316.9z"/>
		<path class="st0" d="M140.3,185.3c-5.7-13.1-6.9-28-4.8-42.1c2-13.6,7.4-27.5,17.2-37.4c5.1-5.1,11.4-8.9,18.5-10.7
			c2.2-0.5,1.1-3.4-0.9-2.9c-13.8,3.3-24.2,13.8-30.4,26.1c-6.8,13.4-9.5,28.9-8.4,43.8c0.6,8.2,2.4,16.4,5.9,23.9
			C138,187.6,141.1,187,140.3,185.3L140.3,185.3z"/>
		<path class="st0" d="M159,91.5c9.3-7.9,20-16.8,33-15.9c4.2,0.3,7.9,1.8,11.7,3.4c1.7,0.7,3.6-1.4,1.7-2.5
			c-6.3-3.6-14.3-4.7-21.4-3.2c-6.7,1.4-12.6,4.8-18,8.8c-3.2,2.3-6.2,4.9-9.1,7.6C155.3,90.9,157.6,92.6,159,91.5L159,91.5z"/>
		<path class="st0" d="M179.5,70.8c5.7-2.8,11.5-5.7,17.7-7.3c3-0.7,6.2-1.2,9.3-0.7c1.5,0.3,2.9,0.7,4.2,1.4c1.5,0.8,2.6,2,3.9,3.1
			c1.1,1.1,3.6-0.2,2.5-1.7c-3.3-4.6-9.5-6.3-14.9-5.9c-5.7,0.4-11.3,2.4-16.4,4.8c-2.7,1.2-5.2,2.6-7.9,3.9
			C176.2,69.4,178,71.5,179.5,70.8L179.5,70.8z"/>
	</g>
</g>
</svg>
