<?xml version="1.0" encoding="utf-8"?>
<!-- Generator: Adobe Illustrator 27.2.0, SVG Export Plug-In . SVG Version: 6.00 Build 0)  -->
<svg version="1.1" xmlns="http://www.w3.org/2000/svg" xmlns:xlink="http://www.w3.org/1999/xlink" x="0px" y="0px"
	 viewBox="0 0 24 24" style="enable-background:new 0 0 24 24;" xml:space="preserve">
<style type="text/css">
	.st0{fill:#EC6500;}
	.st1{opacity:0;fill:#FFFFFF;}
</style>
<g id="Artwork">
	<path class="st0" d="M21.5,15c-0.9-0.6-2.4,0-3.9,0.6c-0.6,0.2-1.3,0.5-1.6,0.5c0,0,0,0,0,0c-0.2-0.1-0.5-0.3-0.8-0.3
		c-0.4-0.1-0.8-0.1-1.3-0.2l-0.1,0c-0.3,0-0.6-0.1-0.9-0.1c-0.4-0.1-0.7-0.1-1.1-0.2l-0.2,0c-0.4-0.1-0.8-0.1-1.1-0.2l-0.1,0
		c-0.5-0.1-1-0.1-1.5-0.1c-0.3,0-0.7,0.2-1.1,0.5c-1.7,1.3-3.7,2.1-5.4,2.7c-0.3,0.1-0.4,0.4-0.3,0.6c0.1,0.2,0.3,0.3,0.5,0.3
		c0.1,0,0.1,0,0.2,0c1.8-0.6,3.9-1.4,5.7-2.8C8.6,16.1,8.8,16,8.9,16c0.4,0,0.9,0,1.4,0.1c0.3,0.1,0.7,0.1,1,0.2l0.3,0
		c0.4,0.1,0.7,0.1,1.1,0.2c0.3,0.1,0.7,0.1,1,0.1l0,0c0.4,0,0.8,0.1,1.2,0.2c0.3,0.1,0.5,0.1,0.5,0.2c0,0.4-0.1,0.6-0.5,0.8
		c-0.6,0.2-2.3,0.1-3.2,0.1l0,0c-0.4,0-0.7,0-0.9,0c-0.3,0-0.5,0.2-0.5,0.5c0,0.3,0.2,0.5,0.5,0.5c0.2,0,0.5,0,0.9,0l0,0
		c1.2,0.1,2.8,0.1,3.5-0.1c0.8-0.2,1.2-0.8,1.2-1.6c0.4-0.1,0.9-0.3,1.5-0.5c1-0.4,2.6-1,3-0.7c0,0,0.1,0.1,0.1,0.3
		c-0.2,0.4-2.5,1.9-6.3,3.9c-0.3,0.2-0.5,0.2-0.9,0.2l-0.7,0c-1.1-0.1-2.3-0.1-3.4-0.2c-1,0-2.4,0.1-3.4,1c-0.1,0.1-0.2,0.2-0.2,0.3
		c0,0.1,0,0.3,0.1,0.4C6.4,21.9,6.5,22,6.6,22c0.1,0,0.2,0,0.3-0.1c0.6-0.5,1.5-0.8,2.8-0.8c1.1,0,2.2,0.1,3.3,0.1l0.7,0
		c0.6,0,1-0.1,1.4-0.3c6.8-3.5,6.8-4.4,6.8-4.7C22,15.6,21.7,15.2,21.5,15z M8.2,13.6h6.7c0.3,0,0.5-0.2,0.5-0.5s-0.2-0.5-0.5-0.5
		H8.2c-0.3,0-0.5-0.1-0.7-0.3c-0.2-0.2-0.2-0.5-0.2-0.8l0.8-4.8C8.2,6.2,8.6,5.9,9,5.9h0.3V7c0,0.3,0.2,0.5,0.5,0.5s0.5-0.2,0.5-0.5
		V5.9h3.9V7c0,0.3,0.2,0.5,0.5,0.5s0.5-0.2,0.5-0.5V5.9h0.3c0.4,0,0.8,0.3,0.9,0.7l0.9,5.5c0,0.3,0.3,0.5,0.6,0.4
		c0.3,0,0.5-0.3,0.4-0.6l-1-5.5c-0.2-0.9-1-1.5-1.9-1.5h-0.3c0-1.6-1.3-2.8-2.9-2.8c-1.6,0-2.9,1.3-2.9,2.8H9
		c-0.9,0-1.7,0.6-1.9,1.6l-0.8,4.8c-0.1,0.6,0,1.2,0.4,1.6C7.1,13.3,7.6,13.6,8.2,13.6z M12.2,3c1,0,1.9,0.8,1.9,1.8h-3.9
		C10.4,3.8,11.2,3,12.2,3z"/>
	<rect class="st1" width="24" height="24"/>
</g>
<g id="PICTOS">
</g>
</svg>
