<?xml version="1.0" encoding="utf-8"?>
<!-- Generator: Adobe Illustrator 27.2.0, SVG Export Plug-In . SVG Version: 6.00 Build 0)  -->
<svg version="1.1" xmlns="http://www.w3.org/2000/svg" xmlns:xlink="http://www.w3.org/1999/xlink" x="0px" y="0px"
	 viewBox="0 0 24 24" style="enable-background:new 0 0 24 24;" xml:space="preserve">
<style type="text/css">
	.st0{fill:#EC6500;}
	.st1{opacity:0;fill:#FFFFFF;}
</style>
<g id="Artwork">
	<path class="st0" d="M22,8.9V5.1c0-0.3-0.2-0.5-0.5-0.5S21,4.8,21,5.1v3.3H3V5.6h15.5c0.3,0,0.5-0.2,0.5-0.5s-0.2-0.5-0.5-0.5h-16
		C2.2,4.6,2,4.8,2,5.1v13.9c0,0.3,0.2,0.5,0.5,0.5h19c0.3,0,0.5-0.2,0.5-0.5V8.9C22,8.9,22,8.9,22,8.9z M3,12.7h5.4v2.4H3V12.7z
		 M9.4,12.7h3.2v2.4H9.4V12.7z M12.6,11.7H9.4V9.4h3.2V11.7z M13.6,9.4h3.2v2.3h-3.2V9.4z M12.6,16.2v2.3H9.4v-2.3H12.6z M13.6,16.2
		h3.2v2.3h-3.2V16.2z M13.6,15.2v-2.4h3.2v2.4H13.6z M17.8,12.7H21l0,2.4h-3.2V12.7z M21,10.4l0,1.3h-3.2V9.4H21L21,10.4
		C21,10.4,21,10.4,21,10.4z M8.4,9.4v2.3H3V9.4H8.4z M3,16.2h5.4v2.3H3V16.2z M17.8,18.4v-2.3H21l0,2.3H17.8z"/>
	<rect class="st1" width="24" height="24"/>
</g>
<g id="PICTOS">
</g>
</svg>
