<?xml version="1.0" encoding="utf-8"?>
<!-- Generator: Adobe Illustrator 27.5.0, SVG Export Plug-In . SVG Version: 6.00 Build 0)  -->
<svg version="1.1" xmlns="http://www.w3.org/2000/svg" xmlns:xlink="http://www.w3.org/1999/xlink" x="0px" y="0px"
	 viewBox="0 0 24 24" style="enable-background:new 0 0 24 24;" xml:space="preserve">
<style type="text/css">
	.st0{fill:#EC6500;}
</style>
<g id="Layer_1">
	<path class="st0" d="M18.3,11.1c-0.2,0-0.3,0-0.5,0l-0.3-1c0.4-0.1,0.8-0.1,1.1-0.1c0.6,0,1.2-0.5,1.3-1.1c0.2-1.4-0.4-2.5-1.6-3.3
		c-0.6-0.4-1.5-0.3-1.9,0.4l-1.1,1.5c-0.1,0.1-0.3,0.2-0.4,0.2c-1.7-0.2-3.1,0.4-4.2,1.6c-0.1,0.1-0.2,0.1-0.3,0.1H9.1
		c-0.1,0-0.2,0-0.3-0.1L8.5,9.1C8,8.7,7.2,8.4,6.6,8.4H4.1c-0.3,0-0.5,0.2-0.5,0.5s0.2,0.5,0.5,0.5h2.5c0.3,0,0.9,0.2,1.1,0.4
		l0.3,0.3c0.3,0.2,0.6,0.4,1,0.4h1.3c0.4,0,0.8-0.2,1.1-0.5c0.6-0.6,1.5-1.5,3.4-1.3c0.5,0.1,1.1-0.2,1.3-0.6l1.1-1.5
		c0.1-0.2,0.4-0.2,0.5-0.1c0.9,0.6,1.3,1.4,1.2,2.4c0,0.1-0.1,0.2-0.2,0.2c0,0,0,0,0,0c-1.4,0-4.7,0.4-5.8,4.6
		c-0.1,0.4-0.4,0.6-0.8,0.6H9.3c-0.2-1.8-1.8-3.2-3.6-3.2c-2,0-3.7,1.6-3.7,3.7s1.6,3.7,3.7,3.7c1.8,0,3.4-1.4,3.6-3.2h2.8
		c0.8,0,1.5-0.6,1.7-1.3c0.5-2,1.6-3,2.7-3.4l0.3,0.9c-1.3,0.6-2.2,1.9-2.2,3.4c0,2,1.6,3.7,3.7,3.7s3.7-1.6,3.7-3.7
		S20.3,11.1,18.3,11.1z M5.7,17.4c-1.5,0-2.7-1.2-2.7-2.7c0-1.5,1.2-2.7,2.7-2.7c1.3,0,2.4,0.9,2.6,2.2H5.7c-0.3,0-0.5,0.2-0.5,0.5
		s0.2,0.5,0.5,0.5h2.6C8.1,16.5,7,17.4,5.7,17.4z M18.3,17.4c-1.5,0-2.7-1.2-2.7-2.7c0-1,0.6-1.9,1.5-2.4l0.7,2.5
		c0.1,0.2,0.3,0.4,0.5,0.4c0,0,0.1,0,0.1,0c0.3-0.1,0.4-0.3,0.3-0.6l-0.7-2.5c0.1,0,0.1,0,0.2,0c1.5,0,2.7,1.2,2.7,2.7
		C21,16.2,19.8,17.4,18.3,17.4z"/>
</g>
<g id="Layer_2">
</g>
</svg>
