<?xml version="1.0" encoding="utf-8"?>
<!-- Generator: Adobe Illustrator 25.1.0, SVG Export Plug-In . SVG Version: 6.00 Build 0)  -->
<svg version="1.1" xmlns="http://www.w3.org/2000/svg" xmlns:xlink="http://www.w3.org/1999/xlink" x="0px" y="0px"
	 viewBox="0 0 24 24" style="enable-background:new 0 0 24 24;" xml:space="preserve">
<style type="text/css">
	.st0{fill:#EA650D;}
</style>
<g id="Layer_1">
</g>
<g id="PICTOS">
	<g>
		<path class="st0" d="M13.4102,8.1284l1.9736-1.353c0.998-0.6265,2.0938,0.5015,2.3125,0.8149
			c0.1377,0.1953,0.1641,0.4917-0.5625,1.3286c-0.1807,0.2085-0.1582,0.5244,0.0498,0.7051
			c0.0947,0.0825,0.2119,0.1226,0.3281,0.1226c0.1396,0,0.2793-0.0586,0.3779-0.1724c0.4004-0.4614,1.3369-1.5415,0.627-2.5566
			c-0.5361-0.769-2.1426-2.0464-3.6807-1.0781l-1.9907,1.3638c-0.2275,0.1562-0.2856,0.4673-0.1299,0.6953
			C12.8721,8.2266,13.1836,8.2827,13.4102,8.1284z"/>
		<path class="st0" d="M23.1299,22.7891l-2.1396,0.1895c-0.9531,0.082-1.9023-0.085-2.7568-0.4863l-3.4208-1.6073l3.077-1.9796
			c0.6074-0.4229,0.9658-1.0898,0.9834-1.8301c0.0176-0.7393-0.3086-1.4229-0.8955-1.874l-2.9531-2.272
			c-0.2275-0.1753-0.3477-0.4253-0.3369-0.7051c0.0098-0.2759-0.2061-0.5073-0.4824-0.5171
			c-0.2578-0.0234-0.5078,0.2061-0.5176,0.4819c-0.0215,0.6016,0.2432,1.1606,0.7266,1.5327l2.9541,2.2725
			c0.3311,0.2549,0.5146,0.6396,0.5049,1.0576s-0.2119,0.7939-0.54,1.0225l-3.5742,2.2988
			c-0.0047,0.0031-0.007,0.0081-0.0116,0.0112l-2.9059-1.3654l3.3814-2.2103c0.1357-0.0889,0.2197-0.2383,0.2266-0.3994
			c0.0059-0.1621-0.0664-0.3174-0.1953-0.416l-2.0112-1.5479c-0.9224-0.71-1.4272-1.7715-1.3857-2.9126
			c0.0068-0.186,0.0278-0.3682,0.0625-0.5469c0.0527-0.271-0.1245-0.5332-0.3955-0.5859c-0.2725-0.0542-0.5332,0.124-0.5859,0.3955
			c-0.0444,0.2285-0.0713,0.4624-0.0801,0.7002c-0.0542,1.4688,0.5928,2.8325,1.7749,3.7427l1.4531,1.1182L9.7773,18.519
			l-9.0649-4.2592c-0.248-0.1182-0.5469-0.0098-0.665,0.2393c-0.1172,0.25-0.0098,0.5479,0.2402,0.665l17.52,8.2324
			C18.6533,23.7949,19.5791,24,20.5137,24c0.1885,0,0.377-0.0088,0.5645-0.0254l2.1396-0.1895
			c0.2754-0.0244,0.4785-0.2666,0.4541-0.542C23.6465,22.9668,23.3828,22.7715,23.1299,22.7891z"/>
		<path class="st0" d="M18.9619,5.5073c0.001,0.001,0.0029,0.0024,0.0039,0.0034c0.3779,0.2827,0.8418,0.4028,1.3311,0.4028
			c1.1846,0,2.5225-0.7017,3.1768-1.4927c0.417-0.542,0.5947-1.2261,0.5029-1.9263c-0.0977-0.7402-0.498-1.4282-1.0986-1.8887
			c-1.2373-0.9482-3.0322-0.7715-3.9102,0.3691c-0.5898,0.7144-0.9219,1.9282-0.8057,2.9526
			C18.2412,4.6206,18.5176,5.167,18.9619,5.5073z M19.75,1.5986c0.5488-0.7139,1.7256-0.8062,2.5205-0.1987
			c0.3906,0.2998,0.6514,0.7466,0.7148,1.2251c0.0566,0.4351-0.0508,0.8564-0.2939,1.1724c-0.626,0.7563-2.3438,1.4917-3.124,0.9146
			c-0.2803-0.2168-0.3779-0.6074-0.4111-0.897C19.0713,3.064,19.3213,2.1172,19.75,1.5986z"/>
		<path class="st0" d="M3.5566,6.7417l16.3154,5.9492c0.0566,0.0205,0.1143,0.0303,0.1709,0.0303
			c0.2041,0,0.3955-0.126,0.4697-0.3286c0.0947-0.2598-0.0391-0.5464-0.2988-0.6411L3.8994,5.8022
			C3.6396,5.7075,3.3525,5.8413,3.2583,6.1006C3.1636,6.3604,3.2974,6.647,3.5566,6.7417z"/>
	</g>
</g>
</svg>
