<?xml version="1.0" encoding="utf-8"?>
<!-- Generator: Adobe Illustrator 25.1.0, SVG Export Plug-In . SVG Version: 6.00 Build 0)  -->
<svg version="1.1" xmlns="http://www.w3.org/2000/svg" xmlns:xlink="http://www.w3.org/1999/xlink" x="0px" y="0px"
	 viewBox="0 0 24 24" style="enable-background:new 0 0 24 24;" xml:space="preserve">
<style type="text/css">
	.st0{fill:#EA650D;}
</style>
<g id="Layer_1">
</g>
<g id="PICTOS">
	<g>
		<path class="st0" d="M9.1133,5.7017h0.0005c0.0562,0.0068,0.1123,0.0107,0.1694,0.0107c0.355,0,0.7192-0.1416,1.062-0.4155
			c0.813-0.6484,1.3994-1.918,1.4761-2.7222c0.1187-1.2378-0.855-2.3833-2.1704-2.5542c-0.6577-0.083-1.3252,0.0972-1.8291,0.499
			C7.3569,0.8901,7.0703,1.4106,7.0151,1.9854C6.9038,3.1499,7.7129,5.52,9.1133,5.7017z M8.4453,1.3013
			c0.2935-0.2349,0.6841-0.3398,1.0771-0.2891c0.7729,0.1006,1.3701,0.7725,1.3037,1.4673
			c-0.0557,0.5781-0.5498,1.5933-1.1045,2.0356c-0.126,0.1001-0.3013,0.2202-0.48,0.1943C8.624,4.6294,7.9258,2.9639,8.0103,2.0811
			C8.0396,1.7783,8.1938,1.5015,8.4453,1.3013z"/>
		<path class="st0" d="M23.7256,11.3936c-0.1982-0.1919-0.5146-0.1865-0.7061,0.0107l-2.8008,2.8867
			c-0.9946,1.0251-2.1436,1.8979-3.376,2.6277l-0.5946-6.1744c0.0994-0.0726,0.1982-0.1499,0.2919-0.2527
			c0.4023-0.4424,0.5166-1.3774,0.3418-1.8574c-0.1446-0.398-0.4263-0.6683-0.8042-0.803l-0.1079-1.4109
			c-0.0225-0.2764-0.2891-0.48-0.5371-0.4604c-0.2754,0.021-0.4814,0.2612-0.4609,0.5366l0.0951,1.243
			c-0.1304,0.0032-0.2517,0.0004-0.3871,0.0055c-0.4746,0.0181-0.9648,0.0371-1.416-0.0249
			C11.9585,7.5405,10.957,7.188,9.4556,6.625L9.2402,6.5513C6.9849,5.9849,4.7261,7.1538,3.4756,8.3228
			c-0.4985,0.4658-0.8335,0.8965-1.2212,1.395l-0.4136,0.5269c-0.3481,0.4824-0.5591,0.8179-0.5503,1.4141
			c0.0088,0.6499,0.7178,0.9858,1.1416,1.187l0.1338,0.0649c0.5308,0.2681,1.0879,0.1851,1.5698-0.2349
			c0.2793-0.2427,0.5244-0.5464,0.7837-0.8677c0.2832-0.3506,0.5762-0.7134,0.938-1.0303c0.896-0.7837,1.7017-0.9868,1.7075-0.9883
			c0.2686-0.062,0.436-0.3311,0.3735-0.6001c-0.0615-0.269-0.3291-0.437-0.6001-0.3735c-0.042,0.0098-1.043,0.25-2.1392,1.2095
			c-0.4272,0.374-0.7622,0.7886-1.0576,1.1543c-0.231,0.2861-0.4497,0.5566-0.6621,0.7417
			c-0.2222,0.1938-0.355,0.1519-0.4614,0.0967l-0.1577-0.0762c-0.1411-0.0669-0.5171-0.2451-0.5698-0.2974
			C2.2866,11.3765,2.334,11.27,2.6362,10.8496l0.4072-0.5176c0.377-0.4844,0.6743-0.8667,1.1147-1.2788
			C4.396,8.832,6.5459,6.9077,8.9512,7.5073l0.1611,0.0571c1.5591,0.584,2.6069,0.9526,4.0146,1.1465
			c0.541,0.0737,1.0977,0.0527,1.5908,0.0337c0.2881-0.0117,0.5625-0.0239,0.8223-0.0132c0.293,0.0107,0.3613,0.1318,0.4023,0.2446
			c0.0596,0.1646-0.0166,0.7046-0.1426,0.8428c-0.1816,0.1992-0.3994,0.2915-0.7559,0.3276
			c-0.7764,0.0454-1.1484,0.0654-1.8818,0.0444c-0.249-0.0063-0.7393-0.0723-1.6562-0.3501
			c-0.1333-0.0405-0.2661-0.0708-0.3936-0.0996l-0.1895-0.0449c-0.7583-0.1934-1.4209,0.4702-1.6221,1.2271
			c-0.2271,0.8564,0.1748,1.6074,0.9282,1.8105l0.5566,0.2148c0.7998,0.2651,1.4424,0.7231,2.022,1.4429
			c0.4844,0.6006,1.0146,1.167,1.5273,1.7139c0.2275,0.2422,0.4541,0.4844,0.6777,0.7295c0.2363,0.2598,0.2178,0.4043,0.1816,0.5186
			c-0.0615,0.1943-0.1748,0.3008-0.3691,0.3457l-0.2617,0.0684c-0.2021,0.0547-0.6826,0.1855-0.7686,0.167
			c-0.3789-0.416-0.7002-0.8779-1.04-1.3662c-0.2832-0.4082-0.5762-0.8291-0.9072-1.2246
			c-0.3931-0.4688-0.8569-0.8184-1.4595-1.0986c-0.3584-0.167-0.7563-0.2549-1.2295-0.2549
			c-0.8433-0.001-1.5576-0.041-1.7637-0.5225c-0.0211-0.0496-0.0541-0.0891-0.0875-0.1276
			c0.0295-0.4195,0.0914-0.9249,0.1231-1.1488c0.0386-0.2734-0.1519-0.5264-0.4253-0.5649
			c-0.2734-0.041-0.5264,0.1519-0.5649,0.4253c-0.0181,0.1294-0.1772,1.2793-0.146,1.8252
			c0.0151,0.2656-0.2417,1.1221-1.0146,2.6631c-0.2075,0.4141-0.4517,0.8018-0.71,1.2129
			c-0.3042,0.4854-0.6191,0.9863-0.8584,1.5117c-0.5591,1.0908,0.0293,1.5098,0.5,1.8447c0.3599,0.2295,0.6948,0.3018,0.9902,0.3018
			c0.0804,0,0.1489-0.016,0.2232-0.025l-2.1177,0.7428l-2.8359,0.8945c-0.2632,0.083-0.4097,0.3633-0.3267,0.627
			C0.2119,23.8633,0.4092,24,0.6216,24c0.0498,0,0.1006-0.0078,0.1504-0.0234l2.8511-0.8994l6.3032-2.21l4.7183-1.7646
			c2.3613-0.8828,4.5361-2.3057,6.291-4.1152l2.8008-2.8867C23.9287,11.9023,23.9238,11.5859,23.7256,11.3936z M5.6782,20.3164
			C5.356,20.4131,5.103,20.4912,4.75,20.2656c-0.105-0.0742-0.2495-0.1777-0.2705-0.208c-0.0005-0.0029-0.0073-0.0859,0.1313-0.3574
			c0.2217-0.4854,0.5059-0.9365,0.8062-1.415c0.2593-0.4131,0.5273-0.8398,0.7563-1.2959c0.5016-1.0007,0.8181-1.7777,0.983-2.3687
			c0.3514,0.2065,0.7679,0.3,1.1873,0.3377c0.0075,0.5823-0.1533,1.1956-0.5209,1.9128c-0.1021,0.1982-0.2192,0.4023-0.3525,0.6348
			c-0.2925,0.5107-0.6562,1.1465-1.1045,2.127C6.2417,19.9062,5.9072,20.2471,5.6782,20.3164z M9.5854,19.9268l-3.1362,1.1
			c0.3632-0.2585,0.6749-0.6462,0.8261-0.978c0.4292-0.9395,0.7803-1.5527,1.0625-2.0459c0.1421-0.2471,0.2666-0.4648,0.3745-0.6758
			c0.4277-0.8347,0.6262-1.5977,0.6288-2.3255c0.2153,0.0132,0.4297,0.059,0.6251,0.1497c0.4712,0.2197,0.8149,0.4766,1.1147,0.835
			c0.3071,0.3662,0.5796,0.7598,0.8525,1.1523c0.3433,0.4941,0.6982,1.0049,1.1211,1.4688c0.0054,0.006,0.0121,0.0093,0.0176,0.015
			L9.5854,19.9268z M15.7529,16.1621c-0.2275-0.249-0.458-0.4951-0.6885-0.7412c-0.5-0.5332-1.0176-1.085-1.4775-1.6562
			c-0.6963-0.8643-1.5098-1.4419-2.4634-1.7568l-0.5825-0.2227c-0.1001-0.0273-0.4048-0.1104-0.2734-0.6055
			c0.0869-0.3281,0.3262-0.5425,0.4053-0.5146l0.2188,0.0518c0.105,0.0234,0.2139,0.0479,0.3237,0.0811
			c0.8223,0.249,1.4688,0.3809,1.9204,0.3931c0.7676,0.02,1.1807-0.0005,1.9873-0.0479c0.049-0.0049,0.104-0.0157,0.1559-0.023
			l0.4873,5.0602C15.761,16.1743,15.7583,16.168,15.7529,16.1621z"/>
	</g>
</g>
</svg>
