<?xml version="1.0" encoding="utf-8"?>
<!-- Generator: Adobe Illustrator 25.1.0, SVG Export Plug-In . SVG Version: 6.00 Build 0)  -->
<svg version="1.1" id="PICTOS" xmlns="http://www.w3.org/2000/svg" xmlns:xlink="http://www.w3.org/1999/xlink" x="0px" y="0px"
	 viewBox="0 0 24 24" style="enable-background:new 0 0 24 24;" xml:space="preserve">
<style type="text/css">
	.st0{fill:#EA650D;}
</style>
<g>
	<path class="st0" d="M12.3804,6.0734c0.002,0.0005,0.0034,0.001,0.0054,0.0015c0.1953,0.0654,0.395,0.0952,0.5967,0.0952
		c1.374,0,2.8174-1.3945,3.2471-2.5864c0.4443-1.3916-0.3652-2.9287-1.8047-3.4272c-0.7275-0.251-1.54-0.1973-2.231,0.1479
		c-0.6353,0.3179-1.0972,0.8447-1.2954,1.4658C10.585,2.6412,10.6782,3.903,11.126,4.8385
		C11.4258,5.4659,11.8599,5.8932,12.3804,6.0734z M11.8447,2.0919c0.1216-0.3799,0.4043-0.6968,0.7964-0.8931
		c0.4517-0.2271,0.981-0.2617,1.4565-0.0972c0.915,0.3164,1.4551,1.3135,1.1846,2.1602c-0.3301,0.9155-1.665,2.1704-2.5776,1.8652
		c-0.3301-0.1157-0.5498-0.4551-0.6768-0.7197C11.6973,3.7159,11.6162,2.7281,11.8447,2.0919z"/>
	<path class="st0" d="M20.3125,9.0333c0.1318-0.7388-0.0947-1.3628-0.6074-1.6689c-0.668-0.3989-1.6104-0.1768-2.5957,0.6055
		c-0.5664,0.4609-1.5381,0.6421-2.3945,0.8022l-0.2246,0.0425c-0.5342,0.0991-1.3184-0.417-1.7344-0.9468
		c-0.032-0.041-0.0731-0.0693-0.1138-0.0974c-0.4742-0.5881-1.1717-1.0195-2.0625-1.2342C9.062,6.1696,6.6797,6.236,5.3208,6.9801
		c-1.3862,0.7593-2.4639,1.792-2.8823,2.7622c-0.5874,1.3613-0.4473,2.437,0.3652,2.8062c0.8823,0.4019,1.6909,0.2437,2.4023-0.4697
		l0.1802-0.1812c0.4243-0.4277,1.1343-1.144,1.4453-1.1768c0.4028-0.042,1.0698-0.0078,1.3926,0.0483
		c-0.0142,0.042-0.0308,0.0903-0.0498,0.146c-0.1621,0.4878-0.8354,2.1475-1.291,2.9424c-0.646,1.1279-1.3008,2.0283-1.562,2.2402
		c-0.1616-0.0371-0.5244-0.21-1.3345-0.7617L3.748,15.173c-0.4819-0.3398-1.7617-1.2412-2.6846-0.3789
		c-0.7266,0.6807-0.8643,1.0273-0.8643,1.4287c0,0.4688,0.8711,1.9297,1.9238,2.584c0.6333,0.3945,2.7861,1.6689,3.8188,1.3916
		c0.751-0.1953,1.1514-0.3359,2.0391-1.3779c0.3667-0.4297,0.6782-0.8369,0.9248-1.1592c0.064-0.084,0.1313-0.1729,0.1943-0.2539
		c0.2827,0.4111,0.6938,1.1885,0.8096,2.1143c0.1255,1.0039,0.0283,1.8574-0.0356,2.4219
		c-0.0396,0.3486-0.0635,0.5596-0.0312,0.7354c0.1035,0.5703,0.8813,1.0811,1.8091,1.1885
		c0.1646,0.0186,0.3501,0.0342,0.5425,0.0342c0.4897,0,1.0273-0.1006,1.4062-0.5029c0.4912-0.5195,0.5088-2.9229,0.4473-3.6143
		c-0.0439-0.499-0.2256-1.3584-0.4355-2.3545c-0.2529-1.2012-0.54-2.5625-0.582-3.3232c-0.0283-0.5088,0.0537-1.1719,0.1416-1.875
		c0.1119-0.8965,0.2197-1.8185,0.1495-2.6707c0.4398,0.2078,0.9088,0.3154,1.3495,0.2371l0.2275-0.043
		c0.9736-0.1816,2.0781-0.3882,2.8369-1.0059c0.6943-0.5508,1.2334-0.6621,1.4561-0.5264c0.1416,0.0845,0.1924,0.3218,0.1416,0.6099
		c-0.1006,0.436-0.6807,0.8574-1.0332,1.1138c-1.3105,0.9824-3.3809,1.1655-3.4014,1.167c-0.2754,0.0234-0.4795,0.2646-0.457,0.5396
		c0.0215,0.2612,0.2402,0.459,0.4971,0.459c0.0137,0,0.0283-0.0005,0.042-0.0015c0.0957-0.0083,2.375-0.2065,3.9131-1.3599
		C19.3535,10.4166,20.123,9.858,20.3125,9.0333z M13.0518,19.8722c0.0918,1.0283-0.0737,2.6182-0.1782,2.8408
		c-0.1646,0.1748-0.5259,0.2266-1.1074,0.1602c-0.5522-0.0635-0.8994-0.3154-0.938-0.3613
		c-0.0073-0.0908,0.0161-0.2471,0.0396-0.4551c0.0654-0.5752,0.1743-1.5371,0.0342-2.6582
		c-0.1841-1.4727-1.1592-3.2148-1.7993-3.2148c-0.3267,0-0.4941,0.2197-0.9917,0.8701c-0.2373,0.3105-0.5371,0.7041-0.8906,1.1182
		c-0.7236,0.8486-0.9434,0.9062-1.5303,1.0596c-0.3354,0.085-1.5947-0.373-3.0381-1.2734
		c-0.7935-0.4932-1.4028-1.5957-1.4526-1.7354c0-0.0557,0-0.1855,0.5474-0.6982c0.3267-0.3096,1.1255,0.2549,1.4263,0.4668
		l0.2515,0.1719c0.9106,0.6201,1.5669,0.9805,2.0503,0.9375c0.1865-0.0215,0.7534-0.0859,2.2769-2.7471
		c0.4937-0.8613,1.1953-2.5918,1.3716-3.1216c0.1787-0.5352,0.2686-0.8037-0.1211-1.1924c-0.4556-0.4556-2.2563-0.3154-2.2749-0.313
		c-0.6655,0.0698-1.3696,0.7798-2.0508,1.4668L4.499,11.3717c-0.4839,0.4854-0.8623,0.4575-1.2812,0.2666
		c-0.2012-0.0913-0.1934-0.73,0.1387-1.5c0.3286-0.7607,1.2651-1.6348,2.4448-2.2812C6.897,7.257,9.0332,7.193,10.3452,7.5079
		c0.8179,0.1973,1.8237,0.7007,1.9722,1.98c0.0908,0.7832-0.0254,1.7168-0.1377,2.6201c-0.0933,0.7485-0.1816,1.4556-0.1479,2.0542
		c0.0464,0.8369,0.3418,2.2383,0.6025,3.4746C12.8286,18.5607,13.0127,19.4327,13.0518,19.8722z"/>
	<path class="st0" d="M20.9951,18.3429c-1.5713,0-2.8496,1.2588-2.8496,2.8057c0,1.5977,1.251,2.8496,2.8301,2.8496h0.001
		c0.0312,0.001,0.0625,0.001,0.0938,0.001c0.6797,0,1.3545-0.2754,1.8623-0.7646c0.5518-0.5322,0.8682-1.2754,0.8682-2.041
		C23.8008,19.6212,22.542,18.3429,20.9951,18.3429z M22.2393,22.5138c-0.3223,0.3105-0.7451,0.4854-1.1836,0.4854
		c-1.0605-0.0176-1.9102-0.793-1.9102-1.8506c0-0.9961,0.8301-1.8057,1.8496-1.8057c0.9961,0,1.8057,0.8301,1.8057,1.8506
		C22.8008,21.6964,22.6016,22.1652,22.2393,22.5138z"/>
</g>
</svg>
