<?xml version="1.0" encoding="utf-8"?>
<!-- Generator: Adobe Illustrator 25.1.0, SVG Export Plug-In . SVG Version: 6.00 Build 0)  -->
<svg version="1.1" xmlns="http://www.w3.org/2000/svg" xmlns:xlink="http://www.w3.org/1999/xlink" x="0px" y="0px"
	 viewBox="0 0 24 24" style="enable-background:new 0 0 24 24;" xml:space="preserve">
<style type="text/css">
	.st0{fill:#EA650D;}
</style>
<g id="Layer_1">
</g>
<g id="PICTOS">
	<g>
		<path class="st0" d="M13.9492,6.3203h0.0254c1.6318-0.0229,2.9033-2.23,2.9326-3.6499c0.0127-0.6826-0.2529-1.3335-0.75-1.8325
			c-0.54-0.5439-1.3477-0.8369-2.0918-0.8374c-1.5781,0.0215-2.8857,1.2407-2.9146,2.7173
			c-0.0181,0.9321,0.4927,2.1357,1.2144,2.8613C12.8481,6.0645,13.3955,6.3203,13.9492,6.3203z M14.0791,1.0005
			C14.0889,1.0005,14.0977,1,14.1074,1c0.5098,0,0.9971,0.1973,1.3408,0.543c0.3037,0.3057,0.4668,0.6987,0.459,1.1074
			c-0.0195,0.9707-0.9893,2.6567-1.9463,2.6699h-0.0107c-0.3564,0-0.6729-0.2422-0.876-0.4468
			c-0.5308-0.5332-0.9365-1.4717-0.9233-2.1362C12.1689,1.8101,13.0518,1.0146,14.0791,1.0005z"/>
		<path class="st0" d="M21.5273,9.1372c-1.5381-0.3315-7.3574-1.6699-8.7119-2.0166c-0.2842-0.0732-0.561-0.0918-0.8259-0.066
			C11.351,6.707,9.8574,5.7833,8.4116,4.8892C7.229,4.1572,6.0898,3.4531,5.499,3.1138C4.7559,2.688,3.8203,2.918,3.3662,3.6387
			c-0.23,0.3647-0.2993,0.873-0.186,1.3599c0.1069,0.459,0.3535,0.8262,0.6934,1.0352c0.5312,0.3262,1.6821,1.0874,2.7197,1.7734
			C7.4976,8.4053,8.3169,8.9463,8.5796,9.104C8.6602,9.1523,8.749,9.1753,8.8364,9.1753c0.1699,0,0.3354-0.0864,0.4292-0.2427
			c0.1421-0.2368,0.0654-0.5439-0.1714-0.686C8.8359,8.0918,8.0322,7.5601,7.145,6.9731c-1.0483-0.6934-2.2114-1.4624-2.7485-1.792
			C4.291,5.1162,4.1982,4.9595,4.1543,4.7715C4.1025,4.5498,4.126,4.3086,4.2119,4.1724C4.3755,3.9116,4.73,3.8262,5.001,3.981
			c0.5854,0.3359,1.7134,1.0337,2.8848,1.7583c1.0832,0.6703,2.1915,1.3558,2.9626,1.8127
			c-0.3364,0.2983-0.5823,0.7063-0.7004,1.1878c-0.063,0.2578-0.2407,1.3511-0.4849,2.8677
			c-0.0947,0.5894-0.1816,1.1323-0.2368,1.4629c-0.1328,0.0098-0.3135,0.0195-0.5581,0.0273C7.9219,13.1377,7,12.876,6.1929,12.3599
			C5.7974,12.1064,5.3989,11.8569,5,11.6079l-0.9639-0.606c-0.5874-0.374-1.2568-0.394-1.8848-0.0581
			c-0.7549,0.4028-0.8491,1.4346-0.8599,1.7412c-0.0259,0.7358,0.4131,1.1196,0.8691,1.5171
			c0.6807,0.54,1.4365,1.0312,2.1675,1.5059l0.1206,0.0781c1.1504,0.749,2.479,1.1611,3.8418,1.1924l0.2788,0.0068
			c0.5586,0.0137,1.0562,0.0254,1.4912,0.0254c0.2367,0,0.4487-0.0053,0.6483-0.0141c-0.0001,0.0022-0.0013,0.0041-0.0013,0.0063
			c-0.0063,1.4043,0.0879,4.1338,0.1289,5.2412c0.0249,0.6934,0.3926,1.25,1.0361,1.5674c0.2559,0.126,0.5815,0.1875,0.9126,0.1875
			c0.4199,0,0.8477-0.0986,1.1484-0.29c0.5342-0.3398,0.791-0.8867,0.7646-1.624c-0.0146-0.3906-0.0332-0.7812-0.0518-1.1729
			c-0.0449-0.9502-0.0908-1.9326-0.0771-2.8887c0.0049-0.3311,0.0156-0.667,0.0264-1.0176
			c0.0259-0.8434,0.0547-1.7998,0.0132-2.9823c0.1014-0.4193,0.1672-0.8488,0.2153-1.3761
			c0.0254-0.2749-0.1777-0.5181-0.4521-0.5435c-0.2725-0.0244-0.5195,0.1772-0.5439,0.4526
			c-0.0898,0.9873-0.2344,1.5693-0.6191,2.4922c-0.3433,0.8213-0.6499,0.9629-2.1465,0.9258
			c-0.6128,0.0557-1.4326,0.0371-2.4688,0.0107l-0.2803-0.0068c-1.1768-0.0273-2.3247-0.3828-3.3193-1.0303l-0.1216-0.0791
			c-0.7114-0.4619-1.4468-0.9395-2.0859-1.4473c-0.4028-0.3516-0.5039-0.4668-0.4961-0.7017
			c0.0151-0.417,0.1577-0.8013,0.332-0.8945c0.3149-0.1675,0.5928-0.1597,0.8774,0.02l0.9702,0.6099
			c0.3955,0.2476,0.791,0.4946,1.1836,0.7466c0.9805,0.626,2.1143,0.9365,3.2495,0.8955c0.5205-0.0186,0.8525-0.0449,1.0444-0.083
			c0.1826-0.0361,0.3301-0.1709,0.3828-0.3496c0.0269-0.0918,0.0776-0.3936,0.3198-1.8984
			c0.1733-1.0762,0.4106-2.5503,0.4692-2.7891c0.0864-0.354,0.2788-0.6357,0.541-0.793c0.2554-0.1519,0.5605-0.1831,0.9067-0.0952
			c1.3984,0.3584,7.1641,1.6836,8.749,2.0254c0.2676,0.0571,0.4355,0.3076,0.3838,0.5698c-0.0332,0.168-0.1455,0.4316-0.3203,0.6421
			c-0.1465,0.1748-0.2627,0.2124-0.2754,0.209c-0.9209-0.1826-3.5166-0.7559-5.2578-1.1401
			c-0.7822-0.1729-1.3936-0.3076-1.6064-0.353c-0.2656-0.0557-0.5352,0.1143-0.5928,0.3857
			c-0.0576,0.27,0.1152,0.5352,0.3857,0.5928c0.2119,0.0449,0.8193,0.1792,1.5977,0.3506c1.749,0.3862,4.3545,0.9614,5.2793,1.145
			c0.4355,0.084,0.8721-0.1094,1.2383-0.5503c0.2568-0.3091,0.4609-0.7256,0.5322-1.0879
			C22.8398,10.0752,22.333,9.3101,21.5273,9.1372z M13.6157,16.2811c-0.006,0.2399-0.0131,0.4714-0.02,0.6935
			c-0.0107,0.3564-0.0215,0.6973-0.0264,1.0352c-0.0137,0.9863,0.0332,1.9844,0.0781,2.9492
			c0.0186,0.3877,0.0371,0.7754,0.0508,1.1631c0.0176,0.4727-0.1348,0.6367-0.3018,0.7432
			c-0.2451,0.1582-0.812,0.1826-1.0815,0.0498c-0.3154-0.1553-0.4678-0.3799-0.4795-0.707
			c-0.0405-1.1016-0.1338-3.8145-0.1279-5.2012c0.0001-0.012-0.0059-0.0221-0.0067-0.0339
			C12.4957,16.9544,13.1277,16.82,13.6157,16.2811z"/>
	</g>
</g>
</svg>
