<?xml version="1.0" encoding="utf-8"?>
<!-- Generator: Adobe Illustrator 25.1.0, SVG Export Plug-In . SVG Version: 6.00 Build 0)  -->
<svg version="1.1" id="Layer_1" xmlns="http://www.w3.org/2000/svg" xmlns:xlink="http://www.w3.org/1999/xlink" x="0px" y="0px"
	 viewBox="0 0 24 24" style="enable-background:new 0 0 24 24;" xml:space="preserve">
<style type="text/css">
	.st0{fill:#EA650D;}
</style>
<g>
	<path class="st0" d="M23.5645,7.1587c-0.335-0.4263-0.8135-0.6943-1.3477-0.7539c-0.5322-0.0591-1.0547,0.0957-1.4717,0.4355
		l-0.7246,0.5918c-0.5469,0.4458-1.2959,0.5664-1.9463,0.3174c-1.6641-0.6353-3.4941-0.6357-5.1689,0.0034l-0.3101,0.125
		c-0.5718,0.2197-1.1982,0.1606-1.7236-0.1641l-0.8491-0.5186C9.5615,6.9194,9.0239,6.8438,8.5078,6.978
		c-0.5215,0.1362-0.958,0.4707-1.2295,0.9419c-0.5518,0.9595-0.2539,2.1685,0.6821,2.7554l0.8438,0.5161
		c1.5059,0.9268,3.2974,1.1318,4.9575,0.5718l0.1025,1.0923l-1.5547,0.793c-2.0527,1.0381-3.3232,3.1328-3.3159,5.4648v2.0693
		c0,1.1191,0.8975,2.0303,2.0005,2.0303c1.1035,0,2.001-0.9111,2.001-2.0303v-2.0781c-0.0029-0.7393,0.3965-1.4307,1.0273-1.79
		c0.1045,1.1172,0.5117,2.2002,1.1719,3.1016l2.041,2.7666c0.3223,0.4375,0.792,0.7207,1.3252,0.7969
		C18.6553,23.9932,18.75,24,18.8438,24c0.4316,0,0.8486-0.1406,1.1992-0.4082c0.877-0.6709,1.0566-1.9424,0.3984-2.8389
		l-2.041-2.7637c-0.2588-0.3545-0.4023-0.7939-0.4033-1.2354l-0.001-2.7422l-0.2041-2.1689
		c1.6816,0.2881,3.4033-0.167,4.7354-1.2456l0.7266-0.5918C24.1084,9.3066,24.2471,8.0298,23.5645,7.1587z M22.6221,9.2305
		l-0.7246,0.5903c-1.1084,0.897-2.5439,1.2725-3.9434,1.0356c-0.083-0.0137-0.1699-0.0166-0.2607-0.0078
		c-0.5469,0.0566-0.9482,0.5522-0.8945,1.1055l0.1924,1.9492l0.0059,2.8516c0.001,0.6533,0.2129,1.3008,0.5977,1.8262l2.042,2.7666
		c0.3359,0.458,0.2461,1.1074-0.2012,1.4492c-0.2119,0.1621-0.4727,0.2324-0.7334,0.1934c-0.2646-0.0381-0.499-0.1797-0.6611-0.4004
		L16,19.8232c-0.6465-0.8818-1.0029-1.9736-1.0039-3.0762v-0.2412c0-0.1748-0.0908-0.3359-0.2402-0.4268
		c-0.0791-0.0488-0.1699-0.0732-0.2598-0.0732c-0.0791,0-0.1572,0.0186-0.2295,0.0557l-0.6143,0.3174
		c-1.0269,0.5195-1.6621,1.5654-1.6572,2.7275v2.0762c0,0.5684-0.4492,1.0303-1.001,1.0303s-1.0005-0.4619-1.0005-1.0303v-2.0713
		c-0.0063-1.9229,1.0801-3.7168,2.7686-4.5713l1.5562-0.7939c0.3682-0.1865,0.5869-0.5908,0.5459-1.0049l-0.1318-1.3301
		c-0.0049-0.042-0.0332-0.1641-0.0479-0.2036c-0.0762-0.2031-0.2275-0.3638-0.4238-0.4517
		c-0.1953-0.0864-0.4131-0.0928-0.6113-0.0146c-1.4331,0.5537-3.0073,0.4067-4.3223-0.4019L8.4868,9.8247
		c-0.4663-0.292-0.6191-0.9229-0.3413-1.4062C8.2817,8.1816,8.5,8.0137,8.7603,7.9458c0.2544-0.0679,0.521-0.0283,0.7451,0.1055
		l0.8428,0.5146c0.7793,0.481,1.7524,0.5737,2.6143,0.2422l0.3091-0.125c1.4336-0.5479,3.0117-0.5483,4.4453,0.0005
		c0.9883,0.3765,2.1133,0.1953,2.9365-0.4771l0.7236-0.5913c0.208-0.1685,0.4619-0.2476,0.7295-0.2163
		c0.2646,0.0293,0.5029,0.1636,0.6709,0.377C23.127,8.2217,23.0566,8.8745,22.6221,9.2305z"/>
	<path class="st0" d="M15.5029,6.6479c1.6953,0,2.9717-2.3169,2.9717-3.8188C18.4746,1.269,17.1416,0,15.5029,0
		s-2.9717,1.269-2.9717,2.8291C12.5312,4.3311,13.8076,6.6479,15.5029,6.6479z M15.5029,1c1.0684,0,1.9717,0.8374,1.9717,1.8291
		c0,1.1387-1.0391,2.8188-1.9717,2.8188s-1.9717-1.6802-1.9717-2.8188C13.5312,1.8374,14.4346,1,15.5029,1z"/>
	<path class="st0" d="M7.6772,5.25c0-0.0075-0.004-0.0138-0.0043-0.0212C7.6733,5.2213,7.6772,5.215,7.6772,5.2075V0.7983
		c0-0.2407-0.104-0.4648-0.2852-0.6143c-0.189-0.1553-0.4443-0.2168-0.7114-0.165l-3.5435,0.77
		C2.6836,0.877,2.3413,1.2788,2.3413,1.7231v4.4512c0,0.3569-0.3579,0.7397-0.7661,0.8198
		C1.3921,7.0308,1.2275,7.0005,1.1211,6.9131C1.0405,6.8472,1,6.7524,1,6.6323c0-0.2578,0.188-0.541,0.4678-0.7051
		C1.7061,5.7881,1.7856,5.4814,1.646,5.2432S1.2002,4.9238,0.9619,5.0649C0.3774,5.4072,0,6.0225,0,6.6323
		c0,0.4214,0.1724,0.7949,0.4854,1.0527C0.7422,7.897,1.0747,8.0088,1.4297,8.0088c0.1104,0,0.2236-0.0112,0.3374-0.0332
		c0.8828-0.1729,1.5742-0.9639,1.5742-1.8013L3.3384,1.7686L6.6772,1.043v4.1646c0,0.0075,0.004,0.0138,0.0043,0.0212
		C6.6812,5.2362,6.6772,5.2425,6.6772,5.25c0,0.3569-0.3579,0.7397-0.7666,0.8198C5.7266,6.1045,5.563,6.0762,5.457,5.9888
		C5.3765,5.9229,5.3359,5.8281,5.3359,5.7075c0-0.2275,0.1523-0.4839,0.3877-0.6523C5.9482,4.894,6,4.582,5.8394,4.3574
		C5.6792,4.1333,5.3657,4.0815,5.1416,4.2417C4.6372,4.603,4.3359,5.1509,4.3359,5.7075c0,0.4214,0.1724,0.7954,0.4854,1.0532
		c0.2573,0.2119,0.5894,0.3237,0.9443,0.3237c0.1108,0,0.2236-0.0112,0.3374-0.0332C6.9858,6.8784,7.6772,6.0874,7.6772,5.25z"/>
</g>
</svg>
