<?xml version="1.0" encoding="utf-8"?>
<!-- Generator: Adobe Illustrator 25.1.0, SVG Export Plug-In . SVG Version: 6.00 Build 0)  -->
<svg version="1.1" xmlns="http://www.w3.org/2000/svg" xmlns:xlink="http://www.w3.org/1999/xlink" x="0px" y="0px"
	 viewBox="0 0 24 24" style="enable-background:new 0 0 24 24;" xml:space="preserve">
<style type="text/css">
	.st0{fill:#EA650D;}
</style>
<g id="Layer_1">
</g>
<g id="PICTOS">
	<g>
		<path class="st0" d="M23.9258,13.5068c-0.1904-1.4238-0.7246-2.7319-1.5479-3.7822c-0.8096-1.0347-1.7598-1.7881-2.9033-2.3032
			c-0.249-0.1143-0.5469-0.0024-0.6611,0.25c-0.1133,0.252-0.001,0.5479,0.251,0.6611c0.9922,0.4478,1.8184,1.1045,2.5264,2.0083
			c0.7129,0.9102,1.1768,2.0508,1.3398,3.2686l0.0684,0.9238c0.0205,1.3115-0.2852,2.5928-0.8701,3.6777
			c-0.0049,0.0088-0.0107,0.0176-0.0156,0.0264L19.3613,23l-1.2988,0.0244l-1.2773-1.752
			c-0.1113-0.1504-0.2979-0.2266-0.4814-0.1992l-0.1777,0.0244c-1.6133,0.2139-2.7705,0.2109-4.4238-0.0293
			c-0.1968-0.0244-0.3931,0.0625-0.4976,0.2334L10.1899,23l-1.127,0.0127l-4.2227-3.4824
			c-1.8721-1.5518-2.8081-1.5693-3.0693-1.5361c-0.0796,0.0127-0.1592-0.0059-0.2285-0.0566
			c-0.0991-0.0732-0.1685-0.208-0.186-0.3584l-0.3521-3.0674c-0.0308-0.2695,0.1084-0.5303,0.3027-0.5713
			c0.9082-0.1348,1.9824-0.5596,3.6763-2.7251c0.2568-0.3247,0.4336-0.4805,0.6201-0.645c0.1582-0.1377,0.2139-0.3594,0.1392-0.5552
			c-0.187-0.4912-0.6143-1.4912-1.3989-2.7412C7.2104,6.771,9.2212,7.75,9.7739,8.0635c0.2407,0.1377,0.5454,0.0518,0.6816-0.1875
			c0.1367-0.2402,0.0522-0.5454-0.1875-0.6816C9.6343,6.8345,7.314,5.709,4.0688,6.3071c-0.3057,0.0571-0.5625,0.2598-0.6875,0.541
			c-0.127,0.2847-0.103,0.6123,0.0645,0.876c0.6338,0.998,1.0283,1.8394,1.2363,2.333c-0.1343,0.1294-0.2939,0.2988-0.4849,0.5396
			c-1.4795,1.8926-2.334,2.25-3.0884,2.3647c-0.7065,0.144-1.189,0.8755-1.0977,1.6646l0.3521,3.0664
			c0.0488,0.4277,0.2617,0.8096,0.5845,1.0488c0.2891,0.2119,0.6377,0.2998,0.9497,0.2441
			c0.0122,0.0127,0.7061-0.0107,2.3057,1.3154l4.2241,3.4844C8.5962,23.9238,8.8096,24,9.0283,24h1.1616
			c0.3257,0,0.6333-0.1709,0.8032-0.4473l0.8921-1.4492c1.5386,0.2012,2.7368,0.1973,4.2671-0.001l1.1006,1.5098
			C17.4287,23.8555,17.7139,24,18.0156,24h1.3457c0.335,0,0.6475-0.1787,0.8135-0.4658l2.7686-4.7354
			c0.0215-0.0225,0.0342-0.041,0.0488-0.085h0.001c0.6816-1.2627,1.0293-2.7139,1.0049-4.2246L23.9258,13.5068z"/>
		<path class="st0" d="M14.7939,7.7437c2.1631,0,3.9229-1.7368,3.9229-3.8721C18.7168,1.7368,16.957,0,14.7939,0
			c-2.1636,0-3.9238,1.7368-3.9238,3.8716C10.8701,6.0068,12.6304,7.7437,14.7939,7.7437z M14.7939,1
			c1.6113,0,2.9229,1.2881,2.9229,2.8716s-1.3115,2.8721-2.9229,2.8721c-1.6123,0-2.9238-1.2886-2.9238-2.8721S13.1816,1,14.7939,1z
			"/>
		<circle class="st0" cx="8.125" cy="12.8955" r="0.5"/>
	</g>
</g>
</svg>
