<?xml version="1.0" encoding="utf-8"?>
<!-- Generator: Adobe Illustrator 25.1.0, SVG Export Plug-In . SVG Version: 6.00 Build 0)  -->
<svg version="1.1" id="Layer_1" xmlns="http://www.w3.org/2000/svg" xmlns:xlink="http://www.w3.org/1999/xlink" x="0px" y="0px"
	 viewBox="0 0 24 24" style="enable-background:new 0 0 24 24;" xml:space="preserve">
<style type="text/css">
	.st0{fill:#EA650D;}
</style>
<path class="st0" d="M23.3223,7.1338c-0.4258-0.3984-0.9912-0.6177-1.5918-0.6177h-6.0087c1.1906-0.388,2.3301-0.8464,2.8115-1.2969
	c0.3057-0.2847,0.5439-0.6177,0.71-0.9907c0.167-0.377,0.251-0.7729,0.251-1.1782s-0.084-0.8013-0.251-1.1797
	c-0.166-0.3716-0.4043-0.7046-0.71-0.9893c-0.3018-0.2822-0.6553-0.502-1.0479-0.6533c-0.7832-0.3027-1.6748-0.3022-2.4561-0.0005
	c-0.3936,0.1519-0.7471,0.3716-1.0479,0.6528c-0.9713,0.8998-1.9769,4.2486-2.3367,5.5383C9.6846,5.946,6.7975,5.0963,6.1484,4.4878
	C5.7339,4.1016,5.5059,3.5913,5.5059,3.0503s0.228-1.0513,0.6426-1.4375C6.9854,0.835,8.502,0.833,9.3389,1.6138
	c0.1924,0.1782,0.6128,0.7524,1.2705,2.5996c0.0928,0.2598,0.3779,0.3945,0.6392,0.3032c0.2598-0.0928,0.3955-0.3789,0.3032-0.6392
	c-0.5645-1.5835-1.0659-2.564-1.5322-2.9961c-1.2192-1.1367-3.3335-1.1377-4.5527,0C4.856,1.4502,4.5059,2.2407,4.5059,3.0503
	s0.3501,1.6001,0.9595,2.168C5.946,5.669,7.0867,6.1277,8.2783,6.5161H2.269c-0.5991,0-1.1641,0.2192-1.5918,0.6172
	C0.2466,7.5347,0,8.0928,0,8.6646v1.6484c0,0.5718,0.2466,1.1299,0.6772,1.5317c0.4277,0.3975,0.9927,0.6167,1.5918,0.6167h6.5771
	V23H5.6846c-0.2876-0.0244-0.6421-0.1123-0.8804-0.3184c-0.229-0.1982-0.3672-0.4648-0.3901-0.7598L3.6514,13.874
	c-0.0259-0.2744-0.2632-0.4688-0.5449-0.4512c-0.2749,0.0264-0.4766,0.2705-0.4502,0.5449l0.7617,8.0391
	c0.042,0.5508,0.3018,1.0586,0.7319,1.4307C4.5688,23.8008,5.1123,24,5.6802,24c0.002,0,0.0034,0,0.0054,0h12.6221
	c0.541-0.0098,1.1162-0.1982,1.5371-0.5625c0.4307-0.373,0.6904-0.8809,0.7314-1.4209l0.7676-8.0479
	c0.0264-0.2754-0.1758-0.5195-0.4502-0.5459c-0.2695-0.0146-0.5186,0.1748-0.5459,0.4502l-0.7686,8.0586
	c-0.0205,0.2842-0.1592,0.5508-0.3887,0.75C18.9531,22.8867,18.6416,23,18.3115,23c-0.001,0-0.002,0-0.0029,0h-3.1543V12.4614
	h6.5762c0.6006,0,1.166-0.2192,1.5918-0.6167C23.7529,11.4434,24,10.8853,24,10.313V8.6646C24,8.0923,23.7529,7.5342,23.3223,7.1338
	z M14.6621,1.6128c0.209-0.1943,0.4531-0.3467,0.7275-0.4521C15.665,1.0542,15.957,1,16.2568,1s0.5918,0.0542,0.8682,0.1611
	c0.2734,0.105,0.5176,0.2573,0.7266,0.4517c0.2061,0.1924,0.3672,0.416,0.4775,0.6636c0.1094,0.2485,0.165,0.5088,0.165,0.7739
	s-0.0557,0.5254-0.165,0.7725c-0.1104,0.249-0.2715,0.4727-0.4775,0.665c-0.001,0.0005-0.001,0.0005-0.001,0.001
	c-0.6094,0.5718-3.2051,1.3589-5.1426,1.8438C13.2275,4.5405,14.0586,2.1719,14.6621,1.6128z M23,10.313
	c0,0.2998-0.1279,0.584-0.3594,0.8003c-0.2373,0.2212-0.5693,0.3481-0.9102,0.3481h-6.5762V8.7876c0-0.2764-0.2236-0.5-0.5-0.5
	s-0.5,0.2236-0.5,0.5V23H9.8462V8.7876c0-0.2764-0.2236-0.5-0.5-0.5s-0.5,0.2236-0.5,0.5v2.6738H2.269
	c-0.3403,0-0.6719-0.127-0.9102-0.3486C1.1274,10.897,1,10.6128,1,10.313V8.6646c0-0.2998,0.1274-0.584,0.3589-0.7993
	C1.5972,7.6431,1.9287,7.5161,2.269,7.5161h19.4614c0.3408,0,0.6729,0.127,0.9102,0.3491C22.8721,8.0806,23,8.3647,23,8.6646V10.313
	z"/>
</svg>
