<?xml version="1.0" encoding="utf-8"?>
<!-- Generator: Adobe Illustrator 25.1.0, SVG Export Plug-In . SVG Version: 6.00 Build 0)  -->
<svg version="1.1" id="Layer_1" xmlns="http://www.w3.org/2000/svg" xmlns:xlink="http://www.w3.org/1999/xlink" x="0px" y="0px"
	 viewBox="0 0 24 24" style="enable-background:new 0 0 24 24;" xml:space="preserve">
<style type="text/css">
	.st0{fill:#EA650D;}
</style>
<g>
	<path class="st0" d="M19.5,2.4229c-0.2764,0-0.5,0.2236-0.5,0.5l0.001,19.6133l-1.8154-1.5645
		c-0.6748-0.582-1.6816-0.6143-2.3926-0.0781L12.001,23L9.207,20.8936c-0.7222-0.5439-1.7056-0.5117-2.3936,0.0781L5,22.5322V1.5054
		C5,1.3721,5.0537,1.2412,5.1475,1.147C5.2417,1.0522,5.3672,1,5.5,1h11.5908c0.2764,0,0.5-0.2236,0.5-0.5s-0.2236-0.5-0.5-0.5H5.5
		C5.1045,0,4.7178,0.1611,4.4385,0.4419C4.1558,0.7261,4,1.104,4,1.5054v21.0269c0,0.1924,0.0547,0.3789,0.1567,0.5391
		c0.103,0.1631,0.25,0.291,0.4243,0.3721c0.1753,0.0811,0.3672,0.1094,0.5542,0.082c0.1909-0.0254,0.3691-0.1055,0.5166-0.2314
		l1.8145-1.5645c0.3271-0.2803,0.7954-0.2949,1.1387-0.0371l2.7935,2.1055C11.5703,23.9287,11.7842,24,12,24
		s0.4297-0.0713,0.6006-0.2012l2.7939-2.1064c0.3447-0.2588,0.8125-0.2451,1.1387,0.0371l1.8174,1.5654
		c0.1465,0.126,0.3242,0.2051,0.5098,0.2305c0.1895,0.0273,0.3828-0.002,0.5576-0.082c0.1738-0.0801,0.3203-0.208,0.4248-0.3701
		C19.9453,22.9111,20,22.7246,20,22.5322V2.9229C20,2.6465,19.7764,2.4229,19.5,2.4229z"/>
	<path class="st0" d="M7,4.5088h4c0.2764,0,0.5-0.2236,0.5-0.5s-0.2236-0.5-0.5-0.5H7c-0.2764,0-0.5,0.2236-0.5,0.5
		S6.7236,4.5088,7,4.5088z"/>
	<path class="st0" d="M17.1094,3.8198C17.0898,3.7598,17.0498,3.6997,17,3.6597c-0.04-0.0498-0.1006-0.0898-0.1602-0.1099
		c-0.1797-0.0801-0.4102-0.0298-0.54,0.1099c-0.0996,0.0903-0.1504,0.2202-0.1504,0.3501c0,0.0601,0.0107,0.1299,0.04,0.1899
		c0.0303,0.0601,0.0605,0.1201,0.1104,0.1602c0.0898,0.1001,0.2197,0.1499,0.3496,0.1499c0.1309,0,0.2607-0.0498,0.3506-0.1499
		c0.0498-0.04,0.0898-0.1001,0.1094-0.1602c0.0303-0.0601,0.04-0.1299,0.04-0.1899C17.1494,3.9399,17.1396,3.8799,17.1094,3.8198z"
		/>
	<path class="st0" d="M17,5.9697c-0.1807-0.1797-0.5205-0.1797-0.7002,0c-0.0996,0.1001-0.1504,0.2202-0.1504,0.3599
		c0,0.1304,0.0508,0.2603,0.1504,0.3501c0.0898,0.0903,0.2197,0.1499,0.3496,0.1499c0.1309,0,0.2607-0.0596,0.3506-0.1499
		c0.0498-0.0498,0.0898-0.1001,0.1094-0.1597c0.0303-0.0601,0.04-0.1304,0.04-0.1904C17.1494,6.1899,17.0996,6.0601,17,5.9697z"/>
	<path class="st0" d="M17.1094,8.3799C17.0898,8.3198,17.0498,8.27,17,8.2197c-0.04-0.0498-0.1006-0.0801-0.1602-0.1099
		c-0.1797-0.0698-0.4102-0.0303-0.54,0.1099c-0.0996,0.0903-0.1504,0.2202-0.1504,0.3501c0,0.0698,0.0107,0.1299,0.04,0.1899
		c0.0303,0.0698,0.0605,0.1201,0.1104,0.1699c0.0898,0.0903,0.2197,0.1401,0.3496,0.1401c0.1309,0,0.2607-0.0498,0.3506-0.1401
		c0.0498-0.0498,0.0898-0.1001,0.1094-0.1699c0.0303-0.0601,0.04-0.1201,0.04-0.1899C17.1494,8.5098,17.1396,8.4399,17.1094,8.3799z
		"/>
	<path class="st0" d="M16.2998,10.46c-0.0996,0.1001-0.1504,0.23-0.1504,0.3599s0.0508,0.2598,0.1504,0.3501
		c0.0898,0.0898,0.2197,0.1499,0.3496,0.1499c0.1309,0,0.2607-0.0601,0.3506-0.1499c0.0996-0.0903,0.1494-0.2202,0.1494-0.3501
		c0-0.1401-0.0498-0.2598-0.1494-0.3599C16.8193,10.2798,16.4795,10.2798,16.2998,10.46z"/>
	<path class="st0" d="M7,6.8257h5.5c0.2764,0,0.5-0.2236,0.5-0.5s-0.2236-0.5-0.5-0.5H7c-0.2764,0-0.5,0.2236-0.5,0.5
		S6.7236,6.8257,7,6.8257z"/>
	<path class="st0" d="M7,9.0732h6c0.2764,0,0.5-0.2236,0.5-0.5s-0.2236-0.5-0.5-0.5H7c-0.2764,0-0.5,0.2236-0.5,0.5
		S6.7236,9.0732,7,9.0732z"/>
	<path class="st0" d="M7,11.3159h4.5c0.2764,0,0.5-0.2236,0.5-0.5s-0.2236-0.5-0.5-0.5H7c-0.2764,0-0.5,0.2236-0.5,0.5
		S6.7236,11.3159,7,11.3159z"/>
	<path class="st0" d="M9.54,16.2861c-0.2764,0-0.5,0.2236-0.5,0.5s0.2236,0.5,0.5,0.5h0.4877
		c0.3836,1.202,1.2628,1.8926,2.4444,1.8926c0.6704,0,1.2329-0.208,1.6704-0.6182c0.2012-0.1895,0.2119-0.5059,0.0234-0.707
		c-0.1895-0.2031-0.5059-0.2109-0.707-0.0234c-0.2539,0.2383-0.5669,0.3486-0.9868,0.3486c-0.6354,0-1.0856-0.3077-1.3645-0.8926
		h1.0208c0.2764,0,0.5-0.2236,0.5-0.5s-0.2236-0.5-0.5-0.5h-1.2886c-0.013-0.1675-0.014-0.3377-0.0016-0.5098h1.2902
		c0.2764,0,0.5-0.2236,0.5-0.5s-0.2236-0.5-0.5-0.5h-1.0339c0.2817-0.5994,0.7445-0.918,1.4006-0.918
		c0.3809,0,0.6914,0.0947,0.9238,0.2812c0.2148,0.1729,0.5303,0.1406,0.7031-0.0762c0.1729-0.2158,0.1387-0.5303-0.0762-0.7031
		c-0.4082-0.3281-0.9443-0.502-1.5508-0.502c-1.1985,0-2.0865,0.6986-2.4774,1.918H9.54c-0.2764,0-0.5,0.2236-0.5,0.5
		s0.2236,0.5,0.5,0.5h0.2991c-0.0098,0.1721-0.0103,0.3412-0.0004,0.5098H9.54z"/>
</g>
</svg>
