<svg xmlns="http://www.w3.org/2000/svg" width="300" height="324" viewBox="0 0 1000 1080">
  <defs>
    <style>
      .cls-1 {
        fill: #00ff4e;
        fill-rule: evenodd;
      }
    </style>
  </defs>
  <path id="Color_Fill_1" data-name="Color Fill 1" class="cls-1" d="M320.2,206.7H657.107a59.326,59.326,0,0,1,64,42.265Q817.714,494.1,914.319,739.238c9.34,17.323,7.774,34.755-1.207,44.68a29.232,29.232,0,0,1-14.491,8.453L98,791.164A34.777,34.777,0,0,1,84.72,780.3c-9.179-12.709-9.093-32.631,2.415-51.925L276.723,239.305A66.437,66.437,0,0,1,320.2,206.7Zm142.494,10.868c-2.494-.342-4.57.01-6.038,1.208-2.209,1.8-2.359,4.943-2.415,6.038-0.239,4.6-3.261,58.714-4.831,88.152-0.741,3.513-.475,6.5,1.208,8.453,2.429,2.816,6.957,2.491,8.453,2.415,9.929-.5,71.436-0.435,78.492,0a7,7,0,0,0,4.83-1.207c1.543-1.228,2.3-3.324,2.415-6.038l-7.245-94.19a8.188,8.188,0,0,0-3.527-4.027,8.414,8.414,0,0,0-3.719-.8H462.689ZM449.405,387.836a8.343,8.343,0,0,0-6.038,3.622,7.789,7.789,0,0,0-1.207,3.623c-2.751,39.127-9.675,138.434-9.661,149.739,0,3.216.8,5.625,2.416,7.245,1.673,1.673,4.159,2.433,7.245,2.415l115.927-1.208a6.21,6.21,0,0,0,6.037-7.245q-5.433-73.662-10.868-147.323a10.45,10.45,0,0,0-3.622-7.246,10.968,10.968,0,0,0-6.038-2.415C533.761,387.936,473.676,387.844,449.405,387.836ZM425.254,652.293a7.631,7.631,0,0,0-1.208,3.623q-4.226,60.982-8.453,121.964a4.271,4.271,0,0,0,4.831,4.831H568.955a11.271,11.271,0,0,0,10.868-3.623,11.034,11.034,0,0,0,2.415-8.453q-4.83-57.963-9.661-115.927a6.211,6.211,0,0,0-7.245-6.038H433.707C430.368,648.43,427.014,649.624,425.254,652.293Z"/>
</svg>
