<svg xmlns="http://www.w3.org/2000/svg" width="300.096" height="300.096" viewBox="0 0 1920 1920">
  <defs>
    <style>
      .cls-1 {
        fill: #f7d01b;
        fill-rule: evenodd;
      }
    </style>
  </defs>
  <path id="Color_Fill_1" data-name="Color Fill 1" class="cls-1" d="M1200,325c74.12-.91,114.34,34.353,136,86,11.81,28.155,12.42,72.373,0,101-20.79,47.939-56.01,70.678-113,83-23.69,5.123-51.98-5.923-66-12-36.03-15.617-61.32-42.327-75-80-2.81-7.746-1.99-14.211-4-23-2.57-11.243-2.59-28.757,0-40,2.3-9.949,1.59-17.625,5-26,14.49-35.564,40.02-64,75-79l27-8C1189.87,325.778,1196.25,327.319,1200,325ZM1047,586c35.26-1.041,65.75,18.908,91,30,20.93,9.2,41.95,17.271,62,26,9.93,4.323,19.89,6.1,28,12,12.81,9.332,20.11,27.638,29,41,16.96,25.507,38.96,51.618,53,79h2c12.8-20.714,35.79-41.637,52-60,12.43-14.073,22.47-33.294,40-42,33.89-16.829,65.76,10.565,72,36,6.96,28.367-17.44,50.993-27,65-33.13,48.532-66.27,96.112-99,145-7.87,11.754-29.4,32.091-54,26-28.25-6.994-37.57-28.4-52-49-7.74-11.058-17.24-21.937-25-33-4.84-6.9-13.55-25.148-21-28-0.17,6.907-2.49,12.593-4,18-4.36,15.6-5.9,31.375-10,46-7.54,26.895-8.5,54.159-16,81-3.13,11.188-4.51,23.93-8,36-1.22,4.22-4.44,12.55-3,16,3.84,4.9,9.98,8.22,15,12,8.81,6.63,16.22,16.37,25,23,6.29,4.75,13.04,8.78,19,14,28.18,24.65,55.79,50.45,86,73,8.87,6.62,16.17,16.36,25,23,17.37,13.06,42.74,30.5,54,49,9.8,16.1,6.12,39.15,11,61,7.1,31.81,5.86,67.51,13,99q1.005,11.505,2,23c3.56,15.54,2.23,32.26,6,49,3,13.32,1.72,29.25,5,44,8.31,37.3,3.31,69.22-22,85-31.66,19.74-69.01,4.24-84-20-11.34-18.34-12.79-48.58-20-71-12.85-39.96-22.15-83.97-35-124-5.31-16.53-7.94-33.11-13-49-1.46-4.6-.56-9.41-3-13s-8.35-5.43-12-8c-10.42-7.34-20.22-15.6-31-23-34.31-23.55-66.03-52.05-100-76-13.03-9.19-25.34-18.89-38-28-5.04-3.62-11.26-6.14-15-11h-1v1c-13.91,8.72-23.22,23.32-36,33-41.3,31.26-74.676,71.79-116,103-20.038,15.13-34.479,39.64-59,50-19.3,8.15-52.623,2.81-73-2-11.088-2.62-27.266-3.25-36-3l-116-15q-12-1.005-24-2c-55.308-12.82-115.993,2.62-137-48-12.62-30.41,6.66-61.05,24-72,20.066-12.67,58.131-8,91-8,69.54,0.01,144.835-2.53,211,0,10.213-17.61,27.024-31.87,39-48,27.069-36.47,56.137-70.41,83-107,10.035-13.67,26.194-27.89,35-42q29-135.987,58-272h-1v-1c-29.584-.059-62.689-8.68-90-6-2.992,11.61-19.262,30.839-26,41-14.491,21.851-28.226,44.25-42,66-7.845,12.387-13.539,26.359-26,34-33.878,20.773-69.351-4.056-77-33-6.211-23.5,12.258-47.248,19-63,17.321-40.471,37.59-79.345,55-119,11.5-26.192,18.279-45.784,49-53l32-1c4.318-.942,12.442.213,18-1,27.937-6.1,63,.534,93-6,12.43-2.707,25.81.441,37-2C1034.69,585.759,1042.86,588.562,1047,586Z"/>
</svg>
