<?xml version="1.0" encoding="utf-8"?>
<!-- Generator: Adobe Illustrator 25.2.0, SVG Export Plug-In . SVG Version: 6.00 Build 0)  -->
<svg version="1.1" id="Layer_1" xmlns="http://www.w3.org/2000/svg" xmlns:xlink="http://www.w3.org/1999/xlink" x="0px" y="0px"
	 viewBox="0 0 24 24" style="enable-background:new 0 0 24 24;" xml:space="preserve">
<style type="text/css">
	.st0{fill:#EA650D;}
</style>
<path class="st0" d="M23.9,11.8c-0.2-0.2-0.5-0.2-0.7-0.1c-0.1,0.1-0.8,0.5-1.1,0.7l-0.3,0.2c-0.5-0.9-3.2-5.7-3.3-5.9l-0.1-0.1
	c-0.1-0.2-0.2-0.4-0.3-0.5c0.4-0.3,1.3-0.8,1.5-0.9c0.2-0.1,0.4-0.3,0.3-0.5c0-0.3-0.3-0.5-0.6-0.4c-0.3,0-2.1,1.2-2.1,1.2
	C17.1,5.5,17,5.6,17,5.8L17,6c0,0.1,0,0.1,0,0.2c0,0.1,0.1,0.3,0.3,0.6c0,0-0.1,0-0.1,0c-0.2,0-0.3,0.1-0.4,0.1
	c-0.2,0-0.4,0-0.6-0.1l-0.5-0.1c-0.5-0.1-0.9-0.2-1.4-0.3c-0.4,0-0.8-0.1-1.1-0.1c-0.3,0-0.6,0-0.9,0c-0.2,0-0.5,0-0.7,0.1
	c-0.4,0-0.8,0.1-1.3,0.2C10,6.7,9.7,6.7,9.5,6.9C9.3,7,9.2,7.2,9.1,7.3c-0.3,0.4-0.6,0.9-1,1.3C7.9,9,7.6,9.4,7.4,9.7
	c-0.2,0.3-0.2,0.7-0.2,1.1c0,0.2,0.1,0.3,0.2,0.4c0.1,0.1,0.2,0.2,0.3,0.2L8,11.5c0.1,0,0.1,0,0.2,0c0.1,0,0.1,0,0.2,0
	c0.1,0,0.2,0,0.4,0c0.4-0.1,0.8-0.2,1.2-0.4c0.5-0.3,0.9-0.7,1.3-1.3c0.3-0.1,0.6-0.2,0.7-0.2c0.2,0,0.4-0.1,0.5-0.3
	c0.1-0.2,0-0.5-0.2-0.7c-0.2-0.1-0.3-0.1-1.4,0.2c-0.2,0.1-0.3,0.1-0.4,0.3c-0.3,0.5-0.7,0.8-1.1,1.1c-0.3,0.2-0.5,0.3-0.8,0.3
	c-0.1,0-0.2,0-0.2,0c0,0-0.1,0-0.1,0c0-0.1,0-0.2,0.1-0.3c0.2-0.3,0.4-0.7,0.6-1c0.3-0.4,0.6-0.9,1-1.4c0,0,0.1-0.1,0.1-0.1
	c0.1-0.1,0.3-0.1,0.5-0.2c0.4-0.1,0.8-0.1,1.1-0.2c0.2,0,0.5,0,0.7-0.1c0.3,0,0.5,0,0.8,0c0.3,0,0.6,0,1,0.1
	c0.4,0.1,0.9,0.2,1.3,0.3l0.5,0.1c0.2,0.1,0.6,0.1,0.8,0.1c0.2,0,0.4,0,0.7-0.1c0.1,0,0.2-0.1,0.3-0.1c0.5,0.9,1.7,3,2.5,4.4
	c-0.2,0.2-0.3,0.3-0.5,0.5c-0.2,0.2-0.5,0.4-0.8,0.6L18.8,13c-0.1-0.1-0.3-0.2-0.4-0.3c-0.5-0.4-0.9-0.7-1.4-1
	c-0.3-0.2-1.7-1.1-2.8-1.8c-0.2-0.1-0.5-0.1-0.7,0.2c-0.1,0.2-0.1,0.5,0.2,0.7c1.3,0.8,2.5,1.5,2.8,1.7c0.5,0.3,0.9,0.7,1.4,1
	c0.1,0.1,0.3,0.2,0.4,0.3l0.2,0.2c0,0,0.1,0.1,0.1,0.1c0,0,0.1,0.1,0.1,0.1c0,0,0.1,0.1,0.1,0.1c0.1,0.1,0.1,0.3,0.1,0.4
	c-0.1,0.2-0.2,0.2-0.3,0.3c-0.1,0-0.3,0-0.4,0c0,0-0.1-0.1-0.1-0.1c-0.8-0.5-1.7-1-2.5-1.5l-0.9-0.5c-0.2-0.1-0.5-0.1-0.7,0.2
	c-0.1,0.2-0.1,0.5,0.2,0.7l0.9,0.5c0.8,0.5,1.6,0.9,2.4,1.4c0,0.1,0,0.2,0,0.3c-0.1,0.2-0.1,0.2-0.3,0.3c-0.1,0-0.3,0-0.4,0
	c-0.3-0.2-2.6-1.5-2.9-1.7c-0.2-0.1-0.5-0.1-0.7,0.2c-0.1,0.2-0.1,0.5,0.2,0.7c0.3,0.2,2.1,1.2,2.8,1.6c0,0.1,0,0.2-0.1,0.2
	c-0.1,0.2-0.1,0.2-0.2,0.2c-0.1,0-0.3,0-0.5,0c0,0,0,0,0,0c-0.3-0.2-0.7-0.3-1-0.5l-0.5-0.2c-0.2-0.1-0.5,0-0.7,0.2
	c-0.1,0.2,0,0.5,0.2,0.7l0.5,0.2c0.2,0.1,0.4,0.2,0.5,0.3c0,0,0,0,0,0c-0.2,0.2-0.3,0.2-0.4,0.3c-0.1,0-0.8,0-1.8-0.5
	c0.1-0.2,0.2-0.4,0.2-0.6c0-0.6-0.3-1-0.7-1.3c-0.2-0.1-0.3-0.2-0.5-0.2c0-0.4-0.1-0.9-0.4-1.2c-0.2-0.2-0.5-0.4-0.8-0.5
	c0,0,0,0,0,0c0-0.5-0.2-0.9-0.6-1.2c-0.3-0.2-0.6-0.3-0.9-0.3c-0.5,0-0.8,0.2-1.1,0.5c0,0-0.1,0.1-0.1,0.1c0,0,0-0.1-0.1-0.1
	c-0.4-0.5-0.8-0.7-1.4-0.6c-0.3,0-0.5,0.2-0.7,0.3l-0.3-0.4c-0.2-0.2-0.3-0.4-0.5-0.6c0.8-1.3,1.8-3.2,2.5-4.4l0.6,0.3
	C7,8,7.1,8,7.2,8c0.2,0,0.3-0.1,0.4-0.2c0.1-0.2,0.1-0.5-0.2-0.7L6.8,6.7C7,6.4,7,6.3,7.1,6.3c0-0.1,0-0.2,0-0.3l0-0.2
	C7,5.7,7,5.6,6.9,5.5c-0.1-0.1-0.5-0.3-1.5-1L5.2,4.4C4.9,4.3,4.6,4.3,4.5,4.6C4.3,4.8,4.4,5.1,4.6,5.3l0.2,0.1
	C5.1,5.5,5.7,5.9,6,6.1c-0.6,1-3,5.4-3.7,6.5c-0.5-0.3-1.4-0.8-1.5-0.9c-0.2-0.2-0.5-0.2-0.7,0c-0.2,0.2-0.2,0.5,0,0.7
	c0.2,0.2,2,1.3,2,1.3c0.1,0,0.1,0,0.2,0c0,0,0.1,0,0.1,0l0.2-0.1c0,0,0.1,0,0.1-0.1c0,0,0.2-0.3,0.5-0.7c0.1,0.1,0.2,0.2,0.3,0.3
	l0.5,0.6C4,13.9,3.9,14,3.9,14.2C3.7,14.6,3.8,15,4,15.4c0.3,0.4,0.6,0.7,1.1,0.7c0,0,0,0,0,0c0,0.6,0.4,1.2,1,1.4
	c0.2,0.1,0.3,0.1,0.5,0.1c0,0,0.1,0,0.2,0c0.2,0.5,0.5,0.8,1,1c0.2,0.1,0.3,0.1,0.5,0.1c0.1,0,0.2,0,0.3,0c0.2,0.4,0.5,0.7,0.9,0.9
	c0.2,0.1,0.4,0.1,0.5,0.1c0.4,0,0.8-0.2,1-0.5c0.1-0.1,0.2-0.3,0.3-0.4c0.9,0.5,1.8,0.7,2.3,0.7c0.1,0,0.2,0,0.3,0
	c0.4-0.1,0.8-0.4,0.9-0.5c0.1-0.1,0.2-0.3,0.4-0.4c0,0,0.1,0,0.1,0c0.2,0,0.3,0,0.5-0.1c0.3-0.1,0.7-0.3,0.9-0.8
	c0.1-0.2,0.1-0.3,0.1-0.4c0.1,0,0.2,0,0.4,0c0.5-0.1,0.8-0.4,1-0.9c0-0.1,0.1-0.2,0.1-0.4c0,0,0,0,0,0c0.2,0,0.3,0,0.5-0.1
	c0.4-0.1,0.7-0.4,0.9-0.8c0.2-0.4,0.1-0.8,0-1.1c0.3-0.2,0.6-0.4,0.8-0.7c0.1-0.1,0.2-0.2,0.3-0.3c0.1,0.2,0.2,0.3,0.2,0.3
	c0,0.1,0.1,0.2,0.3,0.3c0,0,0.1,0.1,0.1,0.1l0.2,0.1c0.1,0,0.1,0,0.2,0c0.1,0,0.2,0,0.3-0.1c0,0,0.1-0.1,0.2-0.1l0.5-0.3
	c0.8-0.5,1.1-0.7,1.3-0.8C24,12.3,24.1,12,23.9,11.8z M5.4,15.2c-0.1,0-0.1,0-0.2,0c-0.2,0-0.3-0.1-0.4-0.3
	c-0.1-0.1-0.1-0.3-0.1-0.4c0,0,0-0.1,0.1-0.1L5,14.3c0,0,0.1-0.1,0.1-0.2c0.1-0.1,0.2-0.2,0.3-0.3c0,0,0.1-0.1,0.1-0.1
	c0.1,0,0.3,0,0.5,0.2c0.1,0.1,0.1,0.2,0.2,0.3c0,0,0,0,0,0C5.9,14.6,5.6,15,5.4,15.2z M6.5,16.7c-0.2-0.1-0.4-0.3-0.3-0.7
	c0,0,0-0.1,0-0.1c0.3-0.4,1.5-1.9,1.6-2.1c0.1-0.1,0.1-0.1,0.3-0.1c0.1,0,0.2,0,0.3,0.1c0.1,0.1,0.2,0.3,0.2,0.4c0,0.1,0,0.1,0,0.2
	c-0.2,0.2-0.6,0.7-1.6,2.2l0,0.1C6.6,16.7,6.5,16.7,6.5,16.7z M8.1,17.8c-0.3-0.1-0.4-0.4-0.4-0.6c0.9-1.3,1.3-1.8,1.5-2
	c0.2,0,0.3,0,0.5,0.2c0.2,0.2,0.2,0.4,0.1,0.6c-0.9,1.1-1.1,1.5-1.2,1.7l-0.1,0.1C8.3,17.8,8.2,17.8,8.1,17.8z M10.7,18
	c-0.2,0.2-0.3,0.4-0.5,0.7c-0.1,0.2-0.3,0.1-0.4,0.1c-0.1,0-0.3-0.1-0.4-0.4l0-0.1c0.1-0.2,0.5-0.7,1-1.3c0.2,0,0.3,0,0.4,0.1
	c0.2,0.1,0.3,0.3,0.3,0.5c0,0,0,0.1-0.1,0.2L10.7,18z"/>
</svg>
