<svg xmlns="http://www.w3.org/2000/svg" width="299.981" height="299.981" viewBox="0 0 512 512">
  <defs>
    <style>
      .cls-1 {
        fill: #00ff4e;
        fill-rule: evenodd;
      }
    </style>
  </defs>
  <path id="Color_Fill_1" data-name="Color Fill 1" class="cls-1" d="M197,86c15.7-.452,25.574.653,27,5,0.289,0.882.022,2.986,0,5-0.006.559,0,2.516,0,3,0.019,13.453,1.435,25.7,4,33,4.841,13.784,14.789,25.286,28,34a58.436,58.436,0,0,1,51-31c11.361,31.024,22.867,61.271,35,92,9.166,23.216,18.4,45.961,28,69l92,49a20.4,20.4,0,0,1,6,8,21.709,21.709,0,0,1-1,18c-3.726,11.4-17.872,20.456-27,27-10.942,7.844-22.573,15.064-35,20-43.559,17.3-90.568,7.679-119-3a181.763,181.763,0,0,1-40-21c-4.508-3.149-8.827-6.471-13-10l-6-7H51a8.1,8.1,0,0,1-6-3c-2.34-2.985-1.521-6.536-1-8a9.572,9.572,0,0,1,7-6H213c-4.231-6.183-8.5-12.093-13-18-4.006-5.257-8.093-10.39-12-15-2.312-2.728-4.609-5.353-7-8H49a8.023,8.023,0,0,1-4-2,8.7,8.7,0,0,1-2-9,9.15,9.15,0,0,1,7-6H160c-5.947-3.959-11.889-7.591-18-11-11.272-6.287-23.787-11.572-36-19-5.188-3.156-10.153-6.465-15-10H49a8.732,8.732,0,0,1-6-12,9.267,9.267,0,0,1,5-5H73l-2-2c-10.01-7.069-24.467-37.692-18-55,5.3-14.184,17.348-23.538,26-28a56.446,56.446,0,0,1,10-4,155.85,155.85,0,0,1,15-22c13.6-16.66,28.226-28.3,43-36a105.445,105.445,0,0,1,23-9C176.105,87.451,186.682,86.3,197,86Zm11,18a65.008,65.008,0,0,0-38,4,92.779,92.779,0,0,1,14.8,38.8c2.42,17.507-.014,32.268-4.8,44.2a82.722,82.722,0,0,1-23,32,254.354,254.354,0,0,1,41,29,256.645,256.645,0,0,1,43,48c13.437,19.5,19.988,33.3,39.037,48.612C289.315,356.068,301,362.341,318,368c16.777,5.583,42.522,9.014,73,7,6.184-.409,12.171-1.073,18-2,4.674-.743,9.807-1.783,15-3q13.763-3.224,28-8a2.5,2.5,0,0,0,0-4c-25.006-13.018-71.859-37.742-85-43a27.281,27.281,0,0,1-10-7,24.133,24.133,0,0,1-5-11l-1,1-17,7a8,8,0,0,1-7-2,9.873,9.873,0,0,1-2-5,13.548,13.548,0,0,1,1-7l21-10-6-14-22,9a9.462,9.462,0,0,1-7-7,9.357,9.357,0,0,1,2-8c3.973-1.582,7.9-3.107,11.9-4.621,3.039-1.15,6.049-2.268,9.1-3.379l-4-12-23,8a8.832,8.832,0,0,1-7-5,8.93,8.93,0,0,1,2-10l22-8q-2.5-6.5-5-13l-23,9a8.866,8.866,0,0,1-6-15l23-9-5-12a74.1,74.1,0,0,1-47,1c-13.939-4.368-27.214-13.383-37.613-27.139C213.872,145.95,207.822,127.58,208,104Zm-55,10a106.423,106.423,0,0,0-14,9,111.712,111.712,0,0,0-33,41,232.955,232.955,0,0,0,38,47,70.962,70.962,0,0,0,16-21c10.065-20.232,8.96-42.748,2-60a71.877,71.877,0,0,0-9-16h0Zm151,58c-0.9-3.344-1.826-6.6-2.818-9.919-1.324-4.422-2.695-8.711-4.182-13.081a39.034,39.034,0,0,0-26,24A57.437,57.437,0,0,0,304,172ZM92,173c-10.006,3.508-18.623,9.837-22,19-2.8,7.6-.853,22.322,14,41,10.915,13.727,28.352,24.168,32,26,21.256,10.675,42.969,22.449,56,32a200.923,200.923,0,0,1,33,31c10.324,11.925,16.7,23.052,27,35,10.55,12.243,22.7,23.953,30,29,30.436,21.05,68.608,25.872,98.959,23.526A148.686,148.686,0,0,0,384,406a144.139,144.139,0,0,0,43-18,5.668,5.668,0,0,0,1-1,5.753,5.753,0,0,0,1-2l-4,1a255.937,255.937,0,0,1-33,5c-38.834,3.319-72.621-2.141-89-9-45.428-19.024-65.507-57.47-93-94-18.117-24.072-45.9-38.838-70-57-10.791-8.132-27.9-28.731-36-40C99.763,185.1,97.1,178,92,173Z"/>
</svg>
