<svg id="Layer_1" data-name="Layer 1" xmlns="http://www.w3.org/2000/svg" viewBox="0 0 18.43529 24"><defs><style>.cls-1{fill:#ea650d;}</style></defs><path class="cls-1" d="M17.72266,14.26172a3.03662,3.03662,0,0,0-3.34961,0,3.92978,3.92978,0,0,1-2.084.49512,3.31115,3.31115,0,0,1-2.14258-.54883,2.85754,2.85754,0,0,0-2.26171-.48242c-3.29688.63183-5.01368,3.918-5.10206,9.7666A.5002.5002,0,0,0,3.27539,24h.00732a.5.5,0,0,0,.5-.49219C3.86426,18.124,5.26758,15.24512,8.07812,14.707a1.90172,1.90172,0,0,1,1.49952.32227,4.29768,4.29768,0,0,0,2.71142.72754,4.88469,4.88469,0,0,0,2.53614-.60352c.01269-.00586.09668-.0498.10937-.05664a2.00833,2.00833,0,0,1,2.21387-.01563c2.16113,1.52149,2.8623,5.40137,3.07031,8.38868a.48934.48934,0,0,0,.53418.46386.50061.50061,0,0,0,.46387-.53418C20.99414,20.19629,20.207,16.01172,17.72266,14.26172Z" transform="translate(-2.78266)"/><path class="cls-1" d="M11.96777,11.53125c1.28418,0,2.56836-.86377,3.61719-2.43262a8.22866,8.22866,0,0,0,1.4502-4.24316,5.07227,5.07227,0,0,0-10.13526,0C6.8999,7.43066,9.21924,11.53125,11.96777,11.53125ZM11.96777,1a4.01868,4.01868,0,0,1,4.06739,3.85547A7.29943,7.29943,0,0,1,14.75293,8.543a3.75975,3.75975,0,0,1-2.78516,1.98828c-2.09765,0-4.06787-3.541-4.06787-5.67578A4.01913,4.01913,0,0,1,11.96777,1Z" transform="translate(-2.78266)"/></svg>