<svg xmlns="http://www.w3.org/2000/svg" width="300.006" height="300.006" viewBox="0 0 256 256">
  <defs>
    <style>
      .cls-1 {
        fill: #007af6;
        stroke: #007af6;
        stroke-width: 1px;
        fill-rule: evenodd;
      }
    </style>
  </defs>
  <path class="cls-1" d="M128,48a17,17,0,1,1-17,17A17,17,0,0,1,128,48ZM69,89H187a5.288,5.288,0,0,1,4,2,5.436,5.436,0,0,1,1,4,6.539,6.539,0,0,1-4,5l-40,7v93a8.973,8.973,0,0,1-2,4,8.515,8.515,0,0,1-13,0,8.937,8.937,0,0,1-2-4V155a3.25,3.25,0,0,0-6,0v45a8.973,8.973,0,0,1-2,4,8.515,8.515,0,0,1-13,0,8.937,8.937,0,0,1-2-4V107c-12.215-2.4-30.229-6.1-37-7-1.143-.152-4.609-0.554-6-3a5.275,5.275,0,0,1,0-5,7.065,7.065,0,0,1,2-2A8.33,8.33,0,0,1,69,89Z"/>
</svg>
