<?xml version="1.0" encoding="utf-8"?>
<!-- Generator: Adobe Illustrator 25.1.0, SVG Export Plug-In . SVG Version: 6.00 Build 0)  -->
<svg version="1.1" id="PICTOS" xmlns="http://www.w3.org/2000/svg" xmlns:xlink="http://www.w3.org/1999/xlink" x="0px" y="0px"
	 viewBox="0 0 24 24" style="enable-background:new 0 0 24 24;" xml:space="preserve">
<style type="text/css">
	.st0{fill:#EA650D;}
</style>
<g>
	<path class="st0" d="M14.8066,4.1017c0.0566,0.0205,0.1133,0.0298,0.1699,0.0298c0.2051,0,0.3965-0.1265,0.4707-0.3306
		l0.9492-2.6313c0.0938-0.2598-0.041-0.5459-0.3008-0.6396c-0.2617-0.0938-0.5459,0.0405-0.6406,0.3008L14.5059,3.462
		C14.4121,3.7218,14.5469,4.0079,14.8066,4.1017z"/>
	<path class="st0" d="M23.124,14.9796l-2.6748-0.9492c-0.2559-0.0898-0.5449,0.0449-0.6387,0.3047
		c-0.0918,0.2598,0.0439,0.5459,0.3047,0.6387L22.79,15.923c0.0547,0.0195,0.1113,0.0283,0.167,0.0283
		c0.2061,0,0.3984-0.1279,0.4717-0.333C23.5205,15.3585,23.3848,15.0724,23.124,14.9796z"/>
	<path class="st0" d="M3.6743,9.4371c0.2056,0,0.3984-0.1279,0.4712-0.333c0.0923-0.2603-0.0439-0.5459-0.3042-0.6382L1.167,7.5172
		c-0.2603-0.0938-0.5459,0.043-0.6382,0.3042C0.4365,8.0817,0.5728,8.3673,0.833,8.4596l2.6743,0.9487
		C3.5625,9.4279,3.6187,9.4371,3.6743,9.4371z"/>
	<path class="st0" d="M20.4121,8.6178c0.0713,0,0.1436-0.0151,0.2119-0.0469l2.5879-1.208c0.25-0.1167,0.3584-0.4146,0.2412-0.6646
		c-0.1182-0.2505-0.417-0.3564-0.665-0.2417l-2.5879,1.208c-0.25,0.1167-0.3584,0.4146-0.2412,0.6646
		C20.0439,8.5109,20.2246,8.6178,20.4121,8.6178z"/>
	<path class="st0" d="M5.9956,4.4967C6.0942,4.6251,6.2427,4.692,6.3926,4.692c0.1064,0,0.2134-0.0337,0.3042-0.1035
		C6.916,4.42,6.9565,4.1061,6.7886,3.8873L5.063,1.6442C4.8945,1.4244,4.5806,1.3849,4.3618,1.5524
		C4.1426,1.7208,4.1021,2.0348,4.27,2.2535L5.9956,4.4967z"/>
	<path class="st0" d="M9.1929,19.8976c-0.2583-0.0898-0.5464,0.042-0.6396,0.3008l-0.9487,2.6318
		c-0.0938,0.2598,0.041,0.5469,0.3008,0.6406c0.0557,0.0195,0.1133,0.0293,0.1694,0.0293c0.2046,0,0.397-0.127,0.4702-0.3301
		l0.9487-2.6318C9.5874,20.2784,9.4526,19.9913,9.1929,19.8976z"/>
	<path class="st0" d="M3.9048,14.9767L1.187,15.882c-0.2617,0.0879-0.4033,0.3711-0.3164,0.6328
		c0.0698,0.209,0.2651,0.3418,0.4746,0.3418c0.0522,0,0.1055-0.0078,0.1582-0.0254l2.7178-0.9053
		c0.2617-0.0879,0.4033-0.3711,0.3164-0.6328S4.1699,14.8878,3.9048,14.9767z"/>
	<path class="st0" d="M16.3262,19.5939c-0.167-0.2217-0.4805-0.2656-0.7002-0.1006c-0.2207,0.166-0.2656,0.4795-0.1006,0.7002
		l1.6816,2.2432c0.0986,0.1309,0.249,0.2002,0.4004,0.2002c0.1045,0,0.21-0.0322,0.2998-0.0996
		c0.2207-0.166,0.2656-0.4795,0.1006-0.7002L16.3262,19.5939z"/>
	<path class="st0" d="M18.1787,8.3136c-0.1299-0.2446-0.4346-0.3354-0.6768-0.2061c-0.2432,0.1299-0.3359,0.4326-0.2061,0.6768
		c0.3369,0.6328,0.5664,1.3203,0.6797,2.0347c0.208,1.4736-0.1797,2.9409-1.0908,4.1313c-0.9395,1.2275-2.3135,2.0098-3.8574,2.2031
		l-0.4492,0.0459c-3.1265,0.4346-6.0298-1.7354-6.4673-4.8379c-0.208-1.4736,0.1797-2.9409,1.0908-4.1318
		c0.939-1.2271,2.3125-2.0098,3.8721-2.2046c1.1152-0.1479,2.27,0.0444,3.3423,0.5591c0.2451,0.1187,0.5479,0.0156,0.667-0.2344
		c0.1191-0.249,0.0137-0.5479-0.2354-0.667C13.6006,5.0841,12.251,4.86,10.9458,5.0333c-1.8237,0.2275-3.4355,1.147-4.5386,2.5884
		C5.332,9.027,4.875,10.7599,5.1206,12.5011c0.4707,3.3359,3.3599,5.7559,6.646,5.7559c0.3071,0,0.6187-0.0215,0.9312-0.0654
		l0.4419-0.0449c1.8242-0.2275,3.4355-1.1465,4.5391-2.5879c1.0752-1.4053,1.5322-3.1387,1.2861-4.8877
		C18.833,9.838,18.5684,9.045,18.1787,8.3136z"/>
</g>
</svg>
