<svg id="Layer_1" data-name="Layer 1" xmlns="http://www.w3.org/2000/svg" viewBox="0 0 3.80029 18.40039"><defs><style>.cls-1{fill:#ea650d;}</style></defs><path class="cls-1" d="M12,6.6001a1.85876,1.85876,0,0,0,1.90039-1.8999,1.90015,1.90015,0,1,0-3.80029,0A1.85835,1.85835,0,0,0,12,6.6001Z" transform="translate(-10.1001 -2.7998)"/><path class="cls-1" d="M12,10.1001A1.90015,1.90015,0,1,0,13.90039,12,1.85834,1.85834,0,0,0,12,10.1001Z" transform="translate(-10.1001 -2.7998)"/><path class="cls-1" d="M12,17.40039a1.89991,1.89991,0,0,0,0,3.79981,1.92564,1.92564,0,0,0,1.90039-1.9004A1.85835,1.85835,0,0,0,12,17.40039Z" transform="translate(-10.1001 -2.7998)"/></svg>