<?xml version="1.0" encoding="utf-8"?>
<!-- Generator: Adobe Illustrator 26.0.2, SVG Export Plug-In . SVG Version: 6.00 Build 0)  -->
<svg version="1.1" id="Layer_1" xmlns="http://www.w3.org/2000/svg" xmlns:xlink="http://www.w3.org/1999/xlink" x="0px" y="0px"
	 viewBox="0 0 121.2 121.2" style="enable-background:new 0 0 121.2 121.2;" xml:space="preserve">
<style type="text/css">
	.st0{fill:#FFFFFF;fill-opacity:0;}
	.st1{fill:#EA650D;}
</style>
<rect class="st0" width="121.2" height="121.2"/>
<path class="st1" d="M61.2,29.2C51,29,41.8,33.7,36,41.1c-1,1.2-0.5,2.2,1.1,2.2H73c0.6,0,1.2,0.3,1.5,0.8l4.4,6.9
	c0.4,0.6,0.5,1.3,0.4,2l-2.1,10l-1.3,6.4L74.3,77c-0.1,0.5-0.6,0.9-1.1,0.9h-7.6c-0.5,0-1.1-0.3-1.3-0.7l-9.2-13.9l-0.7,3.3
	l-2.1,10.5c-0.1,0.5-0.6,0.9-1,0.9h-5.5c-0.5,0-0.8-0.4-0.7-0.9l3.8-18.7l0,0l0.2-1c0.1-0.5,0.6-0.9,1.1-0.9h7.5
	c0.5,0,1.1,0.3,1.3,0.7l9.2,14l4.3-21.3H47.4c-11.7,0-17,6.5-17,15.4c0,12.5,12.5,26.2,29.2,26.8c18.1,0.6,33-14.2,32.4-32.4
	C91.5,42.8,78,29.5,61.2,29.2z"/>
</svg>
